<?xml version="1.0" encoding="utf-8"?>
<!-- Generator: Adobe Illustrator 22.0.1, SVG Export Plug-In . SVG Version: 6.00 Build 0)  -->
<svg version="1.1" xmlns="http://www.w3.org/2000/svg" xmlns:xlink="http://www.w3.org/1999/xlink" x="0px" y="0px"
	 viewBox="0 0 298.2 90.2" style="enable-background:new 0 0 298.2 90.2;" xml:space="preserve">
<style type="text/css">
	.st0{display:none;fill:#2B358C;}
	.st1{display:none;}
	.st2{display:inline;fill:#FFFFFF;}
	.st3{display:inline;fill:#FF0000;}
	.st4{fill:#FFFFFF;}
</style>
<g id="網站導覽">
	
		<image style="display:none;overflow:visible;" width="1898" height="596" xlink:href="47840973.jpg"  transform="matrix(1 0 0 1 -404.2053 -65.7589)">
	</image>
	<rect x="-28.2" y="-20.8" class="st0" width="377" height="123"/>
	<g class="st1">
		<path class="st2" d="M1.9,26.9l1.1,0l0-0.4l-2.9,0l0.4-0.6h0.2h1.2h0.4v-0.4v-0.7v-0.4H1.7H0.6v-0.5h1.2h0.4v-0.4v-0.6h0.6v-0.4
			H2.2V22v-0.4H1.7H0.6v-0.5H0.2v0.5h-1.1h-0.4V22v0.6h-0.6v0.4h0.6v0.6v0.4h0.4h1.1v0.5h-1.3h-0.4v0.4v0.7v0.4h0.4h1l-0.4,0.6
			l-1.4,0l0,0.4l1.1,0l-0.5,0.9l0.4,0.2l0.2-0.3c0.4,0.1,0.8,0.3,1.1,0.4c-0.8,0.5-1.9,0.6-1.9,0.6l0,0.4c0.1,0,1.3-0.1,2.3-0.9
			C1.6,28.7,1.9,29,1.9,29l0.3-0.3c0,0-0.4-0.3-1-0.6C1.5,27.8,1.8,27.4,1.9,26.9 M1.7,23.5H0.6v-0.6h1.1V23.5z M1.7,22.5H0.6V22
			h1.1V22.5z M-0.9,22h1.1v0.6h-1.1V22z M-0.9,22.9h1.1v0.6h-1.1V22.9z M1.7,25.5H0.6v-0.7h1.1V25.5z M-1.1,24.8h1.3v0.7h-1.3V24.8z
			 M-0.5,27.4l0.3-0.4l1.7,0c-0.1,0.4-0.4,0.7-0.7,1C0.5,27.7,0,27.5-0.5,27.4"/>
		<path class="st2" d="M6.6,28.9c-0.6-0.6-1.2-1.5-1.7-2.3c0.4-0.9,0.8-2,0.8-3.4h0.6v-0.4H3.8c0.2-0.9,0.3-1.6,0.3-1.7l-0.4,0
			c0,0-0.3,2.4-1.2,4l0.4,0.2c0.2-0.4,0.4-0.8,0.6-1.2c0.2,0.8,0.5,1.7,1,2.5c-0.8,1.4-1.8,2.1-1.8,2.2l0.2,0.3c0.1,0,1-0.7,1.8-2.1
			c0.5,0.8,1,1.6,1.6,2.2L6.6,28.9z M3.7,23.2h1.6c0,1.2-0.3,2.2-0.7,2.9C4.1,25,3.7,23.9,3.7,23.2"/>
		<path class="st2" d="M21.2,21.4l-0.4-0.2c0,0-0.8,1.8-2.2,3.4l0.3,0.3c0.3-0.4,0.7-0.8,0.9-1.1v5.4h0.5V23
			C20.9,22.1,21.2,21.4,21.2,21.4"/>
		<polygon class="st2" points="21.2,22.9 21.2,23.3 26.5,23.3 26.5,22.9 24.1,22.9 24.1,21 23.6,21 23.6,22.9 		"/>
		<path class="st2" d="M24.8,28.3c0.6-2,1-4,1-4.1l0-0.2l-0.5-0.1l0,0.2c0,0-0.4,2.1-1.1,4.1h-1.2c-0.2-1.5-0.5-2.9-0.6-3.7
			c0-0.3-0.1-0.4-0.1-0.5l0-0.2L22,24l0,0.2c0,0,0,0.2,0.1,0.5c0.1,0.7,0.3,2.1,0.5,3.6h-1.6v0.5h5.6v-0.5H24.8z"/>
		<path class="st2" d="M4.7,37.4l0.9-0.8l-0.3-0.3l-0.9,0.9c-0.2-0.2-0.4-0.4-0.6-0.6c0.5-0.4,0.8-0.8,0.8-0.8l-0.3-0.3
			c0,0-0.3,0.3-0.8,0.8c-0.4-0.5-0.7-0.9-0.7-0.9l-0.4,0.2c0.1,0.1,1.4,2.3,3.6,3l0.1-0.4C5.6,37.9,5.1,37.7,4.7,37.4"/>
		<path class="st2" d="M1.1,38h-1.5c1.6-1,2-2.1,2.1-2.1c0-0.1,0-0.2,0-0.2c0-0.1-0.1-0.1-0.2-0.1H-1V36H1c-0.2,0.3-0.5,0.6-1,1.1
			c-0.5-0.4-1-0.7-1-0.7l-0.2,0.4c0,0,0.5,0.3,0.9,0.6c-0.5,0.3-1,0.7-1.7,1l0.2,0.4c0.4-0.2,0.8-0.4,1.1-0.5v0.3h1.7v0.9h-1.6
			c-0.1,0-0.2,0.1-0.2,0.2l-0.4,1.7l0.5,0.1l0.1-0.3h1.7c0,0.7-0.2,1.6-0.3,1.7C0.5,43,0,43-0.3,43c-0.1,0-0.3,0-0.4,0v0.5
			c0.1,0,0.3,0,0.4,0c0.1,0,0.3,0,0.4,0c0.3,0,0.7,0,0.9-0.3c0.4-0.4,0.4-1.8,0.4-2.3c0-0.1,0-0.1-0.1-0.2c0,0-0.1-0.1-0.2-0.1h-1.9
			l0.2-0.8h1.4v0.2h0.5v-1.8C1.4,38.1,1.3,38,1.1,38"/>
		<path class="st2" d="M4.9,40.9c0-0.1,0-0.1,0-0.2c0-0.1-0.1-0.1-0.2-0.1H2.3c-0.1,0-0.1,0-0.2,0.1c0,0-0.1,0.1-0.1,0.2
			c0,0,0.1,0.8,1.1,1.5c-0.4,0.3-1,0.5-1.6,0.7l0.1,0.5c0.8-0.2,1.5-0.5,1.9-0.9C4,43,4.7,43.3,5.5,43.5l0.1-0.4
			c-0.7-0.2-1.2-0.5-1.6-0.7C4.7,41.6,4.9,40.9,4.9,40.9 M3.6,42.1c-0.5-0.4-0.8-0.8-0.9-1h1.7C4.2,41.3,4,41.7,3.6,42.1"/>
		<path class="st2" d="M5.1,39.7C5.1,39.7,5.1,39.7,5.1,39.7l-0.6,0.1c0,0-0.1-0.1-0.1-0.1v-1c0-0.4-0.3-0.6-0.6-0.6H2.8
			c-0.1,0-0.2,0-0.3,0.1c-0.2,0.2-0.1,0.4-0.1,0.6c0,1.1-0.5,1.1-0.5,1.2l0,0.5c0,0,1-0.1,0.9-1.7c0-0.1,0-0.2,0-0.3h1
			C4,38.4,4,38.5,4,38.6v1c0,0.3,0.2,0.6,0.6,0.6H5c0.2,0,0.4-0.1,0.5-0.3l0.2-0.4l-0.4-0.2L5.1,39.7z"/>
		<path class="st2" d="M14.5,42.1c0.6-0.3,1.1-0.8,1.1-0.8L15.4,41c0,0-0.6,0.5-1.2,0.8c-0.4-0.5-0.7-0.9-0.9-1.2h2.9v-0.5h-1.8v-1
			h1.4v-0.5h-1.4v-1h1.1c0.1,0,0.2-0.1,0.2-0.2V36c0-0.2-0.2-0.4-0.4-0.4H9.6c-0.1,0-0.1,0-0.2,0.1c0,0-0.1,0.1-0.1,0.2
			c0,0.1,0.3,5.6-1,7.2l0.4,0.3c0.5-0.6,0.7-1.6,0.9-2.8h1.4v2l-1,0.2l0.1,0.5l3.2-0.6l-0.1-0.5l-1.7,0.3v-2h1.2
			c0.2,0.5,1.1,2.2,3.4,2.9l0.1-0.4C15.5,42.8,15,42.5,14.5,42.1 M13.9,40.1h-2v-1h2V40.1z M13.9,38.7h-2v-1h2V38.7z M15.3,36.1v1.1
			H9.9c0-0.5,0-0.9,0-1.1H15.3z M9.9,37.7h1.6v1h-1.3v0.5h1.3v1H9.7C9.8,39.3,9.8,38.4,9.9,37.7"/>
		<path class="st2" d="M22.5,36.6h0.6v-0.5h-1.8v-0.9h-0.5v0.9h-1.8v0.5h0.6c0.1,0.4,0.3,1.4,0.4,2.2h-1.2v0.5h4.5v-0.5h-1.2
			C22.2,38,22.4,37,22.5,36.6 M20,36.6h2c-0.1,0.5-0.3,1.5-0.4,2.2h-1.2C20.3,38,20.1,37,20,36.6"/>
		<path class="st2" d="M22.4,40h-2.8c-0.1,0-0.2,0.1-0.2,0.2v3.1h0.5v-0.4h2.4v0.4h0.5v-3.1C22.6,40.1,22.5,40,22.4,40 M19.8,40.5
			h2.4v1.9h-2.4V40.5z"/>
		<path class="st2" d="M25.8,38.6l0.7-2c0.1-0.2,0.1-0.4-0.1-0.6c-0.1-0.2-0.3-0.3-0.5-0.3l-1.6,0c-0.2,0-0.4,0.2-0.4,0.4v7.4h0.5
			v-7.4l1.5,0c0.1,0,0.1,0.1,0.2,0.1c0,0.1,0,0.1,0,0.2l-0.7,2.2c0,0.1,0,0.1,0,0.2c0.4,0.5,1.2,2,0.9,2.7c-0.1,0.2-0.4,0.4-0.9,0.4
			H25v0.5h0.2c0.7,0,1.1-0.2,1.3-0.6C27.1,40.7,26.1,39,25.8,38.6"/>
		<polygon class="st2" points="-2.3,3.3 -1.7,3.3 0,7.1 1.7,3.3 2.3,3.3 2.3,7.9 1.7,7.9 1.7,4.5 0.2,7.9 -0.2,7.9 -1.7,4.5 
			-1.7,7.9 -2.3,7.9 		"/>
		<path class="st2" d="M3.3,3.3c0-0.2,0.2-0.4,0.4-0.4c0.2,0,0.4,0.2,0.4,0.4c0,0.2-0.2,0.4-0.4,0.4C3.5,3.7,3.3,3.5,3.3,3.3
			 M3.4,4.3H4v3.6H3.4V4.3z"/>
		<path class="st2" d="M7.7,5.9c0-0.7-0.4-1.1-1-1.1c-0.6,0-1,0.4-1,1.2v2H5.1V4.3h0.6v0.5c0.2-0.4,0.7-0.6,1.2-0.6
			c0.8,0,1.5,0.5,1.5,1.5v2.1H7.7V5.9z"/>
		<path class="st2" d="M9.3,3.3c0-0.2,0.2-0.4,0.4-0.4c0.2,0,0.4,0.2,0.4,0.4c0,0.2-0.2,0.4-0.4,0.4C9.5,3.7,9.3,3.5,9.3,3.3
			 M9.4,4.3H10v3.6H9.4V4.3z"/>
		<path class="st2" d="M12.3,8c-0.8,0-1.4-0.5-1.5-1.1h0.6c0,0.3,0.3,0.6,0.8,0.6c0.5,0,0.7-0.2,0.7-0.5c0-0.8-2.1-0.3-2.1-1.7
			c0-0.6,0.5-1,1.3-1c0.8,0,1.3,0.4,1.4,1.1H13c0-0.4-0.3-0.6-0.8-0.6c-0.4,0-0.7,0.2-0.7,0.5c0,0.9,2.1,0.4,2.1,1.7
			C13.7,7.5,13.1,8,12.3,8"/>
		<path class="st2" d="M14.7,4.8h-0.5V4.3h0.5V3.4h0.6v0.9h0.9v0.5h-0.9v2.1c0,0.4,0.1,0.5,0.5,0.5h0.4v0.5h-0.5c-0.6,0-1-0.3-1-1
			V4.8z"/>
		<path class="st2" d="M17.6,7.9H17V4.3h0.6v0.6c0.2-0.4,0.6-0.7,1.2-0.7v0.6h-0.2c-0.6,0-1,0.3-1,1.1V7.9z"/>
		<polygon class="st2" points="22,4.3 22.7,4.3 20.5,9.6 19.9,9.6 20.6,7.9 19.1,4.3 19.8,4.3 20.9,7.2 		"/>
		<path class="st2" d="M26.7,8c-1,0-1.8-0.7-1.8-1.9c0-1.1,0.8-1.9,1.8-1.9c1,0,1.8,0.7,1.8,1.9C28.6,7.2,27.7,8,26.7,8 M26.7,7.4
			C27.3,7.4,28,7,28,6.1c0-0.9-0.6-1.3-1.2-1.3c-0.6,0-1.2,0.4-1.2,1.3C25.5,7,26.1,7.4,26.7,7.4"/>
		<path class="st2" d="M29.5,4.8h-0.5V4.3h0.5V4c0-0.8,0.4-1.2,1.3-1.2v0.5c-0.5,0-0.7,0.2-0.7,0.7v0.3h0.8v0.5h-0.8v3.1h-0.6V4.8z"
			/>
		<path class="st2" d="M37.3,5.6c0,1.4-0.9,2.3-2.4,2.3h-1.4V3.3h1.4C36.4,3.3,37.3,4.2,37.3,5.6 M34.9,7.4c1.2,0,1.8-0.7,1.8-1.8
			c0-1.1-0.6-1.8-1.8-1.8h-0.8v3.6H34.9z"/>
		<path class="st2" d="M38.1,3.3c0-0.2,0.2-0.4,0.4-0.4c0.2,0,0.4,0.2,0.4,0.4c0,0.2-0.2,0.4-0.4,0.4C38.3,3.7,38.1,3.5,38.1,3.3
			 M38.2,4.3h0.6v3.6h-0.6V4.3z"/>
		<path class="st2" d="M41.4,4.2c0.7,0,1.1,0.3,1.3,0.7V4.3h0.6V8c0,1-0.7,1.7-1.7,1.7c-0.9,0-1.6-0.5-1.7-1.3h0.6
			c0.1,0.4,0.6,0.7,1.2,0.7c0.6,0,1.1-0.4,1.1-1.2V7.2C42.5,7.6,42,8,41.4,8c-1,0-1.7-0.8-1.7-1.9C39.7,5,40.4,4.2,41.4,4.2
			 M41.5,4.8c-0.7,0-1.2,0.5-1.2,1.3c0,0.8,0.6,1.3,1.2,1.3c0.7,0,1.2-0.5,1.2-1.3C42.7,5.3,42.1,4.8,41.5,4.8"/>
		<path class="st2" d="M44.3,3.3c0-0.2,0.2-0.4,0.4-0.4c0.2,0,0.4,0.2,0.4,0.4c0,0.2-0.2,0.4-0.4,0.4C44.5,3.7,44.3,3.5,44.3,3.3
			 M44.4,4.3H45v3.6h-0.6V4.3z"/>
		<path class="st2" d="M46.2,4.8h-0.5V4.3h0.5V3.4h0.6v0.9h0.9v0.5h-0.9v2.1c0,0.4,0.1,0.5,0.5,0.5h0.4v0.5h-0.5c-0.6,0-1-0.3-1-1
			V4.8z"/>
		<path class="st2" d="M50,4.2c0.7,0,1.1,0.3,1.3,0.7V4.3H52v3.6h-0.6V7.2C51.2,7.6,50.7,8,50,8c-1,0-1.7-0.8-1.7-1.9
			C48.3,5,49.1,4.2,50,4.2 M50.1,4.8c-0.7,0-1.2,0.5-1.2,1.3c0,0.8,0.6,1.3,1.2,1.3c0.7,0,1.2-0.5,1.2-1.3
			C51.4,5.3,50.8,4.8,50.1,4.8"/>
		<rect x="53.1" y="3" class="st2" width="0.6" height="4.9"/>
		<path class="st2" d="M59.3,6.9h-2l-0.4,1h-0.6l1.7-4.6h0.7l1.7,4.6h-0.6L59.3,6.9z M58.3,4.1l-0.8,2.3h1.7L58.3,4.1z"/>
		<path class="st2" d="M61.2,4.8h-0.5V4.3h0.5V4c0-0.8,0.4-1.2,1.3-1.2v0.5c-0.5,0-0.7,0.2-0.7,0.7v0.3h0.8v0.5h-0.8v3.1h-0.6V4.8z"
			/>
		<path class="st2" d="M63.4,4.8h-0.5V4.3h0.5V4c0-0.8,0.4-1.2,1.3-1.2v0.5C64.2,3.4,64,3.6,64,4v0.3h0.8v0.5H64v3.1h-0.6V4.8z"/>
		<path class="st2" d="M67,4.2c0.7,0,1.1,0.3,1.3,0.7V4.3H69v3.6h-0.6V7.2C68.1,7.6,67.7,8,67,8c-1,0-1.7-0.8-1.7-1.9
			C65.3,5,66,4.2,67,4.2 M67.1,4.8c-0.7,0-1.2,0.5-1.2,1.3c0,0.8,0.6,1.3,1.2,1.3c0.7,0,1.2-0.5,1.2-1.3C68.4,5.3,67.8,4.8,67.1,4.8
			"/>
		<path class="st2" d="M69.9,3.3c0-0.2,0.2-0.4,0.4-0.4c0.2,0,0.4,0.2,0.4,0.4c0,0.2-0.2,0.4-0.4,0.4C70.1,3.7,69.9,3.5,69.9,3.3
			 M70,4.3h0.6v3.6H70V4.3z"/>
		<path class="st2" d="M72.3,7.9h-0.6V4.3h0.6v0.6c0.2-0.4,0.6-0.7,1.2-0.7v0.6h-0.2c-0.6,0-1,0.3-1,1.1V7.9z"/>
		<path class="st2" d="M75.5,8c-0.8,0-1.4-0.5-1.5-1.1h0.6c0,0.3,0.3,0.6,0.8,0.6c0.5,0,0.7-0.2,0.7-0.5c0-0.8-2.1-0.3-2.1-1.7
			c0-0.6,0.5-1,1.3-1c0.8,0,1.3,0.4,1.4,1.1h-0.6c0-0.4-0.3-0.6-0.8-0.6c-0.4,0-0.7,0.2-0.7,0.5c0,0.9,2.1,0.4,2.1,1.7
			C76.8,7.5,76.3,8,75.5,8"/>
		<path class="st2" d="M94.8,30.4c-8.6,0-8.8,13,0,13C103.6,43.5,103.4,30.4,94.8,30.4 M94.8,41.7c-6.3-0.1-6.3-9.5,0-9.6
			C101.1,32.3,101.1,41.6,94.8,41.7"/>
		<path class="st2" d="M115.4,12.8c-0.5,0-0.9,0.4-0.9,0.9v6.5c-1-1.3-2.6-2.2-4.7-2.2c-4.3,0-6.5,3.3-6.5,6.5
			c0,3.3,2.2,6.5,6.5,6.5c2.2,0,3.7-0.9,4.7-2.2v1.1c0,0.5,0.4,0.9,0.9,0.9c0.5,0,0.9-0.4,0.9-0.9V13.7
			C116.3,13.2,115.9,12.8,115.4,12.8 M109.8,29.3c-3.2-0.1-4.7-2.4-4.7-4.8c0-2.4,1.6-4.7,4.7-4.8c3.2,0.1,4.7,2.4,4.7,4.8
			C114.5,26.9,112.9,29.3,109.8,29.3"/>
		<path class="st2" d="M132.9,3.1c-0.5,0-0.9,0.4-0.9,0.9V5c-1-1.3-2.6-2.2-4.7-2.2c-4.3,0-6.5,3.3-6.5,6.5c0,3.3,2.2,6.5,6.5,6.5
			c2.1,0,3.7-0.9,4.7-2.2v1.1c0,0.5,0.4,0.9,0.9,0.9c0.5,0,0.9-0.4,0.9-0.9V4C133.8,3.5,133.4,3.1,132.9,3.1 M127.3,14.2
			c-3.2-0.1-4.7-2.4-4.7-4.8c0-2.4,1.6-4.7,4.7-4.8c3.2,0.1,4.7,2.4,4.7,4.8C132,11.7,130.4,14.1,127.3,14.2"/>
		<path class="st2" d="M74.9,30.6c-2.7,0-4.6,1.3-5.6,3.1c-1-1.8-2.9-3.1-5.6-3.1c-2,0-3.7,0.8-4.7,2.3v-1.1c0-0.5-0.4-0.9-0.9-0.9
			c-0.5,0-0.9,0.4-0.9,0.9v4.3v1.1v5.4c0,0.5,0.4,0.9,0.9,0.9c0.5,0,0.9-0.4,0.9-0.9c0-1-0.1-5.4,0.1-6.9c0.1-0.3,0.1-0.5,0.2-0.7
			c0.7-1.6,2.3-2.6,4.5-2.7c3.1,0.1,4.7,2.4,4.7,4.8v5.4c0,0.5,0.4,0.9,0.9,0.9s0.9-0.4,0.9-0.9v-5.4h0c0-2.4,1.6-4.7,4.7-4.8
			c2,0,3.4,1,4.1,2.3c0.4,0.8,0.6,1.8,0.6,3.1l0,1.3v3.6c0,0.5,0.4,0.9,0.9,0.9c0.5,0,0.9-0.4,0.9-0.9V39v-1.8
			C81.5,33.3,79,30.7,74.9,30.6"/>
	</g>
	<g class="st1">
		<path class="st2" d="M40.5,22.2c-9.5,0-9.7,14.2,0,14.2C50.3,36.4,50,22.2,40.5,22.2 M40.5,34.5c-7-0.1-7-10.3,0-10.4
			C47.5,24.2,47.5,34.4,40.5,34.5"/>
		<path class="st2" d="M63.3,3c-0.5,0-1,0.4-1,1V11c-1.1-1.4-2.9-2.4-5.2-2.4c-4.7,0-7.2,3.5-7.2,7.1c0,3.5,2.5,7.1,7.2,7.1
			c2.4,0,4.1-1,5.2-2.4v1.2c0,0.5,0.4,1,1,1c0.5,0,1-0.4,1-1V4C64.3,3.4,63.8,3,63.3,3 M57,21c-3.5-0.1-5.2-2.6-5.2-5.2
			s1.7-5.2,5.2-5.2c3.5,0.1,5.2,2.6,5.2,5.2S60.5,20.9,57,21"/>
		<path class="st2" d="M82.6-7.6c-0.5,0-1,0.4-1,1v1.2c-1.1-1.4-2.9-2.4-5.2-2.4c-4.7,0-7.2,3.5-7.2,7.1c0,3.5,2.5,7.1,7.2,7.1
			c2.4,0,4.1-1,5.2-2.4v1.2c0,0.5,0.4,1,1,1c0.5,0,1-0.4,1-1V-6.6C83.6-7.2,83.2-7.6,82.6-7.6 M76.4,4.5c-3.5-0.1-5.2-2.6-5.2-5.2
			c0-2.6,1.7-5.2,5.2-5.2c3.5,0.1,5.2,2.6,5.2,5.2C81.6,1.9,79.9,4.4,76.4,4.5"/>
		<path class="st2" d="M18.6,22.4c-3,0-5.1,1.4-6.2,3.4c-1.1-2-3.2-3.4-6.2-3.4c-2.2,0-4.1,0.9-5.2,2.5v-1.2c0-0.5-0.4-1-1-1
			c-0.5,0-1,0.4-1,1v4.6v1.2v5.9c0,0.5,0.4,1,1,1c0.5,0,1-0.4,1-1c0-1.1-0.1-5.8,0.1-7.5c0.1-0.3,0.1-0.6,0.2-0.7
			c0.8-1.7,2.5-2.8,5-2.9c3.5,0.1,5.2,2.6,5.2,5.2v5.9c0,0.5,0.4,1,1,1c0.5,0,1-0.4,1-1v-5.9c0-2.6,1.7-5.2,5.2-5.2
			c2.3,0,3.7,1.1,4.5,2.5c0.4,0.9,0.7,2,0.7,3.3l0,1.4v3.9c0,0.5,0.4,1,1,1c0.5,0,1-0.4,1-1v-3.9v-2C25.8,25.4,23,22.5,18.6,22.4"/>
		<polygon class="st2" points="89.3,38.5 89.8,38.5 91.7,42.8 93.6,38.5 94.2,38.5 94.2,43.4 93.7,43.4 93.7,39.5 91.9,43.4 
			91.5,43.4 89.8,39.5 89.8,43.4 89.3,43.4 		"/>
		<path class="st2" d="M95.3,38.4c0-0.2,0.2-0.4,0.4-0.4c0.2,0,0.4,0.2,0.4,0.4c0,0.2-0.2,0.4-0.4,0.4
			C95.4,38.8,95.3,38.6,95.3,38.4 M95.4,39.5h0.5v3.9h-0.5V39.5z"/>
		<path class="st2" d="M100,41.2c0-0.9-0.5-1.3-1.2-1.3c-0.7,0-1.2,0.5-1.2,1.4v2.1h-0.5v-3.9h0.5v0.7c0.3-0.5,0.8-0.7,1.3-0.7
			c0.9,0,1.6,0.5,1.6,1.7v2.3H100V41.2z"/>
		<path class="st2" d="M101.6,38.4c0-0.2,0.2-0.4,0.4-0.4c0.2,0,0.4,0.2,0.4,0.4c0,0.2-0.2,0.4-0.4,0.4
			C101.8,38.8,101.6,38.6,101.6,38.4 M101.7,39.5h0.5v3.9h-0.5V39.5z"/>
		<path class="st2" d="M104.8,43.5c-0.9,0-1.5-0.4-1.6-1.2h0.5c0,0.4,0.4,0.7,1.1,0.7c0.6,0,0.9-0.3,0.9-0.7c0-1-2.3-0.4-2.3-1.9
			c0-0.6,0.6-1.1,1.4-1.1c0.8,0,1.4,0.4,1.4,1.2h-0.5c0-0.4-0.4-0.8-0.9-0.8c-0.5,0-0.9,0.3-0.9,0.6c0,1.1,2.3,0.5,2.3,1.9
			C106.1,43,105.6,43.5,104.8,43.5"/>
		<path class="st2" d="M107.3,39.9h-0.5v-0.4h0.5v-1h0.5v1h1.1v0.4h-1.1v2.4c0,0.5,0.2,0.6,0.6,0.6h0.5v0.4h-0.5c-0.7,0-1-0.3-1-1.1
			V39.9z"/>
		<path class="st2" d="M110.3,43.4h-0.5v-3.9h0.5v0.7c0.2-0.5,0.7-0.8,1.3-0.8V40h-0.1c-0.7,0-1.2,0.3-1.2,1.3V43.4z"/>
		<polygon class="st2" points="115.1,39.5 115.6,39.5 113.3,45.3 112.8,45.3 113.6,43.4 112,39.5 112.5,39.5 113.8,42.9 		"/>
		<path class="st2" d="M120.1,43.5c-1.1,0-1.9-0.8-1.9-2c0-1.2,0.9-2,2-2c1.1,0,2,0.8,2,2C122.1,42.7,121.2,43.5,120.1,43.5
			 M120.1,43c0.7,0,1.5-0.5,1.5-1.6c0-1.1-0.7-1.6-1.4-1.6c-0.7,0-1.4,0.5-1.4,1.6C118.7,42.5,119.4,43,120.1,43"/>
		<path class="st2" d="M123.2,39.9h-0.5v-0.4h0.5v-0.3c0-0.8,0.4-1.2,1.4-1.2v0.4c-0.7,0-0.9,0.2-0.9,0.8v0.3h0.9v0.4h-0.9v3.5h-0.5
			V39.9z"/>
		<path class="st2" d="M131.7,40.9c0,1.6-1,2.5-2.7,2.5h-1.5v-5h1.5C130.7,38.4,131.7,39.4,131.7,40.9 M129,43
			c1.4,0,2.1-0.8,2.1-2.1c0-1.3-0.7-2.1-2.1-2.1h-1V43H129z"/>
		<path class="st2" d="M132.5,38.4c0-0.2,0.2-0.4,0.4-0.4c0.2,0,0.4,0.2,0.4,0.4c0,0.2-0.2,0.4-0.4,0.4
			C132.7,38.8,132.5,38.6,132.5,38.4 M132.7,39.5h0.5v3.9h-0.5V39.5z"/>
		<path class="st2" d="M136,39.5c0.8,0,1.3,0.4,1.5,0.9v-0.9h0.5v4c0,1.1-0.8,1.8-1.8,1.8c-1,0-1.7-0.5-1.9-1.3h0.5
			c0.2,0.5,0.7,0.9,1.4,0.9c0.7,0,1.3-0.5,1.3-1.4v-1c-0.2,0.5-0.8,0.9-1.5,0.9c-1.1,0-1.9-0.8-1.9-2
			C134.1,40.2,134.9,39.5,136,39.5 M136.1,39.9c-0.8,0-1.5,0.6-1.5,1.6c0,1,0.6,1.6,1.5,1.6c0.8,0,1.5-0.6,1.5-1.6
			C137.6,40.5,136.9,39.9,136.1,39.9"/>
		<path class="st2" d="M139.2,38.4c0-0.2,0.2-0.4,0.4-0.4c0.2,0,0.4,0.2,0.4,0.4c0,0.2-0.2,0.4-0.4,0.4
			C139.3,38.8,139.2,38.6,139.2,38.4 M139.3,39.5h0.5v3.9h-0.5V39.5z"/>
		<path class="st2" d="M141.1,39.9h-0.5v-0.4h0.5v-1h0.5v1h1.1v0.4h-1.1v2.4c0,0.5,0.2,0.6,0.6,0.6h0.5v0.4h-0.5c-0.7,0-1-0.3-1-1.1
			V39.9z"/>
		<path class="st2" d="M145.3,39.5c0.8,0,1.3,0.4,1.5,0.9v-0.9h0.5v3.9h-0.5v-0.9c-0.2,0.5-0.8,0.9-1.6,0.9c-1.1,0-1.9-0.8-1.9-2
			C143.4,40.2,144.2,39.5,145.3,39.5 M145.3,39.9c-0.8,0-1.5,0.6-1.5,1.6c0,1,0.6,1.6,1.5,1.6c0.8,0,1.5-0.6,1.5-1.6
			C146.8,40.5,146.1,39.9,145.3,39.9"/>
		<rect x="148.5" y="38.1" class="st2" width="0.5" height="5.3"/>
		<path class="st2" d="M155.2,42.2h-2.3l-0.4,1.2h-0.5l1.8-4.9h0.6l1.8,4.9h-0.5L155.2,42.2z M154,39.1l-1,2.7h2L154,39.1z"/>
		<path class="st2" d="M157.1,39.9h-0.5v-0.4h0.5v-0.3c0-0.8,0.4-1.2,1.4-1.2v0.4c-0.7,0-0.9,0.2-0.9,0.8v0.3h0.9v0.4h-0.9v3.5h-0.5
			V39.9z"/>
		<path class="st2" d="M159.5,39.9H159v-0.4h0.5v-0.3c0-0.8,0.4-1.2,1.4-1.2v0.4c-0.7,0-0.9,0.2-0.9,0.8v0.3h0.9v0.4H160v3.5h-0.5
			V39.9z"/>
		<path class="st2" d="M163.4,39.5c0.8,0,1.3,0.4,1.5,0.9v-0.9h0.5v3.9H165v-0.9c-0.2,0.5-0.8,0.9-1.6,0.9c-1.1,0-1.9-0.8-1.9-2
			C161.6,40.2,162.4,39.5,163.4,39.5 M163.5,39.9c-0.8,0-1.5,0.6-1.5,1.6c0,1,0.6,1.6,1.5,1.6c0.8,0,1.5-0.6,1.5-1.6
			C165,40.5,164.3,39.9,163.5,39.9"/>
		<path class="st2" d="M166.6,38.4c0-0.2,0.2-0.4,0.4-0.4s0.4,0.2,0.4,0.4c0,0.2-0.2,0.4-0.4,0.4S166.6,38.6,166.6,38.4 M166.7,39.5
			h0.5v3.9h-0.5V39.5z"/>
		<path class="st2" d="M168.9,43.4h-0.5v-3.9h0.5v0.7c0.2-0.5,0.7-0.8,1.3-0.8V40h-0.1c-0.7,0-1.2,0.3-1.2,1.3V43.4z"/>
		<path class="st2" d="M172.4,43.5c-0.9,0-1.5-0.4-1.6-1.2h0.5c0,0.4,0.4,0.7,1.1,0.7c0.6,0,0.9-0.3,0.9-0.7c0-1-2.3-0.4-2.3-1.9
			c0-0.6,0.6-1.1,1.4-1.1c0.8,0,1.4,0.4,1.4,1.2h-0.5c0-0.4-0.4-0.8-0.9-0.8c-0.5,0-0.9,0.3-0.9,0.6c0,1.1,2.3,0.5,2.3,1.9
			C173.8,43,173.2,43.5,172.4,43.5"/>
		<path class="st2" d="M89.2,25.7v0.4h0.4h0.9v0.4h-1.1H89V27v0.6V28h0.4h0.9L90,28.5l-1.3,0l0,0.4l1,0l-0.5,0.8l0.4,0.2l0.1-0.3
			c0.4,0.1,0.7,0.3,1,0.4c-0.8,0.5-1.7,0.6-1.7,0.6l0,0.4c0.1,0,1.2-0.1,2.1-0.8c0.6,0.3,1,0.6,1,0.6l0.3-0.3c0,0-0.3-0.3-0.9-0.6
			c0.3-0.3,0.5-0.6,0.6-1.1l1,0l0-0.4l-2.7,0l0.3-0.5H91h1h0.4v-0.4V27v-0.4H92h-1v-0.4h1h0.4v-0.4v-0.5H93v-0.4h-0.5v-0.5v-0.4H92
			h-1v-0.4h-0.4v0.4h-0.9h-0.4v0.4v0.5h-0.5v0.4h0.5V25.7z M91.7,28.9c-0.1,0.3-0.3,0.6-0.6,0.8c-0.3-0.2-0.7-0.3-1.1-0.5l0.2-0.4
			L91.7,28.9z M89.4,27h1.1v0.6h-1.1V27z M92,27.5h-1V27h1V27.5z M89.6,25.2h0.9v0.5h-0.9V25.2z M92,25.7h-1v-0.5h1V25.7z M92,24.8
			h-1v-0.5h1V24.8z M89.6,24.3h0.9v0.5h-0.9V24.3z"/>
		<path class="st2" d="M93.1,27.4c0.2-0.3,0.3-0.7,0.5-1.1c0.2,0.7,0.5,1.5,0.9,2.2c-0.7,1.3-1.6,2-1.7,2l0.2,0.4
			c0.1,0,0.9-0.6,1.7-1.9c0.4,0.7,0.9,1.4,1.5,2l0.3-0.3c-0.6-0.6-1.1-1.3-1.5-2.1c0.4-0.8,0.7-1.8,0.7-3.1h0.5v-0.4H94
			c0.2-0.8,0.3-1.5,0.3-1.5l-0.4,0c0,0-0.2,2.2-1.1,3.7L93.1,27.4z M94.7,28.1c-0.5-1-0.8-1.9-0.8-2.6h1.4
			C95.2,26.5,95,27.4,94.7,28.1"/>
		<path class="st2" d="M100.6,31v-5.6c0.5-0.8,0.8-1.5,0.8-1.5l-0.4-0.2c0,0-0.8,1.7-2,3.1l0.4,0.3c0.3-0.3,0.6-0.7,0.8-1V31H100.6z
			"/>
		<polygon class="st2" points="106.3,25.2 104.1,25.2 104.1,23.5 103.6,23.5 103.6,25.2 101.4,25.2 101.4,25.7 106.3,25.7 		"/>
		<path class="st2" d="M105.7,26.5l0-0.2l-0.5-0.1l0,0.2c0,0-0.4,1.9-1,3.8h-1c-0.2-1.4-0.4-2.7-0.5-3.4c0-0.2-0.1-0.4-0.1-0.4
			l0-0.2l-0.5,0.1l0,0.2c0,0,0,0.2,0.1,0.4c0.1,0.7,0.3,2,0.5,3.3h-1.5v0.5h5.2v-0.5h-1.8C105.4,28.3,105.7,26.5,105.7,26.5"/>
		<path class="st2" d="M110.4,26.3v0.2h1.5v0.8h-1.5c-0.1,0-0.2,0.1-0.2,0.2l-0.4,1.6l0.5,0.1l0.1-0.2h1.5c0,0.7-0.2,1.4-0.3,1.5
			c-0.1,0.1-0.5,0.1-0.8,0.1c-0.1,0-0.3,0-0.4,0v0.5c0.1,0,0.2,0,0.4,0c0.1,0,0.3,0,0.4,0c0.3,0,0.6,0,0.8-0.2
			c0.3-0.4,0.4-1.7,0.4-2.1c0-0.1,0-0.1-0.1-0.2c0,0-0.1-0.1-0.2-0.1h-1.7l0.2-0.7h1.3V28h0.5v-1.7c0-0.1-0.1-0.2-0.2-0.2h-1.3
			c1.4-0.9,1.8-1.9,1.8-1.9c0-0.1,0-0.2,0-0.2c0-0.1-0.1-0.1-0.2-0.1h-2.3v0.5h1.8c-0.2,0.2-0.4,0.6-0.9,0.9
			c-0.4-0.4-0.9-0.6-0.9-0.7l-0.2,0.4c0,0,0.4,0.2,0.8,0.5c-0.4,0.3-0.9,0.6-1.6,0.9l0.2,0.4C109.7,26.6,110.1,26.5,110.4,26.3"/>
		<path class="st2" d="M115.3,24l-0.3-0.3c0,0-0.3,0.3-0.7,0.7c-0.4-0.5-0.6-0.8-0.6-0.8l-0.4,0.2c0.1,0.1,1.3,2.1,3.4,2.8l0.2-0.5
			c-0.5-0.2-0.9-0.4-1.2-0.6l0.8-0.7l-0.3-0.4l-0.8,0.8c-0.2-0.2-0.4-0.3-0.5-0.5C115,24.3,115.3,24,115.3,24"/>
		<path class="st2" d="M112.5,31.2c0.8-0.2,1.3-0.5,1.8-0.8c0.4,0.3,1,0.5,1.7,0.8l0.1-0.5c-0.6-0.2-1.1-0.4-1.5-0.7
			c0.7-0.6,0.9-1.3,0.9-1.3c0-0.1,0-0.2,0-0.2c0-0.1-0.1-0.1-0.2-0.1h-2.2c-0.1,0-0.1,0-0.2,0.1c0,0.1-0.1,0.1-0.1,0.2
			c0,0,0.1,0.7,1,1.4c-0.4,0.3-0.9,0.5-1.5,0.6L112.5,31.2z M113.5,28.9h1.5c-0.1,0.2-0.3,0.6-0.7,0.9
			C113.9,29.5,113.6,29.1,113.5,28.9"/>
		<path class="st2" d="M112.8,27.8l0,0.2L112.8,27.8l0,0.5c0,0,0.9-0.1,0.9-1.6c0-0.1,0-0.1,0-0.2h0.9c0,0,0.1,0.1,0.1,0.1v0.9
			c0,0.3,0.2,0.6,0.5,0.6h0.4c0.1,0,0.4-0.1,0.5-0.3l0.2-0.4l-0.4-0.2l-0.2,0.4c0,0,0,0,0,0h-0.4c0,0-0.1,0-0.1-0.1v-0.9
			c0-0.3-0.3-0.6-0.6-0.6h-1c-0.1,0-0.2,0-0.3,0.1c-0.1,0.2-0.1,0.4-0.1,0.6C113.2,27.7,112.8,27.8,112.8,27.8"/>
		<path class="st2" d="M122.4,30.4v-1.8h1.1c0.2,0.5,1,2.1,3.1,2.7l0.1-0.5c-0.7-0.2-1.2-0.5-1.6-0.8c0.5-0.3,1-0.7,1-0.7l-0.3-0.4
			c0,0-0.5,0.5-1.1,0.8c-0.4-0.4-0.6-0.8-0.8-1.1h2.7v-0.5H125v-0.9h1.2v-0.5H125v-0.9h1c0.1,0,0.2-0.1,0.2-0.2v-1.3
			c0-0.2-0.2-0.4-0.4-0.4h-5.3c-0.1,0-0.1,0-0.2,0.1c0,0-0.1,0.1-0.1,0.2c0,0.1,0.2,5.2-0.9,6.7l0.4,0.3c0.4-0.6,0.7-1.5,0.8-2.6
			h1.3v1.9l-0.9,0.2l0.1,0.5l3-0.5l-0.1-0.5L122.4,30.4z M124.5,28.1h-1.8v-0.9h1.8V28.1z M124.5,26.8h-1.8v-0.9h1.8V26.8z
			 M125.8,24.4v1h-4.9c0-0.4,0-0.8,0-1H125.8z M120.8,25.9h1.5v0.9h-1.1v0.5h1.1v0.9h-1.6C120.8,27.4,120.8,26.6,120.8,25.9"/>
		<path class="st2" d="M132.9,24.9h0.5v-0.5h-1.7v-0.8h-0.5v0.8h-1.7v0.5h0.5c0.1,0.4,0.3,1.3,0.4,2h-1v0.5h4.1v-0.5h-1
			C132.6,26.2,132.8,25.3,132.9,24.9 M130.6,24.9h1.8c-0.1,0.4-0.3,1.3-0.4,2H131C130.9,26.2,130.7,25.4,130.6,24.9"/>
		<path class="st2" d="M132.8,28.1h-2.6c-0.1,0-0.2,0.1-0.2,0.2v2.8h0.5v-0.4h2.1v0.4h0.5v-2.8C133.1,28.2,133,28.1,132.8,28.1
			 M130.5,28.5h2.1v1.7h-2.1V28.5z"/>
		<path class="st2" d="M136.6,24.9c0.1-0.2,0.1-0.4-0.1-0.6c-0.1-0.2-0.3-0.3-0.5-0.3l-1.5,0c-0.2,0-0.4,0.2-0.4,0.4v6.9h0.5v-6.8
			l1.4,0c0.1,0,0.1,0,0.1,0.1c0,0,0,0.1,0,0.2l-0.7,2c0,0.1,0,0.1,0,0.2c0.5,0.7,1.1,1.9,0.8,2.5c-0.1,0.2-0.4,0.3-0.8,0.3h-0.2v0.5
			h0.2c0.6,0,1-0.2,1.3-0.6c0.5-0.9-0.5-2.4-0.8-2.9L136.6,24.9z"/>
	</g>
	<g class="st1">
		<path class="st3" d="M142.7,40.8c-8.3,0-8.5,12.6,0,12.6C151.2,53.3,151,40.8,142.7,40.8 M142.7,51.7c-6.1-0.1-6.1-9.1,0-9.3
			C148.8,42.5,148.8,51.6,142.7,51.7"/>
		<path class="st3" d="M142.7,53.8c-8.3,0-8.5,12.6,0,12.6C151.2,66.3,151,53.8,142.7,53.8 M142.7,64.7c-6.1-0.1-6.1-9.1,0-9.3
			C148.8,55.5,148.8,64.6,142.7,64.7"/>
	</g>
	<g>
		<g>
			<path class="st4" d="M34.8,24.8c-7.4,0-7.6,11.2,0,11.2C42.3,36,42.1,24.8,34.8,24.8 M34.8,34.6c-5.4-0.1-5.4-8.1,0-8.2
				C40.2,26.4,40.2,34.5,34.8,34.6"/>
			<path class="st4" d="M52.4,9.7c-0.4,0-0.8,0.3-0.8,0.8V16c-0.9-1.1-2.2-1.9-4.1-1.9c-3.7,0-5.6,2.8-5.6,5.6
				c0,2.8,1.9,5.6,5.6,5.6c1.9,0,3.2-0.8,4.1-1.9v0.9c0,0.4,0.3,0.8,0.8,0.8s0.8-0.3,0.8-0.8V10.5C53.2,10,52.9,9.7,52.4,9.7
				 M47.6,23.9c-2.7,0-4.1-2.1-4.1-4.1c0-2,1.4-4.1,4.1-4.1c2.7,0,4.1,2.1,4.1,4.1C51.7,21.8,50.3,23.8,47.6,23.9"/>
			<path class="st4" d="M67.5,1.3c-0.4,0-0.8,0.3-0.8,0.8V3c-0.9-1.1-2.2-1.9-4.1-1.9C59,1.2,57.1,4,57,6.8c0,2.8,1.9,5.6,5.6,5.6
				c1.8,0,3.2-0.8,4.1-1.9v0.9c0,0.4,0.3,0.8,0.8,0.8c0.4,0,0.8-0.3,0.8-0.8V2.1C68.2,1.7,67.9,1.3,67.5,1.3 M62.6,10.9
				c-2.7,0-4.1-2.1-4.1-4.1c0-2,1.4-4.1,4.1-4.1c2.7,0,4.1,2.1,4.1,4.1C66.7,8.8,65.3,10.8,62.6,10.9"/>
			<path class="st4" d="M17.7,25c-2.3,0-4,1.1-4.8,2.7C12,26.1,10.4,25,8,25c-1.7,0-3.2,0.7-4.1,2V26c0-0.4-0.3-0.8-0.8-0.8
				c-0.4,0-0.8,0.3-0.8,0.8v3.7v0.9v4.7c0,0.4,0.3,0.8,0.8,0.8C3.6,36,4,35.7,4,35.3c0-0.9-0.1-4.6,0.1-5.9c0-0.3,0.1-0.5,0.1-0.6
				c0.6-1.4,1.9-2.2,3.8-2.3c2.7,0,4.1,2.1,4.1,4.1v4.7c0,0.4,0.3,0.8,0.8,0.8c0.4,0,0.8-0.3,0.8-0.8v-4.7h0c0-2,1.4-4.1,4.1-4.1
				c1.8,0,2.9,0.8,3.5,2c0.3,0.7,0.5,1.6,0.5,2.6l0,1.1v3.1c0,0.4,0.3,0.8,0.8,0.8c0.4,0,0.8-0.3,0.8-0.8v-3.1v-1.6
				C23.3,27.3,21.1,25.1,17.7,25"/>
			<polygon class="st4" points="88.2,35.8 84.7,27.8 83.4,27.8 83.4,37.4 84.5,37.4 84.5,29.9 84.7,30.2 87.9,37.4 88.7,37.4 
				92.1,29.9 92.1,37.4 93.2,37.4 93.2,27.8 92,27.8 88.3,36 			"/>
			<path class="st4" d="M96.2,26.8c-0.5,0-0.8,0.3-0.8,0.8c0,0.5,0.3,0.8,0.8,0.8c0.4,0,0.8-0.4,0.8-0.8
				C97,27.2,96.6,26.8,96.2,26.8"/>
			<rect x="95.6" y="29.8" class="st4" width="1.2" height="7.6"/>
			<path class="st4" d="M96.2,26.8c-0.5,0-0.9,0.4-0.9,0.9c0,0.5,0.4,0.9,0.9,0.9c0.5,0,0.8-0.4,0.8-0.9
				C97,27.1,96.7,26.8,96.2,26.8 M96.2,28.4c-0.5,0-0.8-0.4-0.8-0.8c0-0.5,0.3-0.8,0.8-0.8c0.4,0,0.8,0.4,0.8,0.8
				C97,28.1,96.6,28.4,96.2,28.4"/>
			<path class="st4" d="M100.4,30.9l-0.1,0.2v-1.3h-1.2v7.6h1.2v-4.2c0-1.6,0.8-2.5,2.3-2.5c1.4,0,2.2,0.9,2.2,2.4v4.3h1.1v-4.5
				c0-2-1.2-3.3-3.1-3.3C101.8,29.7,100.9,30.1,100.4,30.9"/>
			<path class="st4" d="M108.8,26.8c-0.5,0-0.8,0.3-0.8,0.8c0,0.5,0.3,0.8,0.8,0.8c0.4,0,0.8-0.4,0.8-0.8
				C109.6,27.2,109.3,26.8,108.8,26.8"/>
			<rect x="108.2" y="29.8" class="st4" width="1.2" height="7.6"/>
			<path class="st4" d="M114.2,30.7c1,0,1.6,0.5,1.7,1.3h1.2c-0.1-1.4-1.2-2.3-2.9-2.3c-1.6,0-2.8,0.9-2.8,2.1c0,1.6,1.4,2,2.7,2.3
				c1,0.3,1.9,0.5,1.9,1.3c0,0.7-0.7,1.2-1.6,1.2c-1,0-1.8-0.5-1.9-1.3h-1.2c0.1,1.4,1.4,2.3,3.1,2.3c1.6,0,2.8-0.9,2.8-2.2
				c0-1.5-1.4-1.9-2.6-2.2c-1-0.3-2-0.5-2-1.4C112.7,31.1,113.3,30.7,114.2,30.7"/>
			<path class="st4" d="M120.7,27.9h-1.2v1.9h-1v0.9h1v4.6c0,1.4,0.6,2.1,2.1,2.1h1.1v-1h-0.9c-0.8,0-1.1-0.3-1.1-1.1v-4.6h2v-0.9
				h-2V27.9z"/>
			<path class="st4" d="M125.6,31.3v-1.4h-1.2v7.6h1.2v-4.1c0-1.6,0.7-2.4,2.2-2.4h0.3v-1.2c-1.1,0-1.9,0.5-2.4,1.4L125.6,31.3z"/>
			<polygon class="st4" points="132.6,36 130.2,29.8 128.9,29.8 132,37.4 132,37.4 130.5,41.1 131.7,41.1 136.3,29.8 135.1,29.8 
				132.6,36.2 			"/>
			<path class="st4" d="M145,29.7c-2.3,0-3.8,1.6-3.8,3.9c0,2.3,1.6,3.9,3.8,3.9c2.3,0,3.9-1.6,3.9-3.9
				C148.8,31.3,147.2,29.7,145,29.7 M144.9,36.6c-1.2,0-2.6-0.8-2.6-2.9c0-2.2,1.4-2.9,2.6-2.9c1.3,0,2.7,0.9,2.7,2.9
				C147.6,35.6,146.3,36.6,144.9,36.6"/>
			<path class="st4" d="M152.1,29.2c0-1.1,0.4-1.5,1.5-1.5v-0.9c-1.9,0-2.7,0.7-2.7,2.4v0.6h-1v0.9h1v6.7h1.2v-6.7h1.6v-0.9h-1.6
				V29.2z"/>
			<path class="st4" d="M162.3,27.7h-3v9.7h3c3.2,0,5.2-1.9,5.2-4.8C167.4,29.6,165.5,27.7,162.3,27.7 M162.3,36.5h-1.8v-7.9h1.8
				c2.5,0,4,1.4,4,4C166.2,35.1,164.8,36.5,162.3,36.5"/>
			<rect x="169.3" y="29.8" class="st4" width="1.2" height="7.6"/>
			<path class="st4" d="M169.9,26.8c-0.5,0-0.8,0.3-0.8,0.8c0,0.5,0.3,0.8,0.8,0.8c0.4,0,0.8-0.4,0.8-0.8
				C170.7,27.2,170.4,26.8,169.9,26.8"/>
			<path class="st4" d="M176,29.7c-2.1,0-3.6,1.6-3.6,3.9c0,2.3,1.5,4,3.6,4c1.4,0,2.4-0.8,2.8-1.6l0.1-0.2v1.9c0,1.6-1,2.6-2.5,2.6
				c-1.2,0-2.2-0.6-2.5-1.6h-1.2c0.3,1.6,1.7,2.6,3.7,2.6c2.2,0,3.6-1.4,3.6-3.6v-7.8h-1.2v1.6l-0.1-0.2
				C178.4,30.5,177.5,29.7,176,29.7 M178.9,33.6c0,1.7-1.1,2.9-2.7,2.9c-1.6,0-2.7-1.2-2.7-3c0-1.7,1.1-2.9,2.7-2.9
				C177.8,30.7,178.9,31.9,178.9,33.6"/>
			<path class="st4" d="M183.1,26.8c-0.5,0-0.8,0.3-0.8,0.8c0,0.5,0.3,0.8,0.8,0.8c0.4,0,0.8-0.4,0.8-0.8
				C183.9,27.2,183.5,26.8,183.1,26.8"/>
			<rect x="182.5" y="29.8" class="st4" width="1.2" height="7.6"/>
			<path class="st4" d="M187.5,27.9h-1.2v1.9h-1v0.9h1v4.6c0,1.4,0.6,2.1,2.1,2.1h1.1v-1h-0.9c-0.8,0-1.1-0.3-1.1-1.1v-4.6h2v-0.9
				h-2V27.9z"/>
			<path class="st4" d="M194.4,29.7c-2.1,0-3.6,1.6-3.6,3.9c0,2.3,1.5,4,3.6,4c1.2,0,2.3-0.6,2.8-1.5l0.1-0.2v1.6h1.2v-7.6h-1.2v1.6
				l-0.1-0.2C196.6,30.3,195.6,29.7,194.4,29.7 M197.3,33.6c0,1.7-1.1,2.9-2.7,2.9c-1.6,0-2.7-1.2-2.7-3c0-1.7,1.1-2.9,2.7-2.9
				C196.2,30.7,197.3,31.9,197.3,33.6"/>
			<rect x="200.8" y="27.1" class="st4" width="1.2" height="10.3"/>
			<path class="st4" d="M211.1,27.8l-3.5,9.7h1.2l0.8-2.2h4.4l0,0l0.8,2.1h1.2l-3.5-9.7H211.1z M210,34.3L210,34.3l1.9-5.2l1.9,5.2
				H210z"/>
			<path class="st4" d="M219.2,29.2c0-1.1,0.4-1.5,1.5-1.5v-0.9c-1.9,0-2.7,0.7-2.7,2.4v0.6h-1v0.9h1v6.7h1.2v-6.7h1.6v-0.9h-1.6
				V29.2z"/>
			<path class="st4" d="M223.9,29.2c0-1.1,0.4-1.5,1.5-1.5v-0.9c-1.9,0-2.7,0.7-2.7,2.4v0.6h-1v0.9h1v6.7h1.2v-6.7h1.6v-0.9h-1.6
				V29.2z"/>
			<path class="st4" d="M230.4,29.7c-2.1,0-3.6,1.6-3.6,3.9c0,2.3,1.5,4,3.6,4c1.2,0,2.3-0.6,2.8-1.5l0.1-0.2v1.6h1.2v-7.6h-1.2v1.6
				l-0.1-0.2C232.6,30.3,231.6,29.7,230.4,29.7 M233.3,33.6c0,1.7-1.1,2.9-2.7,2.9c-1.6,0-2.7-1.2-2.7-3c0-1.7,1.1-2.9,2.7-2.9
				C232.2,30.7,233.3,31.9,233.3,33.6"/>
			<path class="st4" d="M237.4,26.8c-0.5,0-0.8,0.3-0.8,0.8c0,0.5,0.3,0.8,0.8,0.8c0.4,0,0.8-0.4,0.8-0.8
				C238.2,27.2,237.9,26.8,237.4,26.8"/>
			<rect x="236.8" y="29.8" class="st4" width="1.2" height="7.6"/>
			<path class="st4" d="M241.5,31.3v-1.4h-1.2v7.6h1.2v-4.1c0-1.6,0.7-2.4,2.2-2.4h0.3v-1.2c-1.1,0-1.9,0.5-2.4,1.4L241.5,31.3z"/>
			<path class="st4" d="M248.6,33.2c-1-0.3-2-0.5-2-1.4c0-0.7,0.6-1.1,1.6-1.1c1,0,1.6,0.5,1.7,1.3h1.2c-0.1-1.4-1.2-2.3-2.9-2.3
				c-1.6,0-2.8,0.9-2.8,2.1c0,1.6,1.4,2,2.7,2.3c1,0.3,1.9,0.5,1.9,1.3c0,0.7-0.7,1.2-1.6,1.2c-1,0-1.8-0.5-1.9-1.3h-1.2
				c0.1,1.4,1.4,2.3,3.1,2.3c1.6,0,2.8-0.9,2.8-2.2C251.1,33.9,249.8,33.5,248.6,33.2"/>
		</g>
		<g>
			<path class="st4" d="M5.2,81.7l3.3,1c-0.8,2.5-2,4.5-3.7,6.2l-3.6-2.3C3,85.4,4.4,83.7,5.2,81.7z M5.3,68.7
				c-0.6,0.5-1.3,1.1-2.1,1.6l-2-3.2c3.1-1.5,5.4-3.4,6.9-5.5l3.5,1c-0.2,0.2-0.6,0.7-1.3,1.4h17.1v3.3h-2v3.6h2.1v3.3h-2.1v3.8h2.7
				v3.3H1.5v-3.3h3.8v-3.8H2.1v-3.3h3.2V68.7z M10.9,67.3H8.7v3.6h2.2V67.3z M10.9,77.9v-3.8H8.7v3.8H10.9z M13.2,82.2
				c0.8,2.1,1.3,4,1.5,5.8l-4.1,0.7c-0.2-2.1-0.5-4.1-1-6L13.2,82.2z M16.5,67.3h-2.2v3.6h2.2V67.3z M14.3,74.1v3.8h2.2v-3.8H14.3z
				 M19.1,82.1c1.1,2.1,1.8,4,2.1,5.6l-3.9,0.8c-0.3-2.1-0.8-4-1.5-5.9L19.1,82.1z M22.2,67.3h-2.4v3.6h2.4V67.3z M22.2,77.9v-3.8
				h-2.4v3.8H22.2z M25.2,81.8c1.3,1.4,2.4,3.3,3.4,5.5l-4,1.6c-0.9-2.4-1.8-4.5-2.9-6.1L25.2,81.8z"/>
			<path class="st4" d="M35.3,82.5V89h-3.5V62.8h9.3v3c-0.7,2.5-1.4,4.6-2.1,6.3c1.3,2.1,2,4.2,2,6.3c0,2.9-1.3,4.3-4,4.3
				C36.3,82.7,35.8,82.6,35.3,82.5z M37.6,77.8c0-1.6-0.7-3.4-2.1-5.6c1-2.6,1.7-4.6,2-6.1h-2.2V79c0.4,0.1,0.8,0.1,1.1,0.1
				C37.2,79.1,37.6,78.7,37.6,77.8z M51.4,83.2h7.1v3.1h-7.1V89h-3.8v-2.7H40v-3.1h7.6V82h-5.7v-9.7H57V82h-5.7V83.2z M44.3,68.2
				c-0.2-0.7-0.5-1.4-0.9-2.2h-1.6v-2.8h5.6c-0.2-0.3-0.5-0.8-1-1.3l3.9-0.5c0.5,0.6,0.9,1.2,1.1,1.7h6.2v2.8h-2
				c-0.3,0.8-0.5,1.5-0.9,2.2h3.7v2.9H40.6v-2.9H44.3z M53.4,74.8h-8V76h8V74.8z M45.5,79.5h8v-1.3h-8V79.5z M51.8,66.1h-4.7
				c0.3,0.6,0.6,1.3,0.9,2.2h2.9C51.3,67.3,51.6,66.6,51.8,66.1z"/>
			<path class="st4" d="M69.5,85h-4v2.3h-3v-9.9l-0.8,1.7l-1.1-4.2c0.8-1.2,1.5-2.8,2.1-4.5c0.6-1.8,0.9-3.2,0.9-4.2H61v-3.4h8.4
				v3.4h-2.6c-0.2,1.8-0.6,3.5-1.1,5.1h3.9v3.7c0.9-1.7,1.5-3,1.8-3.9l2.6,0.9l-0.3,0.8h4.3v2.8h-2.2v2.2h2.2v2.9h-2.3l-0.1,0.4
				c1,0.7,1.7,1.3,2.2,1.8l-1.8,2.7c-0.3-0.6-0.8-1.2-1.3-1.8c-0.7,2-1.9,3.7-3.6,5.1l-2.3-2.8c2-1.4,3.2-3.2,3.8-5.4H70v-2.9h2.6
				v-2.2h-0.3C72,76.3,71.6,77,71,77.7L69.5,76L69.5,85z M66.6,74.5h-1.1v7.3h1.1V74.5z M73.1,67.3c0,0.6,0.3,0.9,0.9,0.9h1.3
				c0.7,0,1.1-0.6,1.1-1.7c0-0.1,0-0.1,0-0.2l2.9,0.7c0,0,0,0,0,0.1c0,1.5-0.2,2.5-0.7,3.1c-0.4,0.6-1.3,0.9-2.6,0.9h-3.2
				c-1.9,0-2.9-1-2.9-3.1v-6.2h3.2v2.1c1.6-0.3,3-0.9,4.3-1.7l1.6,2.6c-1.7,1-3.7,1.7-5.9,2.1L73.1,67.3z M81.7,83.5v-9.4h-3.2V71
				h4.3c-1.1-1.1-2.2-2-3.3-2.9l1.8-2c0.5,0.3,1,0.6,1.6,1.2c0.4-0.4,0.8-1,1.3-1.7h-5v-3.1h8.4v2.9C86.8,67,86,68.2,85,69.1
				l0.9,0.8L85,71h3.1v2.9c-0.1,1.2-0.5,2.3-1,3.3L84.9,76c0.4-0.7,0.6-1.4,0.7-1.9h-0.8v3.6h2.5v3.2h-2.5v4.2
				c0.7,0.2,1.7,0.3,3.1,0.3c0.2,0,0.3,0,0.4,0l-0.6,3.3c-0.1,0-0.1,0-0.2,0c-3.8,0-6.3-1.2-7.6-3.6c0,1.1-0.6,2.4-1.8,3.9l-2.6-1.5
				c1.9-2.3,2.9-6.1,2.9-11.3c0-0.2,0-0.3,0-0.4L81,76c-0.1,2.7-0.2,4.6-0.3,5.7C80.7,82.2,81,82.8,81.7,83.5z"/>
			<path class="st4" d="M94.4,81.1c0,0.1,0,0.1,0,0.2c0,2.5-0.3,4.9-0.8,7.3l-3-0.9c0.7-2,1.2-4.2,1.3-6.8L94.4,81.1z M101.2,67.7
				c-1.5,3.5-3.5,6.4-5.8,8.9l2.3-0.3l-0.5-1.6l2.4-0.3c0.6,1.6,1.1,3.3,1.5,5.2L98.4,80l-0.1-1c-1.6,0.5-3.9,0.8-6.8,1.1l-0.8-3.4
				h1c1.5-1.5,2.7-3,3.4-4.5c-0.6,0.2-1.8,0.4-3.7,0.6l-0.6-3.3h0.6c1.5-1.8,2.7-4.4,3.6-7.9l3.5,1.3c-1.1,2.9-2.3,5-3.6,6.4
				l1.9-0.2c0.5-0.8,1-1.9,1.4-3.3l3.1,1.3v-5h16.3v22.9c0,2.4-1,3.6-3.1,3.6h-3l-0.6-3.4l2.1,0.1c0.7,0,1-0.4,1-1.1V65.4h-9.3V89
				h-3.5V67.7z M95,87.6c0.1-0.8,0.1-1.7,0.1-2.7c0-1.4-0.1-2.7-0.2-3.9l2.2-0.2c0.4,2.3,0.6,4.4,0.6,6.5L95,87.6z M98.5,86.7
				c0-1.9-0.3-3.9-0.8-6.1l2.1-0.3c0.5,1.5,1,3.4,1.3,5.8L98.5,86.7z M105.2,69.9h1.2c-0.2-1.2-0.6-2.3-1.1-3.3l2.9-0.4
				c0.4,1.2,0.7,2.4,1,3.7h0.5c0.4-0.9,0.7-2.1,1-3.8l2.8,0.5c-0.3,1.4-0.6,2.5-1,3.3h1v3h-8.3V69.9z M113.5,75.6v3h-4v1.6
				c0,0.9,0.4,1.3,1.1,1.3h2.7v2.9h-3.6c-1.4,0-2.3-0.2-2.7-0.7c-0.4-0.5-0.6-1.4-0.6-2.7v-2.4h-1.1v-3h3c-0.2-0.7-0.5-1.3-1.1-2.1
				l3.2-0.5c0.4,0.8,0.8,1.7,1.1,2.5L113.5,75.6z"/>
			<path class="st4" d="M135.9,61.6l3.5,0.5l-0.6,1.7h7.4v2.9c-0.7,2.1-1.8,4.1-3.5,5.9c1.3,1,3.1,1.7,5.4,2.3l-1.3,3.8l-1-0.5V89
				h-3.6v-1.5h-4.9V89h-3.7V78.5l-0.8,0.4l-0.8-2.2v2.2h-2.1V83l2.8-0.9v3.4c-3.8,1.2-7.6,2.3-11.4,3.1l-0.7-3.7l1.2-0.1V74.5h3.1
				v9.6l1.5-0.3V72.8H122V62.7h10.1V68C134,66.3,135.2,64.1,135.9,61.6z M128.6,65.8h-3.1v4h3.1V65.8z M132.2,69.3v3.6h-2.4v2.7h1.7
				l-0.2-0.5c2.4-0.7,4.4-1.6,6.1-2.7c-0.8-0.9-1.4-1.7-1.9-2.6c-0.6,0.9-1.1,1.6-1.5,2.1L132.2,69.3z M135.3,77.5h9
				c-1.5-0.7-3-1.7-4.4-2.8C138.6,75.8,137.1,76.7,135.3,77.5z M137.2,84.3h4.8v-3.7h-4.8V84.3z M137.3,66.9
				c0.6,1.2,1.6,2.4,2.7,3.6c1-1,1.8-2.2,2.4-3.6H137.3z"/>
			<path class="st4" d="M162.7,69.6c-0.8,2-2.2,3.6-4.2,4.9c-2,1.3-4.1,2.1-6.3,2.3l-1.7-3.7c1.8-0.1,3.6-0.6,5.4-1.5
				c1.8-0.9,2.9-2.1,3.4-3.4L162.7,69.6z M166.1,85h11.4v3.4h-27V85h11.4v-4h-8.6v-3.4h21.5v3.4h-8.6V85z M155.1,67.8v2.9h-3.9v-6.2
				H162c-0.2-0.6-0.7-1.4-1.3-2.6l4.4-0.3c0.7,1.3,1.1,2.3,1.3,2.9h10.5v6.2h-3.9v-2.9H155.1z M169.1,68.7V71c0,0.5,0.1,0.8,0.2,1
				c0.1,0.2,0.6,0.3,1.3,0.3h6.7v3.4h-8.1c-1.5,0-2.5-0.3-3.1-0.8c-0.6-0.5-0.9-1.6-0.9-3.2v-3H169.1z"/>
			<path class="st4" d="M192.7,73.7H185V89h-3.7V62.6h11.4V73.7z M189.3,65.5H185v1.4h4.4V65.5z M185,70.8h4.4v-1.5H185V70.8z
				 M200,84.9l1.4,0.1c0.7,0,1-0.3,1-1V73.7h-8V62.6h11.7v22.2c0,1.5-0.2,2.5-0.7,3c-0.5,0.5-1.3,0.7-2.4,0.7h-3.2l-0.3-1.8h-12.3
				V75.2H200V84.9z M196.6,78.2h-5.9v1.6h5.9V78.2z M196.6,82.2h-5.9v1.6h5.9V82.2z M197.8,66.9h4.7v-1.4h-4.7V66.9z M202.5,69.3
				h-4.7v1.5h4.7V69.3z"/>
			<path class="st4" d="M213.2,89l-3.3-2.7c1.1-2.1,1.7-5.4,1.7-9.8v-14h9.9v23.3c0,2-0.9,2.9-2.6,2.9H216l-0.7-3.7
				c0.8,0.1,1.5,0.1,1.9,0.1c0.5,0,0.7-0.3,0.7-0.8v-4.4H215C214.9,83.3,214.3,86.3,213.2,89z M217.9,69.2v-3.6h-2.9v3.6H217.9z
				 M217.9,76.6v-4.1h-2.9v4.1H217.9z M226.3,89h-3.6V62.6h13.7c0,4.5-0.3,7.1-0.8,7.7c-0.5,0.7-1.9,1-4,1c-0.7,0-1.3,0-1.9-0.1
				l-0.6-3.2c1,0.1,1.8,0.1,2.4,0.1c0.5,0,0.8-0.1,1-0.3c0.2-0.2,0.3-0.8,0.3-1.8c0-0.1,0-0.1,0-0.2h-6.2v6.4h10v3
				c-0.4,3.4-1.2,6.1-2.5,8.3c0,0.1,0.4,0.3,1.3,0.8c0.9,0.5,1.6,0.8,2.3,1l-1.8,3.6c-1.3-0.6-2.6-1.6-4-2.8c-1.1,1-2.4,1.9-3.9,2.6
				l-1.6-2.7V89z M229.5,83.6c-1.4-2.4-2.2-5-2.4-7.9h-0.8v9.6C227.7,84.9,228.7,84.4,229.5,83.6z M230.3,75.7
				c0.2,1.8,0.6,3.6,1.3,5.4c0.8-1.7,1.2-3.5,1.4-5.4H230.3z"/>
			<path class="st4" d="M253.1,73.5c1.2-0.3,2.5-0.8,4-1.6c-0.8-0.8-1.4-1.6-2-2.5c-0.5,0.6-1.1,1.3-1.7,1.8l-2.8-2.4
				c2.7-1.9,4.6-4.4,5.8-7.4l3.4,0.8c-0.3,0.7-0.6,1.3-0.8,1.8h7.9v3h-1.2c-0.9,2-1.9,3.6-3.2,4.8c1.4,0.8,3,1.2,4.9,1.4l-1.1,3.6
				c-2.4-0.5-4.6-1.4-6.6-2.7c-1.5,1.1-3.5,2.1-5.9,3l-1-2.2c0,1.4-0.3,2.8-0.9,4.5l-2.9-1.1c0.5-1.3,0.9-2.6,1.1-3.9h-1.4V85
				c0,1.4-0.2,2.4-0.7,2.9c-0.5,0.5-1.4,0.8-2.6,0.8h-2l-0.7-3.4l1.9,0.1c0.6,0,0.9-0.3,0.9-1v-5c-0.9,1.7-2.2,3.3-3.9,4.8l-1.7-3.1
				c2.5-1.8,4.3-4,5.4-6.8h-5v-3.2h6.1c-0.5-0.5-1.1-1.1-1.9-1.6c-0.8-0.6-1.6-1.2-2.3-1.7l2-1.7c0.8,0.5,1.6,1,2.4,1.6
				c1-0.9,1.6-1.6,1.9-2.2h-7.7v-3.2h11.6v2.7c-0.8,1.7-2,3.1-3.4,4.4l1.2,0.8l-0.9,0.7h4L253.1,73.5z M256.6,77.9
				c0.1-0.6,0.2-1.3,0.3-2.1l3.5,0.2c0,0.5-0.1,1.1-0.3,1.9h5.8c0,4.6-0.3,7.5-0.7,8.6c-0.3,0.6-0.6,1.1-1.1,1.4
				c-0.5,0.3-2.2,0.5-5,0.5l-0.7-3.5c1.1,0.1,2,0.1,2.5,0.1c0.7,0,1.1-0.4,1.2-1.1c0.2-0.7,0.2-1.7,0.3-2.9h-2.9
				c-0.5,2-1.5,3.7-3.1,5.1c-1.6,1.4-3.1,2.3-4.6,2.8l-2.2-3.3c3.4-1,5.5-2.6,6.2-4.7h-3.1v-3.1H256.6z M257.2,67.1
				c0.6,1.1,1.5,2.1,2.6,3.1c1.2-0.9,2-2,2.4-3.1H257.2z"/>
			<path class="st4" d="M273.3,81.1c0,0.1,0,0.1,0,0.2c0,2.5-0.3,4.9-0.8,7.3l-3-0.9c0.7-2,1.2-4.2,1.3-6.8L273.3,81.1z M280.1,67.7
				c-1.5,3.5-3.5,6.4-5.8,8.9l2.3-0.3l-0.5-1.6l2.4-0.3c0.6,1.6,1.1,3.3,1.5,5.2l-2.6,0.5l-0.1-1c-1.6,0.5-3.9,0.8-6.8,1.1l-0.8-3.4
				h1c1.5-1.5,2.7-3,3.4-4.5c-0.6,0.2-1.8,0.4-3.7,0.6l-0.6-3.3h0.6c1.5-1.8,2.7-4.4,3.6-7.9l3.5,1.3c-1.1,2.9-2.3,5-3.6,6.4
				l1.9-0.2c0.5-0.8,1-1.9,1.4-3.3l3.1,1.3v-5h16.3v22.9c0,2.4-1,3.6-3.1,3.6h-3l-0.6-3.4l2.1,0.1c0.7,0,1-0.4,1-1.1V65.4h-9.3V89
				h-3.5V67.7z M273.9,87.6c0.1-0.8,0.1-1.7,0.1-2.7c0-1.4-0.1-2.7-0.2-3.9l2.2-0.2c0.4,2.3,0.6,4.4,0.6,6.5L273.9,87.6z
				 M277.4,86.7c0-1.9-0.3-3.9-0.8-6.1l2.1-0.3c0.5,1.5,1,3.4,1.3,5.8L277.4,86.7z M284.1,69.9h1.2c-0.2-1.2-0.6-2.3-1.1-3.3
				l2.9-0.4c0.4,1.2,0.7,2.4,1,3.7h0.5c0.4-0.9,0.7-2.1,1-3.8l2.8,0.5c-0.3,1.4-0.6,2.5-1,3.3h1v3h-8.3V69.9z M292.4,75.6v3h-4v1.6
				c0,0.9,0.4,1.3,1.1,1.3h2.7v2.9h-3.6c-1.4,0-2.3-0.2-2.7-0.7c-0.4-0.5-0.6-1.4-0.6-2.7v-2.4h-1.1v-3h3c-0.2-0.7-0.5-1.3-1.1-2.1
				l3.2-0.5c0.4,0.8,0.8,1.7,1.1,2.5L292.4,75.6z"/>
		</g>
	</g>
</g>
<g id="ico">
</g>
</svg>
