<?xml version="1.0" encoding="UTF-8"?>
<svg id="_圖層_1" data-name=" 圖層 1" xmlns="http://www.w3.org/2000/svg" width="32" height="32" version="1.1" xmlns:xlink="http://www.w3.org/1999/xlink" viewBox="0 0 32 32">
  <defs>
    <style>
      .cls-1 {
        fill: none;
      }

      .cls-1, .cls-2, .cls-3, .cls-4 {
        stroke-width: 0px;
      }

      .cls-2 {
        fill: url(#_未命名漸層);
      }

      .cls-5 {
        clip-path: url(#clippath);
      }

      .cls-3 {
        fill: #fff;
      }

      .cls-4 {
        fill: url(#_未命名漸層_2);
      }
    </style>
    <clipPath id="clippath">
      <circle class="cls-1" cx="16.1" cy="16.1" r="16"/>
    </clipPath>
    <radialGradient id="_未命名漸層" data-name="未命名漸層" cx="-1678.8" cy="1142.3" fx="-1678.8" fy="1142.3" r="16" gradientTransform="translate(-2051.5 -3321.6) rotate(-90) scale(2 1.8)" gradientUnits="userSpaceOnUse">
      <stop offset="0" stop-color="#fd5"/>
      <stop offset="0" stop-color="#fd5"/>
      <stop offset=".5" stop-color="#ff543e"/>
      <stop offset="1" stop-color="#c837ab"/>
    </radialGradient>
    <radialGradient id="_未命名漸層_2" data-name="未命名漸層 2" cx="1023" cy="233.1" fx="1023" fy="233.1" r="16" gradientTransform="translate(660.9 -1067.8) rotate(78.7) scale(.9 3.7)" gradientUnits="userSpaceOnUse">
      <stop offset="0" stop-color="#3771c8"/>
      <stop offset="0" stop-color="#3771c8"/>
      <stop offset="1" stop-color="#60f" stop-opacity="0"/>
    </radialGradient>
  </defs>
  <g class="cls-5">
    <g>
      <path class="cls-2" d="M16.1,0H7c-1.4.1-2.2.3-3.1.8-.7.4-1.3.8-1.8,1.3C1,3.3.4,4.6.2,6.1c-.1.7-.1.9-.1,4.7v5.2c-.1,6.7-.1,8.6-.1,9,.1,1.3.3,2.2.8,3.1.8,1.8,2.5,3.1,4.4,3.6.7.2,1.4.2,2.3.3h16.9c1.1,0,1.7-.1,2.4-.3,1.9-.5,3.5-1.8,4.4-3.6.4-.9.7-1.8.7-3V7c-.1-1.3-.3-2.1-.8-3.1-.4-.7-.8-1.3-1.4-1.9-1.1-1-2.4-1.6-3.9-1.8-.7-.1-.9-.1-4.7-.1h-5.2.2,0Z"/>
      <path class="cls-4" d="M16.1,0H7c-1.4.1-2.2.3-3.1.8-.7.4-1.3.8-1.8,1.3C1,3.3.4,4.6.2,6.1c-.1.7-.1.9-.1,4.7v5.2c-.1,6.7-.1,8.6-.1,9,.1,1.3.3,2.2.8,3.1.8,1.8,2.5,3.1,4.4,3.6.7.2,1.4.2,2.3.3h16.9c1.1,0,1.7-.1,2.4-.3,1.9-.5,3.5-1.8,4.4-3.6.4-.9.7-1.8.7-3V7c-.1-1.3-.3-2.1-.8-3.1-.4-.7-.8-1.3-1.4-1.9-1.1-1-2.4-1.6-3.9-1.8-.7-.1-.9-.1-4.7-.1h-5.2.2,0Z"/>
      <path class="cls-3" d="M16.1,6.1h-4c-1,0-1.8.2-2.4.6-.7.2-1.2.7-1.8,1.1s-.8,1.1-1.1,1.8c-.2.7-.4,1.3-.6,2.4v8.2c0,1,.2,1.8.6,2.4.2.7.7,1.2,1.1,1.8s1.1.8,1.8,1.1c.7.2,1.3.4,2.4.6h8.2c1,0,1.8-.2,2.4-.6.7-.2,1.2-.7,1.8-1.1s.8-1.1,1.1-1.8c.2-.7.4-1.3.6-2.4v-8.2c0-1-.2-1.8-.6-2.4-.2-.7-.7-1.2-1.1-1.8s-1.1-.8-1.8-1.1c-.7-.2-1.3-.4-2.4-.6h-4.1ZM15.2,7.9h4.9c1,0,1.5.2,1.9.3.6.2.8.4,1.1.8.4.4.6.8.8,1.1,0,.4.3.8.3,1.9v8.2c0,1-.2,1.5-.3,1.9-.2.6-.4.8-.8,1.1s-.8.6-1.1.8c-.4,0-.8.3-1.9.3h-8.2c-1,0-1.5-.2-1.9-.3-.6-.2-.8-.4-1.1-.8-.4-.4-.6-.8-.8-1.1,0-.4-.3-.8-.3-1.9v-8.2c0-1,.2-1.5.3-1.9.2-.6.4-.8.8-1.1.4-.3.8-.6,1.1-.8.4,0,.8-.3,1.9-.3h3.3ZM21.5,9.5c-.7,0-1.2.6-1.2,1.2s.6,1.2,1.2,1.2,1.2-.6,1.2-1.2-.6-1.2-1.2-1.2h0ZM16.1,10.9c-2.8,0-5.1,2.3-5.1,5.1s2.3,5.1,5.1,5.1,5.1-2.3,5.1-5.1-2.3-5.1-5.1-5.1h0ZM16.1,12.7c1.9,0,3.4,1.5,3.4,3.4s-1.5,3.4-3.4,3.4-3.4-1.5-3.4-3.4,1.5-3.4,3.4-3.4Z"/>
    </g>
  </g>
</svg>