<?xml version="1.0" encoding="utf-8"?>
<!-- Generator: $$$/GeneralStr/196=Adobe Illustrator 27.6.0, SVG Export Plug-In . SVG Version: 6.00 Build 0)  -->
<svg version="1.1" id="圖層_1" xmlns="http://www.w3.org/2000/svg" xmlns:xlink="http://www.w3.org/1999/xlink" x="0px" y="0px"
	 width="246px" height="60px" viewBox="0 0 246 60" style="enable-background:new 0 0 246 60;" xml:space="preserve">
<style type="text/css">
	.st0{fill:#2878B9;}
	.st1{fill:#9EC317;}
	.st2{fill:#FFFFFF;}
</style>
<g>
	<path d="M87.2,53.6h-1.5v-10l-3.3,10H81l-3.3-10v10h-1.5V41.8h2.3l3.2,9.8l3.2-9.8h2.3L87.2,53.6L87.2,53.6z"/>
	<path d="M91.1,43.4h-1.5v-1.6h1.5V43.4z M91.1,53.6h-1.5v-8.5h1.5V53.6z"/>
	<path d="M94.8,46.1c0.8-0.8,1.6-1.3,2.5-1.3c1.9,0,2.9,1,2.9,3.1v5.6h-1.5V48c0-0.7-0.1-1.2-0.4-1.5S97.6,46,97.1,46
		c-0.8,0-1.5,0.5-2.3,1.4v6.1h-1.5V45h1.5V46.1z"/>
	<path d="M104,43.4h-1.5v-1.6h1.5V43.4z M104,53.6h-1.5v-8.5h1.5V53.6z"/>
	<path d="M109.2,53.8c-2.3,0-3.5-0.9-3.6-2.7h1.5c0,1,0.7,1.6,2.1,1.6c0.6,0,1.1-0.1,1.4-0.4c0.3-0.3,0.5-0.6,0.5-1
		s-0.2-0.7-0.5-0.8c-0.3-0.2-1-0.4-2-0.6c-1-0.3-1.7-0.5-2.2-0.8s-0.7-0.8-0.7-1.6c0-0.7,0.3-1.3,0.9-1.7c0.6-0.5,1.3-0.7,2.3-0.7
		c2.2,0,3.4,0.8,3.4,2.4h-1.5c-0.1-0.8-0.7-1.2-1.8-1.2c-0.5,0-0.9,0.1-1.3,0.3c-0.3,0.2-0.5,0.5-0.5,0.8s0.1,0.6,0.4,0.7
		c0.3,0.1,0.9,0.3,1.9,0.6c1,0.2,1.8,0.5,2.3,0.9c0.5,0.3,0.8,0.9,0.8,1.7s-0.3,1.4-0.9,1.9C111.1,53.5,110.2,53.8,109.2,53.8
		L109.2,53.8z"/>
	<path d="M117.7,53.6c-0.3,0.1-0.7,0.1-1.1,0.1c-0.6,0-1.1-0.1-1.4-0.3s-0.5-0.5-0.5-0.8c-0.1-0.3-0.1-0.8-0.1-1.4v-4.8h-1.1v-1.2
		h1.1V43h1.5v2.1h1.4v1.2h-1.4v4.9c0,0.6,0.1,1,0.2,1.1c0.1,0.2,0.3,0.2,0.6,0.2c0.3,0,0.5,0,0.8-0.1V53.6L117.7,53.6z"/>
	<path d="M123.4,46.4c-0.2-0.1-0.5-0.1-0.9-0.1c-0.8,0-1.4,0.4-2,1.2v6H119V45h1.5v1.2c0.6-0.9,1.4-1.4,2.2-1.4c0.2,0,0.4,0,0.7,0.1
		C123.4,44.9,123.4,46.4,123.4,46.4z"/>
	<path d="M124.9,55.6c0.7,0,1.4-0.7,1.8-2l-3.2-8.5h1.6l2.2,6.6l2.2-6.6h1.6l-3.2,8.5c-0.3,0.8-0.6,1.4-0.8,1.9
		c-0.2,0.4-0.5,0.8-0.8,1.1s-0.8,0.5-1.3,0.5c-0.4,0-0.7,0-1-0.1v-1.4C124.4,55.6,124.6,55.6,124.9,55.6L124.9,55.6z"/>
	<path d="M140.4,44.9c1.2,0,2.2,0.4,2.9,1.2s1.1,1.9,1.1,3.3c0,1.4-0.4,2.5-1.1,3.3c-0.7,0.8-1.7,1.2-2.9,1.2s-2.2-0.4-2.9-1.2
		s-1.1-1.9-1.1-3.3c0-1.4,0.4-2.5,1.1-3.3C138.2,45.3,139.2,44.9,140.4,44.9z M140.4,52.6c0.7,0,1.3-0.3,1.8-0.8
		c0.5-0.6,0.7-1.4,0.7-2.4s-0.2-1.9-0.7-2.4s-1-0.8-1.8-0.8s-1.3,0.3-1.8,0.8c-0.5,0.6-0.7,1.4-0.7,2.4s0.2,1.9,0.7,2.4
		C139.1,52.3,139.7,52.6,140.4,52.6z"/>
	<path d="M147.8,46.2v7.3h-1.5v-7.3h-1.2V45h1.2v-0.8c0-1.8,0.8-2.7,2.4-2.7c0.5,0,0.9,0,1.1,0.1V43c-0.3-0.1-0.6-0.1-0.9-0.1
		c-0.4,0-0.6,0.1-0.8,0.3s-0.3,0.6-0.3,1.1V45h1.6v1.2H147.8L147.8,46.2z"/>
	<path d="M163.9,53.6h-8.8V41.8h8.5v1.4h-6.9v3.6h6.5v1.4h-6.5v4h7.2V53.6L163.9,53.6z"/>
	<path d="M167.4,46.1c0.8-0.8,1.6-1.3,2.5-1.3c1.9,0,2.9,1,2.9,3.1v5.6h-1.5V48c0-0.7-0.1-1.2-0.4-1.5c-0.3-0.3-0.7-0.5-1.2-0.5
		c-0.8,0-1.5,0.5-2.3,1.4v6.1h-1.5V45h1.5V46.1z"/>
	<path d="M181.9,45.1l-3.2,8.5h-1.3l-3.2-8.5h1.6l2.2,6.6l2.2-6.6H181.9L181.9,45.1z"/>
	<path d="M184.8,43.4h-1.5v-1.6h1.5V43.4z M184.8,53.6h-1.5v-8.5h1.5V53.6z"/>
	<path d="M191.4,46.4c-0.2-0.1-0.5-0.1-0.9-0.1c-0.8,0-1.4,0.4-2,1.2v6H187V45h1.5v1.2c0.6-0.9,1.4-1.4,2.2-1.4c0.2,0,0.4,0,0.7,0.1
		V46.4z"/>
	<path d="M195.9,44.9c1.2,0,2.2,0.4,2.9,1.2s1.1,1.9,1.1,3.3c0,1.4-0.4,2.5-1.1,3.3c-0.7,0.8-1.7,1.2-2.9,1.2s-2.2-0.4-2.9-1.2
		s-1.1-1.9-1.1-3.3c0-1.4,0.4-2.5,1.1-3.3C193.7,45.3,194.7,44.9,195.9,44.9z M195.9,52.6c0.7,0,1.3-0.3,1.8-0.8
		c0.5-0.6,0.7-1.4,0.7-2.4s-0.2-1.9-0.7-2.4s-1-0.8-1.8-0.8s-1.3,0.3-1.8,0.8c-0.5,0.6-0.7,1.4-0.7,2.4s0.2,1.9,0.7,2.4
		C194.6,52.3,195.2,52.6,195.9,52.6z"/>
	<path d="M203.1,46.1c0.8-0.8,1.6-1.3,2.5-1.3c1.9,0,2.9,1,2.9,3.1v5.6H207V48c0-0.7-0.1-1.2-0.4-1.5c-0.3-0.3-0.7-0.5-1.2-0.5
		c-0.8,0-1.5,0.5-2.3,1.4v6.1h-1.5V45h1.5V46.1z"/>
	<path d="M222.2,53.6h-1.5v-5.5c0-0.7-0.1-1.2-0.3-1.5s-0.5-0.4-1-0.4c-0.7,0-1.4,0.5-2.2,1.4v6.1h-1.5v-5.5c0-0.7-0.1-1.2-0.3-1.5
		s-0.5-0.4-1-0.4c-0.7,0-1.4,0.5-2.1,1.4v6.1h-1.5v-8.5h1.5v1.1c0.7-0.8,1.5-1.3,2.4-1.3c1.2,0,2,0.5,2.4,1.5c0.6-0.7,1-1.1,1.4-1.3
		s0.8-0.3,1.2-0.3c1.7,0,2.6,1,2.6,3.1L222.2,53.6L222.2,53.6z"/>
	<path d="M228,53.8c-1.2,0-2.2-0.4-3-1.2s-1.1-1.9-1.1-3.3c0-1.4,0.4-2.5,1.1-3.3c0.7-0.8,1.7-1.2,2.9-1.2s2.2,0.4,2.9,1.2
		s1.1,1.9,1.1,3.3v0.4h-6.4c0.1,1,0.3,1.7,0.8,2.2s1.1,0.7,1.8,0.7c0.5,0,1-0.1,1.4-0.4c0.4-0.3,0.6-0.7,0.7-1.1h1.6
		c-0.1,0.9-0.5,1.6-1.2,2C229.7,53.5,228.9,53.7,228,53.8L228,53.8z M230.2,48.5c-0.1-0.8-0.4-1.4-0.8-1.8c-0.4-0.4-0.9-0.6-1.6-0.6
		c-0.6,0-1.1,0.2-1.6,0.6s-0.7,1-0.8,1.8H230.2z"/>
	<path d="M235,46.1c0.8-0.8,1.6-1.3,2.5-1.3c1.9,0,2.9,1,2.9,3.1v5.6h-1.5V48c0-0.7-0.1-1.2-0.4-1.5c-0.3-0.3-0.7-0.5-1.2-0.5
		c-0.8,0-1.5,0.5-2.3,1.4v6.1h-1.5V45h1.5V46.1z"/>
	<path d="M245.9,53.6c-0.3,0.1-0.7,0.1-1.1,0.1c-0.6,0-1.1-0.1-1.4-0.3c-0.3-0.2-0.5-0.5-0.5-0.8c-0.1-0.3-0.1-0.8-0.1-1.4v-4.8
		h-1.1v-1.2h1.1V43h1.5v2.1h1.4v1.2h-1.4v4.9c0,0.6,0.1,1,0.2,1.1c0.1,0.2,0.3,0.2,0.6,0.2s0.5,0,0.8-0.1V53.6L245.9,53.6z"/>
	<path d="M84.4,11v0.4c0,0.1,0,0.5,0,1.1s0,1.7-0.1,3.4c0.2,0,0.5-0.1,0.9-0.1c0.2,0,0.4,0,0.6-0.1c0.4,0,0.7-0.1,0.8-0.1
		c0.5-0.1,0.8-0.1,1-0.1c0.8,0,1.2,0.3,1.2,0.8c0,0.7-0.4,1.1-1.1,1.1c-0.1,0-0.2,0-0.4,0c-0.7,0.1-1.7,0.2-2.9,0.4v5.4
		c1.2-0.1,2.3-0.3,3.2-0.5c0.4-0.1,0.8-0.1,1.2-0.1c0.7,0,1.1,0.2,1.1,0.5c0,0.8-0.8,1.4-2.3,1.9c-2.4,0.7-4.5,1.1-6.1,1.3
		c-1,0.1-1.8,0.3-2.5,0.5c-0.6,0.4-1.1,0.7-1.3,0.7c0,0-0.1,0-0.2,0c-0.7,0-1.1-0.5-1.1-1.4c0-0.1,0-0.3,0-0.5
		c0.7-1.1,1.7-1.7,3-1.7c0.5,0,1.5-0.1,2.9-0.2c0-0.1,0-0.2,0-0.3c0,0,0-0.2,0-0.4v-0.9c0-0.7,0-1.6,0-2.7v-0.8v-0.5L81.6,18
		c-0.5,0.1-1.1,0.2-1.6,0.3c-0.3,0-0.6,0.1-0.7,0.1c-0.5,0.3-0.8,0.4-1.2,0.4c-0.1,0-0.2,0.1-0.3,0.1c-0.2,0-0.5-0.1-0.8-0.3
		c-0.1-0.3-0.2-0.6-0.2-0.9c0-0.4,0.2-0.8,0.6-1.1c0.6-0.2,1.1-0.3,1.6-0.4c0,0,0.2,0,0.6-0.1c0.5-0.1,1.2-0.1,2.3-0.1
		c0-0.8,0-1.5-0.1-2.1c0-0.4,0-0.8,0-1.1c0-0.4,0-0.9-0.1-1.4c-0.9,0.1-1.7,0.2-2.3,0.4c-0.5,0.2-0.9,0.3-1.2,0.3
		c-0.1,0-0.2,0-0.3,0c-0.2,0-0.5-0.1-0.9-0.4c-0.2-0.3-0.2-0.6-0.2-0.9c0-0.4,0.2-0.8,0.6-1.1c0.7-0.2,1.2-0.3,1.8-0.4
		c0.2,0,0.7-0.1,1.6-0.2c0.4,0,1.1-0.1,1.8-0.1c1.2-0.1,2-0.2,2.3-0.2c1.2-0.1,2.1-0.2,2.7-0.2c0.9,0,1.3,0.3,1.3,1
		s-0.4,1.1-1.2,1.1c-0.1,0-0.3,0-0.5,0C86.6,10.7,85.6,10.9,84.4,11L84.4,11z M105.8,22.1c-0.3,0-0.8-0.1-1.2-0.2h-3.7
		c-0.5,0.1-0.9,0.2-1.3,0.2c0.1,0.3,0.2,0.6,0.2,0.9c0,0.2-0.3,0.5-0.8,1l-0.2,0.2l-0.2,0.2c0.2,0.3,0.2,0.5,0.2,0.7
		c0,0.3-0.1,0.8-0.2,1.4c0,0.1-0.1,0.3-0.1,0.6c0,0.2-0.1,0.6-0.3,1.1c-0.1,0.3-0.1,0.6-0.1,0.8c0,0.1,0,0.2,0,0.2
		c0,0.3,0.2,0.5,0.5,0.5c1,0,2.5-0.2,4.4-0.6c0.5-0.1,0.8-0.2,0.9-0.2c0.3,0,0.4,0.1,0.4,0.4c0,0.4-0.2,0.8-0.6,1.2
		c-0.4,0.4-0.8,0.6-1.2,0.6c-0.6,0-2.3,0.2-5.1,0.6c-0.3,0.1-0.6,0.3-0.9,0.4c-0.3,0.2-0.7,0.3-1.1,0.3c-1,0-1.7-0.5-2-1.4v-0.1
		c0-0.2,0.1-0.4,0.4-0.6c0.1,0,0.4-0.2,0.8-0.4h0.1c0.5-0.2,0.9-0.7,1.2-1.7c0.2-0.6,0.4-1.2,0.4-1.6v-0.2c-1,0.7-2.3,1.3-3.9,1.9
		c-1.6,0.7-2.8,1-3.6,1c-1.4,0-2.1-0.5-2.1-1.4c0-0.2,0-0.5,0.1-0.8c0.3-0.5,0.7-0.9,1.2-1.3s0.9-0.5,1.2-0.6
		c0.6,0.4,1.2,0.6,1.8,0.6c0.5,0,1.4-0.2,2.7-0.7c1.3-0.5,2.4-1,3.3-1.5c0.3-0.3,0.6-0.6,0.9-0.8h-0.2c-0.3,0.2-0.6,0.3-0.7,0.4
		c-0.2,0-0.3,0.1-0.5,0.2s-0.3,0.1-0.5,0.1c-0.6,0-0.9-0.3-1.1-0.9c0-0.1,0-0.2,0-0.4c0-0.1,0.1-0.3,0.1-0.5c0-0.1,0-0.3,0.1-0.5
		c0-0.1,0-0.3,0-0.5c0-1.2-0.2-2-0.7-2.4c-0.2-0.2-0.3-0.4-0.4-0.7c0-0.5,0.3-1,0.7-1.3c0.2,0,0.4-0.1,0.6-0.1s0.4,0,0.7,0.1h2
		c0.3,0,0.6,0,1.1,0c0.6-0.1,1.2-0.1,1.8-0.1h0.4c1.7,0,2.8-0.1,3.2-0.2h1c0.1,0,0.3-0.1,0.5-0.2l0.3-0.1c0.4-0.1,0.6-0.2,0.7-0.2
		c0.5,0,1.1,0.3,1.8,0.9c0.3,0.3,0.4,0.6,0.4,0.9c0,0.5-0.3,1-0.8,1.6c-0.3,0.7-0.4,1.4-0.5,2.1c-0.1,0.9-0.5,1.4-1.4,1.4
		c0.1,0.1,0.3,0.2,0.5,0.2c0.5,0.3,0.7,0.7,0.7,1.2c0,0.7-0.2,1.2-0.7,1.6c0,0,0.1,0.1,0.3,0.2l0.1,0.1c0.1,0.1,0.3,0.2,0.5,0.3
		c0.6,0.2,1.2,0.6,2,1.1c1.3,0.9,3,1.3,4.9,1.3c1.2,0,2.1,0,2.6-0.1c0.2,0,0.3,0,0.3,0c0.5,0,0.7,0.1,0.7,0.4v0.1c0,0.1,0,0.1,0,0.1
		c0,0.3-0.4,0.8-1.2,1.6c-1.3,1.2-2.5,1.8-3.6,1.9c-0.1,0-0.2,0-0.3,0c-0.5,0-1-0.2-1.5-0.6c-0.6-0.5-1-0.9-1.4-1.2
		c-0.7-0.7-1.8-1.5-3.3-2.4c-1-0.6-1.7-1-2.3-1.2c-0.1,0.1-0.2,0.2-0.3,0.2l0,0l0,0l0,0c-1,0.2-1.8,0.4-2.4,0.4s-0.9-0.2-0.9-0.6
		c0-0.2,0.3-0.5,1-0.7c0.6-0.2,1.3-0.6,2-1.4c0.4-0.4,0.7-1,0.8-1.6c0.1-0.1,0.2-0.3,0.5-0.6C105.5,22.2,105.7,22.2,105.8,22.1
		L105.8,22.1z M109.9,12.3c1.9,0,2.9,0.4,2.9,1.2c0,0.4-0.2,0.7-0.7,0.7c-0.2,0-0.7,0.1-1.6,0.1h-2c-0.7,0-1.6,0-2.7,0.1
		c-0.4,0-1,0.1-1.8,0.1c-0.6,0-1.1,0.1-1.5,0.1c-0.8,0-1.3,0.1-1.6,0.1c-2.7,0.1-5.7,0.4-9.1,0.8c-0.1,0-0.2,0-0.3,0
		c-0.7,0-1.1-0.5-1.2-1.4c0.2-0.5,0.5-0.8,1.1-1.1c0.7-0.1,1.4-0.2,2.2-0.2h0.2c0,0,0.2,0,0.6,0h0.4c1.4,0,3-0.1,4.8-0.3
		C101.1,12.4,104.6,12.3,109.9,12.3L109.9,12.3z M106.7,10.4c-1.7,0-3.5,0.1-5.6,0.3c-0.5,0-0.9,0.1-1.2,0.1c-0.6,0-1,0.1-1.1,0.1
		C98.2,11,97.6,11,97.1,11c-0.7,0-1.3,0.1-1.9,0.3c-0.2,0-0.4,0.1-0.6,0.2c-0.3,0.1-0.5,0.1-0.6,0.2c-0.2,0.1-0.6,0.2-1,0.3
		c-0.2,0.1-0.4,0.1-0.5,0.1c-0.2,0-0.4,0-0.6-0.1c-0.3-0.2-0.5-0.5-0.6-0.9c0-0.3,0.1-0.5,0.1-0.7c0-0.1,0-0.2,0.1-0.4
		s0.1-0.5,0.1-0.8c0-1.2-0.3-2-0.8-2.4c-0.2-0.2-0.4-0.5-0.4-0.7c0-0.3,0.2-0.7,0.4-1c0.3-0.4,0.8-0.6,1.3-0.6c0.1,0,0.3,0,0.5,0.1
		h2.8c0.2,0,0.5,0,0.9,0c1-0.1,2.7-0.1,5.3-0.1c3.5,0,5.6-0.1,6.4-0.2h1h0.1c0.7-0.2,1.2-0.3,1.4-0.3c0.6,0,1.2,0.3,1.7,1
		c0.3,0.3,0.4,0.7,0.4,1c0,0.5-0.3,1-0.8,1.7c-0.3,0.6-0.4,1.3-0.5,2.1c-0.1,1-0.6,1.4-1.6,1.4c-0.3,0-0.8-0.1-1.6-0.2
		C107.7,10.6,107.2,10.5,106.7,10.4L106.7,10.4z M98.3,9c-0.2-0.6-0.4-1.3-0.5-2.3c0-0.2,0.1-0.4,0.2-0.6c-1.3,0.1-2.5,0.2-3.5,0.2
		c-0.4,0.1-0.6,0.5-0.7,1c0,0.2,0.1,0.4,0.1,0.5C94,8,94,8.2,94.1,8.5c0,0.2,0.1,0.4,0.1,0.5s0.1,0.2,0.3,0.4c0.3,0,0.7-0.1,1.3-0.2
		C96.5,9.2,97.3,9.1,98.3,9L98.3,9z M104.7,20.1c0.4,0,0.7-0.3,0.8-0.7c0.2-0.7,0.3-1.2,0.3-1.3c0-0.3-0.3-0.6-0.9-0.7h-2.6
		c-1.1,0-2.7,0.1-4.9,0.4c-0.4,0.1-0.6,0.4-0.6,0.7c0,0.4,0.1,1,0.2,1.8c0,0.1,0.1,0.2,0.3,0.4c0.3,0,0.6,0,1-0.1
		c0.2,0,0.3-0.1,0.5-0.1c0.1,0,0.3,0,0.6-0.1c1.4-0.2,2.5-0.3,3.4-0.3L104.7,20.1L104.7,20.1z M103.2,8.7V8c0-0.8-0.1-1.5-0.3-2.1
		H102c-0.6,0-1.1,0.1-1.6,0.2l0,0c0,0,0,0.1,0,0.2s-0.1,0.2-0.3,0.4C100,7.2,99.9,8,99.9,8.9c0.6,0,1,0,1.3,0s0.5-0.1,0.5-0.1
		c0.3,0,0.5,0,0.6,0c0.1-0.1,0.2-0.1,0.2-0.1c0.1,0,0.2,0,0.3,0L103.2,8.7L103.2,8.7z M105.6,5.9c-0.1,0.2-0.2,0.5-0.2,1
		c-0.1,0.6-0.2,1.2-0.3,1.8h2.3c0.7,0,1,0,1.2-0.1c0.1,0,0.2-0.2,0.3-0.4c0.3-0.7,0.4-1.2,0.4-1.6S109,6,108.5,5.9H105.6L105.6,5.9z
		"/>
	<path d="M130,12.1v-0.3c0-0.5,0-1,0-1.6c0-1-0.1-1.7-0.3-2.1c-0.1-0.2-0.1-0.4-0.1-0.6c0-0.6,0.5-1,1.4-1.2
		c1.4,0.1,2.1,0.6,2.1,1.5c0,0.1,0,0.2-0.1,0.5c-0.2,1.1-0.3,2-0.3,2.9c0,0.1,0,0.4,0,0.9c0.8-0.1,1.4-0.2,2-0.2
		c0.7,0,1.3,0.1,1.9,0.2c0.4,0.2,0.7,0.6,0.8,1.2c-0.1,0.4-0.3,0.6-0.7,0.7c-0.3,0.1-0.9,0.1-1.8,0.1h-2.3v0.7c0,2-0.1,3.8-0.1,5.2
		c1.3-0.1,2.5-0.3,3.5-0.7c0.5-0.2,1.1-0.3,1.6-0.3s0.7,0.1,0.7,0.4c0,0,0,0,0,0.1c0,0.6-0.4,1-1.3,1.4c-1.8,0.7-4.3,1.4-7.6,2
		c-1,0.2-1.9,0.4-2.7,0.7c-0.7,0.5-1.1,0.7-1.4,0.7h-0.1c-0.1,0-0.2,0-0.3,0c-0.6,0-0.8-0.4-0.8-1.2c0-0.1,0-0.3,0-0.5
		c0.6-1.1,1.5-1.7,2.7-1.9c0.2,0,0.5,0,0.6,0c0.7,0,1.5-0.2,2.6-0.5c0,0,0-0.1,0-0.2s0-0.1,0-0.1v-0.7c0-0.5,0-1.2,0-2.2
		c0-0.8,0-1.8,0-2.8c-1.1,0.1-2.1,0.2-3,0.4c-0.2,0.1-0.3,0.1-0.4,0.1s-0.2,0-0.4-0.1c-0.8,0-1.3-0.3-1.4-0.7
		c0.1-0.5,0.5-0.9,0.9-1.3c1.2-0.2,2-0.4,2.6-0.4C128.8,12.3,129.4,12.2,130,12.1L130,12.1z M148.2,22.7c-0.2,1.1-0.8,2-1.6,2.8
		c-1.3,1.6-3.1,3-5.3,4.3c-0.9,0.6-1.8,1-2.6,1.3c-0.6,0.2-1,0.3-1.2,0.3c-1.1,0-1.8-0.8-2.2-2.4c0-0.6,0.1-1,0.4-1.2
		c0.2-0.2,0.5-0.3,1-0.3c0.3,0,0.8,0.1,1.4,0.2c0.2,0,0.5,0.1,0.8,0.1c1.8,0,3.4-0.7,5-2.2c1-1,1.7-1.8,2.1-2.6
		c-0.9,0.2-1.5,0.3-1.8,0.4c0,0-0.2,0.1-0.4,0.1l-0.2,0.1c-0.3,0.1-0.6,0.2-0.7,0.2c-0.1,0-0.2,0-0.4-0.1c-0.4,0-0.7-0.2-0.9-0.4
		c-0.4-0.5-0.7-0.9-0.7-1.2c0-0.2,0.1-0.5,0.3-0.6c0.2-0.2,0.4-0.4,0.6-0.6c0.5-0.5,0.8-1.4,0.9-2.7c0-0.3,0-0.5,0-0.5
		c0-0.8-0.1-1.3-0.4-1.6c-0.2-0.2-0.4-0.6-0.5-1c0.1-0.8,0.7-1.2,1.8-1.2c0.2,0,0.4,0.1,0.7,0.2c0.1,0,0.1,0,0.2,0.1
		c0.4,0.1,0.8,0.2,1.2,0.3c0.8,0,1.8-0.1,2.9-0.2c1.8-0.1,3-0.2,3.4-0.2h1.7c1.4,0,2.5-0.2,3.1-0.6c0.2-0.1,0.4-0.2,0.6-0.2
		c0.1,0,0.2,0,0.3,0.1c0.5,0.1,0.9,0.4,1.3,0.9c0,0.2,0,0.3,0,0.3c0,0.2-0.1,0.5-0.4,0.8c-0.5,0.6-0.7,1.9-0.7,3.7
		c0,0.4,0.1,0.9,0.2,1.4c0,0.6-0.2,1.1-0.6,1.5c-0.4,0.4-0.8,0.6-1.4,0.6c-0.7,0-1.2-0.1-1.7-0.3h-1.2c-0.5,2.1-0.7,3.6-0.7,4.5
		c0,0.4,0.2,0.7,0.7,0.7c0.5,0.1,1.1,0.2,1.9,0.3c0.5,0,1.1,0.1,1.8,0.2s1.5,0.2,2.5,0.2c0.6,0.1,1,0.1,1.1,0.1c1.4,0,3-0.6,4.8-1.7
		c0.3,0,0.5,0.2,0.5,0.4c0,0.6-0.5,1.6-1.6,2.9c-1,1.1-1.5,1.8-1.7,1.9c-0.4,0.2-0.8,0.4-1.3,0.4c-0.4,0-1.3-0.2-2.6-0.7
		c-1.1-0.4-2.7-0.8-4.8-1.3h-1c-1.1,0-1.8-0.2-2.2-0.6c-0.6-0.6-0.8-1.2-0.8-1.8c0-0.2,0.1-0.6,0.4-1.1c0.2-0.4,0.3-0.9,0.3-1.5
		c0.2-0.7,0.3-1.6,0.5-2.8C150,22.4,149.2,22.5,148.2,22.7L148.2,22.7z M144.2,8.6h-0.8c-0.6,0.1-1.1,0.2-1.4,0.2
		c-0.8,0-1.2-0.2-1.3-0.7c0.1-0.5,0.4-0.9,0.9-1.3c0.5-0.1,1.2-0.2,2.2-0.2l2.6-0.2l2.6-0.2c0-0.3-0.3-0.6-0.7-0.8
		c-0.5-0.2-0.8-0.6-0.8-1.1c0.1-0.3,0.2-0.6,0.4-0.7c0.4-0.4,0.9-0.5,1.4-0.5c0.9,0,1.7,0.3,2.5,0.8c0.5,0.4,0.7,0.7,0.7,1.1
		s-0.3,0.7-0.9,0.9c-0.1,0-0.3,0.1-0.5,0.3H151c2.4,0,4.1-0.1,5.2-0.1c0.4,0,0.6,0,0.7,0c0.6,0,1.2,0.1,1.7,0.2
		c0.4,0.2,0.6,0.6,0.8,1c-0.1,0.6-0.6,0.9-1.6,0.9h-2.4c0,0.1-0.1,0.3-0.1,0.6c-0.1,0.4-0.2,1-0.3,1.6h3.7c2.2,0,3.3,0.4,3.3,1.2
		c0,0.4-0.2,0.7-0.7,0.7c-0.2,0-0.7,0.1-1.5,0.1h-2c-0.7,0-1.7,0-2.8,0.1c-1.4,0.1-3.2,0.2-5.3,0.2c-0.8,0-2.3,0.1-4.4,0.3
		c-2.5,0.2-4.1,0.4-4.7,0.4c-0.4,0.1-0.7,0.1-0.8,0.1c-0.9,0-1.4-0.5-1.5-1.3c0.2-0.5,0.5-0.8,1.1-1.1c0.8-0.1,1.6-0.2,2.4-0.2h3.2
		c-0.1-1-0.2-1.7-0.6-2.1C144.4,8.7,144.3,8.7,144.2,8.6C144.3,8.6,144.3,8.6,144.2,8.6L144.2,8.6L144.2,8.6z M155.5,19.2
		c-0.8-0.1-1.6-0.1-2.2-0.1c-1.9,0-4.8,0.2-8.7,0.7c0,0,0,0.1-0.1,0.2v0.2v0.2c0,0.2-0.1,0.3-0.1,0.3c0,0.5,0.1,0.7,0.4,0.7
		c0.1,0,0.2,0,0.4-0.1c3.3-0.2,5.9-0.4,7.8-0.4h1.9c0.5,0,0.7-0.2,0.7-0.6v-0.1c0-0.2,0-0.4,0-0.6C155.5,19.4,155.5,19.3,155.5,19.2
		L155.5,19.2z M144.7,17.9c0.5,0,1.1-0.1,1.8-0.2l0.7-0.1c0.8-0.1,1.5-0.1,1.9-0.1c0.3,0,1,0,2.3-0.1c0.7,0,1.2-0.1,1.6-0.1
		c1-0.1,1.5-0.2,1.7-0.2h0.8c0-0.2,0-0.4,0-0.5s0-0.2,0-0.3v-0.1l0,0c0-0.2-0.4-0.4-1.1-0.4c-1-0.1-1.8-0.1-2.3-0.1s-1.2,0-2.2,0.1
		c-1.9,0-3.4,0.1-4.4,0.3c-0.7,0-1,0.3-1,0.8v1H144.7z M147.1,10.6h1.7c0.3,0,0.8,0,1.4-0.1c0.7-0.1,1.5-0.1,2.5-0.1
		c0-0.1,0-0.3,0.1-0.7V9.2c0.1-0.6,0.1-1,0.2-1.3c-1,0.1-1.9,0.2-2.8,0.2c-1.1,0-2.1,0.1-3,0.2v0.2c0,0,0,0.2,0,0.4
		c0,0,0,0.1,0.1,0.3c0,0.1,0,0.2,0,0.3C147.1,9.8,147.1,10.2,147.1,10.6z"/>
	<path d="M183.7,7.3c0-0.1,0-0.2,0-0.3V6.9c0-0.4-0.3-0.7-1-1C182.3,5.8,182,5.5,182,5c0.2-1,0.9-1.5,2-1.5c0.6,0,1.4,0.2,2.2,0.5
		c0.9,0.6,1.3,1.2,1.2,1.5c0,0.4-0.4,0.7-1.1,0.9c-0.3,0.3-0.6,0.6-0.9,0.8c1.7-0.1,3.3-0.2,4.8-0.2c2,0,3.1,0.4,3.1,1.1
		s-0.4,1.1-1.3,1.1h-1.9c-0.4,1.2-0.7,2.7-0.8,4.6h3c2.1,0,3.2,0.4,3.2,1.2c0,0.5-0.2,0.8-0.6,0.9c-0.2,0.1-0.8,0.1-1.9,0.1h-2.2
		c-0.8,0-1.7,0-2.8,0.1c-0.3,0-1.6,0.1-3.9,0.2c-1.6,0.1-3.2,0.2-4.8,0.4c-3.2,0.4-5.2,0.5-6.1,0.5c-0.8,0-1.2-0.5-1.3-1.4
		c0.4-1,1.7-1.5,3.8-1.5c0,0,0.2,0,0.4,0c0.3,0,0.7,0,1.2,0s1.2,0,2.1-0.1c0-2.2-0.3-3.6-0.9-4.3c-0.1-0.1-0.2-0.2-0.4-0.2
		c-0.6,0-1.2,0.1-1.9,0.2c-0.1,0-0.2,0-0.3,0c-0.7,0-1.1-0.4-1.2-1.3c0.2-0.5,0.6-0.9,1.1-1.1c0.9-0.1,1.8-0.2,2.9-0.2
		c0.7,0,2,0,3.9-0.1h0.9C183.5,7.3,183.6,7.3,183.7,7.3L183.7,7.3z M186.3,27.7h-1.7c-0.5,0-0.9,0-1.4,0.1c-0.2,0-0.4,0.1-0.7,0.1
		S182,28,181.9,28c-0.3,0-0.6,0.1-0.9,0.1c-0.4,0-0.8,0.1-1.2,0.4l-0.1,0.1c-0.1,0.1-0.2,0.1-0.2,0.1c-0.2,0.1-0.4,0.2-0.6,0.2
		c-0.3,0.1-0.7,0.2-1.2,0.2c-0.3-0.3-0.5-0.6-0.6-1c0-0.1,0-0.2,0-0.4c0-0.2,0.1-0.5,0.1-0.8c0.1-0.4,0.1-0.8,0.1-1.1
		c0-1.9-0.3-3.2-0.8-3.7c-0.3-0.4-0.4-0.8-0.4-1.1c0-0.5,0.3-1,0.8-1.5c0.2-0.1,0.4-0.1,0.6-0.1c0.2,0,0.5,0,0.8,0.1h1.1
		c0.5,0,0.9,0,1.4-0.1c0.4-0.1,0.8-0.1,1.2-0.1s0.9,0,1.5-0.1s1.2-0.1,1.9-0.1h1.3c0.9,0,1.5-0.1,1.9-0.2c0.1-0.1,0.5-0.2,1-0.4
		c0.5,0,1,0.2,1.5,0.4c0.7,0.6,1,1.2,1,1.6c0,0.6-0.1,1.1-0.3,1.5c0,0.1-0.1,0.2-0.2,0.6c-0.1,0.1-0.1,0.3-0.2,0.4
		c-0.3,0.7-0.5,1.8-0.6,3.1c-0.1,1.4-0.7,2-1.7,2c-0.3,0-0.8-0.1-1.5-0.3h-1.3V27.7z M187.9,25.5c0.3,0,0.6-0.3,0.7-0.9
		c0.3-1.1,0.4-2.1,0.4-3c0-0.4-0.3-0.6-0.9-0.7h-3.6c-0.6,0-2.1,0.1-4.4,0.4c-0.4,0.1-0.6,0.5-0.6,1c0,0.2,0,0.5,0,0.9
		c0,0.2,0,0.5,0.1,0.9c0,0.3,0,0.6,0,0.8c0,0.5,0.1,0.7,0.1,0.7c0,0.3,0.1,0.6,0.3,0.7c0.3,0,0.8-0.1,1.7-0.3c1.4-0.3,2.8-0.4,4-0.4
		L187.9,25.5L187.9,25.5z M181.3,9.7c0,0.4,0.1,0.9,0.1,1.5c0,0.7,0.1,1.2,0.1,1.4c0,0.4,0,1-0.1,1.7h1.1c0.1,0,1-0.1,2.6-0.2
		L186,14l0.8-0.1h0.6v-2.4c0-0.9,0-1.6,0.1-2.2c-1.5,0.1-3.3,0.2-5.2,0.2C181.9,9.6,181.6,9.7,181.3,9.7L181.3,9.7z M200.1,22.1
		c0.2,4.5,0.4,7.6,0.4,9.2c0,1.1-0.4,1.7-1.2,1.8c-1-0.2-1.4-0.8-1.4-2c0-0.2,0-0.6,0-1.2c0-0.5,0-1.7,0-3.6c0-1.4-0.1-3.6-0.2-6.4
		c0-3.5-0.1-5.6-0.2-6.5c-0.2-1.5-0.5-2.8-0.9-3.7c-0.3-0.5-0.4-1-0.5-1.4c0.3-1.2,0.9-1.9,1.7-1.9c0.7,0,1.2,0.3,1.6,1
		c1.8-0.4,3.6-0.6,5.5-0.6c2.7,0,4.6,0.3,5.5,0.9c0.7,0.4,1.1,1.2,1.1,2.2c0,0.7-0.6,1.5-1.6,2.4c-0.7,0.6-1.2,1-1.8,1.2
		c-0.1,0-0.3,0.1-0.7,0.3c-0.1,0-0.2,0.1-0.3,0.2c-0.1,0-0.1,0.1-0.2,0.1c0,0.4,0.5,0.8,1.4,1.3c0.9,0.9,1.3,1.7,1.3,2.4
		c0,0.1,0,0.2,0,0.3c0,0.2,0,0.4,0,0.5c0,1-0.5,1.9-1.5,2.6c-1.2,0.9-2.9,1.3-5,1.3C202.4,22.5,201.4,22.4,200.1,22.1L200.1,22.1z
		 M199.8,9.5c0.1,1.9,0.1,3.7,0.1,5.4c0.2-0.3,0.7-0.4,1.2-0.4c1.7,0,3.1-0.4,3.9-1c1.9-1.4,2.8-2.4,2.8-3.1c0-0.2,0-0.4,0-0.5
		c0-0.5-0.2-0.9-0.7-1.1c-0.3-0.1-1.1-0.2-2.4-0.2c-1.3,0-2.9,0.2-4.4,0.5c-0.1,0.1-0.3,0.2-0.4,0.3C199.9,9.5,199.9,9.5,199.8,9.5
		L199.8,9.5z M200,16.8v1.4c0,0.9,0,1.6,0,2v0.3c0,0.2,0,0.4,0,0.5c0.6,0,1.1,0,1.3,0c1.6,0,2.9-0.2,3.8-0.7c1.3-0.2,1.9-0.9,1.9-2
		c0-0.5-0.3-1.1-0.9-1.7c-0.8-0.4-1.5-0.6-2.2-0.6c-1.1,0-2.1,0.1-2.8,0.4C200.8,16.6,200.3,16.7,200,16.8L200,16.8z"/>
	<g>
		<path class="st0" d="M33.7,8.5c0.4-0.4,0.7-0.6,1.5-0.5C35.7,8,36,8.1,36.7,8.7l18.4,26.7h4.4c0.3-1.7,0.5-3.5,0.5-5.4
			C60,13.4,46.6,0,30,0C13.4,0,0,13.4,0,30c0,0.5,0,1,0,1.5l10.2,0c4-5.9,7.9-11.8,11.8-17.8c0.7-0.7,1.2-0.8,1.8-0.6l3.1,3.3
			L14.7,33.7l-14.5,0c0.1,0.5,0.1,1,0.2,1.5l15.5,0.1L33.7,8.5z"/>
		<path class="st1" d="M34.8,27.5l-8.3,13l-24.6,0C6.2,51.9,17.2,60,30,60c12.7,0,23.6-7.9,28-19.1H44.2L34.8,27.5z"/>
		<path class="st1" d="M50.5,37.4L35.2,15.8L20.7,37.5L0.9,37.4c0.1,0.4,0.2,0.9,0.4,1.3l20.5-0.1l13.6-19.4l13.4,19.4h10
			c0.1-0.4,0.2-0.8,0.3-1.2L50.5,37.4z"/>
		<path class="st2" d="M27,16.4l-3.1-3.3c-0.6-0.2-1.1-0.1-1.8,0.6c-3.9,5.9-7.9,11.8-11.8,17.8L0,31.5c0,0.7,0.1,1.4,0.2,2.1
			l14.5,0L27,16.4z"/>
		<path class="st2" d="M35.3,19.2L21.8,38.6L1.3,38.7c0.2,0.6,0.4,1.2,0.6,1.9l24.6,0l8.3-13l9.4,13.3H58c0.3-0.7,0.6-1.5,0.8-2.3
			h-10L35.3,19.2z"/>
		<path class="st2" d="M35.2,15.8l15.3,21.6l8.6,0c0.2-0.7,0.3-1.3,0.4-2h-4.4L36.7,8.7c-0.6-0.6-1-0.7-1.4-0.8
			c-0.8-0.1-1.1,0.2-1.5,0.5L15.9,35.1L0.4,35.1c0.1,0.8,0.3,1.6,0.5,2.3l19.8,0.1L35.2,15.8z"/>
	</g>
</g>
</svg>
