<?xml version="1.0" encoding="utf-8"?>
<!-- Generator: $$$/GeneralStr/196=Adobe Illustrator 27.6.0, SVG Export Plug-In . SVG Version: 6.00 Build 0)  -->
<svg version="1.1" id="圖層_1" xmlns="http://www.w3.org/2000/svg" xmlns:xlink="http://www.w3.org/1999/xlink" x="0px" y="0px"
	 width="278px" height="86px" viewBox="0 0 278 86" style="enable-background:new 0 0 278 86;" xml:space="preserve">
<style type="text/css">
	.st0{fill:#FFFFFF;}
	.st1{fill:#2878B9;}
	.st2{fill:#9EC317;}
</style>
<g>
	<g>
		<path class="st0" d="M112.9,70.4h-1.5V60l-3.5,10.3h-1.4L103,60v10.3h-1.5V58.2h2.4l3.3,10.1l3.3-10.1h2.4L112.9,70.4L112.9,70.4z
			"/>
		<path class="st0" d="M117,59.9h-1.6v-1.7h1.6V59.9z M117,70.4h-1.6v-8.8h1.6V70.4z"/>
		<path class="st0" d="M120.8,62.7c0.8-0.9,1.7-1.3,2.6-1.3c2,0,3,1.1,3,3.2v5.8h-1.6v-5.7c0-0.7-0.1-1.2-0.4-1.5
			c-0.3-0.3-0.7-0.5-1.3-0.5c-0.8,0-1.6,0.5-2.4,1.4v6.3h-1.6v-8.8h1.6V62.7z"/>
		<path class="st0" d="M130.3,59.9h-1.6v-1.7h1.6V59.9z M130.3,70.4h-1.6v-8.8h1.6V70.4z"/>
		<path class="st0" d="M135.7,70.6c-2.4,0-3.7-1-3.8-2.8h1.6c0,1.1,0.7,1.6,2.2,1.6c0.6,0,1.1-0.1,1.5-0.4c0.3-0.3,0.5-0.6,0.5-1
			c0-0.4-0.2-0.7-0.5-0.8c-0.3-0.2-1-0.4-2.1-0.6c-1-0.3-1.8-0.6-2.3-0.9s-0.7-0.9-0.7-1.7c0-0.7,0.3-1.3,0.9-1.8s1.4-0.7,2.4-0.7
			c2.3,0,3.5,0.8,3.5,2.5h-1.6c-0.1-0.8-0.7-1.2-1.9-1.2c-0.5,0-1,0.1-1.3,0.3c-0.3,0.2-0.5,0.5-0.5,0.9c0,0.3,0.1,0.6,0.4,0.7
			c0.3,0.1,0.9,0.4,2,0.6c1.1,0.2,1.9,0.6,2.4,0.9c0.5,0.3,0.8,0.9,0.8,1.8c0,0.9-0.3,1.5-1,2C137.6,70.3,136.8,70.6,135.7,70.6
			L135.7,70.6z"/>
		<path class="st0" d="M144.5,70.4c-0.3,0.1-0.7,0.1-1.1,0.1c-0.6,0-1.1-0.1-1.4-0.3c-0.3-0.2-0.5-0.5-0.6-0.9s-0.1-0.8-0.1-1.5v-5
			h-1.1v-1.2h1.1v-2.2h1.6v2.2h1.4v1.2h-1.4v5.1c0,0.6,0.1,1,0.2,1.1c0.2,0.2,0.4,0.2,0.6,0.2s0.5,0,0.8-0.1V70.4L144.5,70.4z"/>
		<path class="st0" d="M150.4,63c-0.2-0.1-0.5-0.1-0.9-0.1c-0.8,0-1.5,0.4-2.1,1.3v6.2h-1.6v-8.8h1.6v1.2c0.7-1,1.4-1.4,2.3-1.4
			c0.2,0,0.5,0,0.7,0.1V63z"/>
		<path class="st0" d="M151.9,72.5c0.8,0,1.4-0.7,1.9-2.1l-3.3-8.8h1.7l2.3,6.9l2.3-6.9h1.7l-3.3,8.8c-0.3,0.8-0.6,1.5-0.8,1.9
			c-0.2,0.5-0.5,0.8-0.9,1.2s-0.8,0.5-1.3,0.5c-0.4,0-0.7,0-1-0.1v-1.4C151.4,72.5,151.7,72.5,151.9,72.5L151.9,72.5z"/>
		<path class="st0" d="M168,61.4c1.3,0,2.3,0.4,3,1.2s1.1,1.9,1.1,3.4s-0.4,2.6-1.1,3.4c-0.8,0.8-1.8,1.2-3,1.2s-2.2-0.4-3-1.2
			c-0.8-0.8-1.1-1.9-1.1-3.4s0.4-2.6,1.1-3.4S166.8,61.4,168,61.4z M168,69.4c0.8,0,1.4-0.3,1.8-0.8s0.7-1.4,0.7-2.5s-0.2-2-0.7-2.5
			c-0.5-0.6-1.1-0.9-1.8-0.9s-1.4,0.3-1.8,0.9c-0.5,0.6-0.7,1.4-0.7,2.5s0.2,2,0.7,2.5C166.7,69.1,167.3,69.4,168,69.4z"/>
		<path class="st0" d="M175.7,62.8v7.6h-1.6v-7.6h-1.3v-1.2h1.3v-0.8c0-1.9,0.8-2.8,2.5-2.8c0.5,0,0.9,0,1.2,0.1v1.4
			c-0.3-0.1-0.6-0.1-0.9-0.1c-0.4,0-0.7,0.1-0.9,0.3c-0.2,0.2-0.3,0.6-0.3,1.1v0.8h1.7v1.2H175.7L175.7,62.8z"/>
		<path class="st0" d="M192.4,70.4h-9.1V58.2h8.8v1.4H185v3.7h6.7v1.4H185v4.1h7.5V70.4L192.4,70.4z"/>
		<path class="st0" d="M196,62.7c0.8-0.9,1.7-1.3,2.6-1.3c2,0,3,1.1,3,3.2v5.8h-1.6v-5.7c0-0.7-0.1-1.2-0.4-1.5
			c-0.3-0.3-0.7-0.5-1.3-0.5c-0.8,0-1.6,0.5-2.4,1.4v6.3h-1.6v-8.8h1.6V62.7z"/>
		<path class="st0" d="M211,61.6l-3.3,8.8h-1.4l-3.3-8.8h1.7l2.3,6.9l2.3-6.9H211L211,61.6z"/>
		<path class="st0" d="M214,59.9h-1.6v-1.7h1.6V59.9z M214,70.4h-1.6v-8.8h1.6V70.4z"/>
		<path class="st0" d="M220.9,63c-0.2-0.1-0.5-0.1-0.9-0.1c-0.8,0-1.5,0.4-2.1,1.3v6.2h-1.6v-8.8h1.6v1.2c0.7-1,1.4-1.4,2.3-1.4
			c0.2,0,0.5,0,0.7,0.1V63z"/>
		<path class="st0" d="M225.5,61.4c1.3,0,2.3,0.4,3,1.2s1.1,1.9,1.1,3.4s-0.4,2.6-1.1,3.4c-0.8,0.8-1.8,1.2-3,1.2
			c-1.3,0-2.2-0.4-3-1.2c-0.8-0.8-1.1-1.9-1.1-3.4s0.4-2.6,1.1-3.4S224.3,61.4,225.5,61.4z M225.5,69.4c0.8,0,1.4-0.3,1.8-0.8
			s0.7-1.4,0.7-2.5s-0.2-2-0.7-2.5c-0.5-0.6-1.1-0.9-1.8-0.9s-1.3,0.3-1.8,0.9c-0.5,0.6-0.7,1.4-0.7,2.5s0.2,2,0.7,2.5
			S224.8,69.4,225.5,69.4z"/>
		<path class="st0" d="M233,62.7c0.8-0.9,1.7-1.3,2.6-1.3c2,0,3,1.1,3,3.2v5.8H237v-5.7c0-0.7-0.1-1.2-0.4-1.5s-0.7-0.5-1.3-0.5
			c-0.8,0-1.6,0.5-2.4,1.4v6.3h-1.6v-8.8h1.6V62.7z"/>
		<path class="st0" d="M252.7,70.4h-1.6v-5.7c0-0.7-0.1-1.2-0.3-1.6c-0.2-0.3-0.6-0.5-1.1-0.5c-0.8,0-1.5,0.5-2.2,1.4v6.3H246v-5.7
			c0-0.7-0.1-1.2-0.3-1.6c-0.2-0.3-0.6-0.5-1.1-0.5c-0.8,0-1.5,0.5-2.2,1.4v6.3h-1.6v-8.8h1.6v1.1c0.7-0.9,1.6-1.3,2.5-1.3
			c1.3,0,2.1,0.5,2.5,1.6c0.6-0.7,1.1-1.1,1.5-1.3s0.8-0.3,1.2-0.3c1.8,0,2.7,1.1,2.7,3.2L252.7,70.4L252.7,70.4z"/>
		<path class="st0" d="M258.7,70.6c-1.3,0-2.3-0.4-3.1-1.2s-1.2-1.9-1.2-3.4s0.4-2.6,1.1-3.4c0.8-0.8,1.8-1.2,3-1.2
			c1.2,0,2.3,0.4,3,1.2s1.1,1.9,1.1,3.4v0.4H256c0.1,1,0.4,1.8,0.8,2.3c0.5,0.5,1.1,0.7,1.8,0.7c0.5,0,1-0.1,1.5-0.4
			c0.4-0.3,0.7-0.7,0.7-1.2h1.6c-0.1,0.9-0.5,1.6-1.2,2.1S259.7,70.6,258.7,70.6L258.7,70.6z M261,65.1c-0.1-0.8-0.4-1.5-0.9-1.9
			c-0.4-0.4-1-0.6-1.6-0.6s-1.2,0.2-1.6,0.6c-0.5,0.4-0.7,1.1-0.9,1.9H261z"/>
		<path class="st0" d="M266,62.7c0.8-0.9,1.7-1.3,2.6-1.3c2,0,3,1.1,3,3.2v5.8H270v-5.7c0-0.7-0.1-1.2-0.4-1.5
			c-0.3-0.3-0.7-0.5-1.3-0.5c-0.8,0-1.6,0.5-2.4,1.4v6.3h-1.6v-8.8h1.6V62.7z"/>
		<path class="st0" d="M277.3,70.4c-0.3,0.1-0.7,0.1-1.1,0.1c-0.6,0-1.1-0.1-1.4-0.3c-0.3-0.2-0.5-0.5-0.6-0.9
			c-0.1-0.4-0.1-0.8-0.1-1.5v-5H273v-1.2h1.1v-2.2h1.6v2.2h1.4v1.2h-1.4v5.1c0,0.6,0.1,1,0.2,1.1c0.1,0.2,0.4,0.2,0.6,0.2
			c0.3,0,0.5,0,0.8-0.1V70.4L277.3,70.4z"/>
		<path d="M110,19.3v0.4c0,0.1,0,0.5,0,1.2c0,0.6,0,1.8-0.1,3.5c0.2,0,0.5-0.1,0.9-0.1c0.2,0,0.4,0,0.6-0.1c0.4,0,0.7-0.1,0.8-0.1
			c0.5-0.1,0.8-0.1,1-0.1c0.8,0,1.2,0.3,1.2,0.8c0,0.8-0.4,1.2-1.2,1.2c-0.1,0-0.2,0-0.4,0c-0.7,0.1-1.7,0.3-3,0.4v5.6
			c1.3-0.1,2.4-0.3,3.3-0.5c0.4-0.1,0.8-0.1,1.2-0.1c0.8,0,1.1,0.2,1.1,0.5c0,0.9-0.8,1.5-2.4,2c-2.5,0.7-4.6,1.1-6.3,1.3
			c-1,0.1-1.9,0.3-2.6,0.5c-0.6,0.5-1.1,0.7-1.4,0.7c0,0-0.1,0-0.2,0c-0.8,0-1.1-0.5-1.1-1.4c0-0.1,0-0.3,0-0.5
			c0.7-1.2,1.8-1.7,3.1-1.7c0.6,0,1.6-0.1,3-0.2c0-0.1,0-0.2,0-0.3c0,0,0-0.2,0-0.4v-0.9c0-0.8,0-1.7,0-2.8l0-0.9v-0.6l-0.4,0.1
			c-0.5,0.1-1.1,0.2-1.7,0.3c-0.3,0-0.6,0.1-0.7,0.1c-0.5,0.3-0.9,0.4-1.2,0.4c-0.1,0-0.2,0.1-0.3,0.1c-0.3,0-0.5-0.1-0.8-0.3
			c-0.1-0.3-0.2-0.6-0.2-0.9c0-0.4,0.2-0.8,0.6-1.2c0.6-0.2,1.2-0.4,1.7-0.4c0,0,0.2,0,0.6-0.1c0.5-0.1,1.3-0.1,2.3-0.1
			c0-0.9,0-1.6-0.1-2.2c0-0.4,0-0.8,0-1.2c0-0.4,0-0.9-0.1-1.4c-0.9,0.1-1.8,0.3-2.4,0.4c-0.5,0.2-0.9,0.3-1.2,0.3
			c-0.1,0-0.2,0-0.3,0c-0.3,0-0.6-0.1-0.9-0.4c-0.2-0.3-0.2-0.6-0.2-1c0-0.4,0.2-0.8,0.6-1.2c0.7-0.2,1.3-0.4,1.8-0.4
			c0.2,0,0.8-0.1,1.7-0.2c0.5-0.1,1.2-0.1,2-0.2c1.3-0.1,2-0.2,2.4-0.2c1.3-0.1,2.2-0.2,2.8-0.2c0.9,0,1.4,0.4,1.4,1.1
			s-0.4,1.1-1.2,1.1c-0.1,0-0.3,0-0.5,0C112.3,19,111.3,19.2,110,19.3L110,19.3z M132.2,30.8c-0.4,0-0.8-0.1-1.3-0.2h-3.9
			c-0.5,0.1-0.9,0.2-1.4,0.2c0.1,0.4,0.2,0.7,0.2,0.9c0,0.2-0.3,0.6-0.8,1l-0.2,0.2l-0.2,0.2c0.2,0.3,0.2,0.5,0.2,0.7
			c0,0.3-0.1,0.8-0.2,1.4c0,0.1-0.1,0.3-0.1,0.6c0,0.2-0.1,0.6-0.3,1.2c-0.1,0.4-0.1,0.6-0.1,0.8c0,0.1,0,0.2,0,0.2
			c0,0.4,0.2,0.5,0.5,0.5c1.1,0,2.6-0.2,4.6-0.6c0.5-0.1,0.8-0.2,0.9-0.2c0.3,0,0.4,0.1,0.4,0.4c0,0.4-0.2,0.9-0.6,1.3
			c-0.4,0.4-0.8,0.6-1.3,0.6c-0.7,0-2.4,0.2-5.3,0.6c-0.3,0.1-0.7,0.3-1,0.5c-0.3,0.2-0.7,0.3-1.1,0.3c-1,0-1.7-0.5-2.1-1.5v-0.1
			c0-0.3,0.1-0.5,0.4-0.6c0.1,0,0.4-0.2,0.8-0.4l0.1,0c0.5-0.2,0.9-0.8,1.3-1.8c0.2-0.7,0.4-1.2,0.4-1.7v-0.2
			c-1.1,0.7-2.4,1.4-4,1.9c-1.6,0.7-2.9,1-3.7,1c-1.4,0-2.1-0.5-2.1-1.5c0-0.2,0-0.5,0.1-0.8c0.3-0.5,0.7-0.9,1.3-1.4
			c0.5-0.4,0.9-0.6,1.3-0.6c0.6,0.4,1.2,0.6,1.9,0.6c0.5,0,1.4-0.3,2.8-0.8c1.3-0.5,2.5-1,3.4-1.6c0.3-0.4,0.6-0.6,0.9-0.8h-0.2
			c-0.3,0.2-0.6,0.3-0.8,0.4c-0.2,0-0.3,0.1-0.5,0.2c-0.2,0.1-0.4,0.1-0.5,0.1c-0.6,0-1-0.3-1.1-0.9c0-0.1,0-0.2,0-0.4
			c0-0.1,0.1-0.3,0.1-0.5c0-0.1,0-0.3,0.1-0.5c0-0.1,0-0.3,0-0.6c0-1.2-0.2-2-0.7-2.5c-0.2-0.2-0.3-0.4-0.4-0.7c0-0.5,0.3-1,0.7-1.4
			c0.2,0,0.4-0.1,0.6-0.1c0.2,0,0.4,0,0.7,0.1h2.3c0.3,0,0.6,0,1.1,0c0.6-0.1,1.2-0.1,1.9-0.1h0.4c1.8,0,2.9-0.1,3.3-0.2h1.1
			c0.1,0,0.3-0.1,0.5-0.2l0.3-0.1c0.4-0.1,0.6-0.2,0.7-0.2c0.5,0,1.1,0.3,1.8,0.9c0.3,0.3,0.5,0.6,0.5,0.9c0,0.5-0.3,1-0.9,1.7
			c-0.3,0.7-0.5,1.4-0.5,2.2c-0.1,1-0.6,1.5-1.5,1.5c0.1,0.1,0.3,0.2,0.5,0.2c0.5,0.3,0.8,0.7,0.8,1.3c0,0.7-0.2,1.3-0.7,1.7
			c0,0,0.1,0.1,0.3,0.2l0.1,0.1c0.1,0.1,0.3,0.2,0.5,0.3c0.6,0.2,1.3,0.6,2.1,1.2c1.4,0.9,3.1,1.4,5.1,1.4c1.3,0,2.2,0,2.7-0.1
			c0.2,0,0.3,0,0.3,0c0.5,0,0.8,0.1,0.8,0.4c0,0,0,0.1,0,0.1c0,0.1,0,0.1,0,0.1c0,0.3-0.4,0.8-1.3,1.6c-1.4,1.3-2.6,1.9-3.7,1.9
			c-0.1,0-0.2,0-0.3,0c-0.5,0-1.1-0.2-1.6-0.6c-0.6-0.5-1.1-0.9-1.4-1.3c-0.8-0.7-1.9-1.5-3.4-2.5c-1-0.7-1.8-1.1-2.4-1.2
			c-0.1,0.1-0.2,0.2-0.3,0.2l0,0l0,0h0c-1,0.3-1.8,0.4-2.5,0.4c-0.6,0-0.9-0.2-0.9-0.6c0-0.3,0.3-0.5,1-0.7c0.6-0.2,1.3-0.7,2.1-1.5
			c0.4-0.4,0.7-1,0.8-1.7c0.1-0.1,0.2-0.3,0.5-0.6C131.9,30.9,132.1,30.9,132.2,30.8L132.2,30.8z M136.4,20.6c2,0,3,0.5,3,1.3
			c0,0.4-0.2,0.7-0.7,0.8c-0.2,0-0.8,0.1-1.6,0.1H135c-0.8,0-1.7,0-2.8,0.1c-0.4,0-1,0.1-1.9,0.1c-0.6,0-1.1,0.1-1.5,0.1
			c-0.8,0-1.4,0.1-1.6,0.1c-2.8,0.1-5.9,0.4-9.4,0.9c-0.1,0-0.2,0-0.3,0c-0.7,0-1.1-0.5-1.3-1.4c0.2-0.5,0.6-0.9,1.2-1.1
			c0.8-0.1,1.5-0.2,2.2-0.2h0.2c0,0,0.2,0,0.6,0h0.4c1.5,0,3.1-0.1,5-0.3C127.4,20.7,130.9,20.6,136.4,20.6L136.4,20.6z M133.1,18.7
			c-1.7,0-3.6,0.1-5.8,0.3c-0.6,0-1,0.1-1.2,0.1c-0.6,0-1,0.1-1.2,0.1c-0.6,0.1-1.2,0.1-1.7,0.1c-0.7,0-1.3,0.1-1.9,0.3
			c-0.2,0-0.4,0.1-0.6,0.2c-0.3,0.1-0.5,0.1-0.6,0.2c-0.2,0.1-0.6,0.2-1,0.3c-0.2,0.1-0.4,0.1-0.5,0.1c-0.2,0-0.4,0-0.6-0.1
			c-0.3-0.2-0.5-0.5-0.6-0.9c0-0.3,0.1-0.5,0.1-0.7c0-0.1,0-0.3,0.1-0.5c0.1-0.3,0.1-0.5,0.1-0.8c0-1.3-0.3-2.1-0.8-2.5
			c-0.2-0.3-0.4-0.5-0.4-0.8c0-0.4,0.2-0.7,0.4-1c0.3-0.4,0.8-0.6,1.3-0.6c0.1,0,0.3,0,0.5,0.1h2.9c0.2,0,0.5,0,0.9,0
			c1-0.1,2.8-0.1,5.5-0.1c3.6,0,5.8-0.1,6.6-0.2h1l0.1,0c0.7-0.2,1.2-0.3,1.5-0.3c0.6,0,1.2,0.3,1.8,1c0.3,0.4,0.5,0.7,0.5,1
			c0,0.5-0.3,1.1-0.9,1.7c-0.3,0.6-0.4,1.3-0.5,2.2c-0.1,1-0.6,1.5-1.6,1.5c-0.3,0-0.8-0.1-1.6-0.2
			C134.1,18.9,133.6,18.8,133.1,18.7L133.1,18.7z M124.4,17.2c-0.2-0.6-0.4-1.4-0.5-2.4c0-0.3,0.1-0.5,0.2-0.6
			c-1.4,0.1-2.6,0.2-3.6,0.2c-0.4,0.1-0.6,0.5-0.7,1c0,0.2,0.1,0.4,0.1,0.6c0,0.2,0.1,0.4,0.1,0.7c0,0.2,0.1,0.4,0.1,0.5
			c0,0.1,0.1,0.3,0.3,0.4c0.3,0,0.8-0.1,1.4-0.2C122.5,17.4,123.4,17.3,124.4,17.2L124.4,17.2z M131,28.7c0.4,0,0.7-0.3,0.8-0.8
			c0.2-0.8,0.3-1.2,0.3-1.4c0-0.3-0.3-0.6-0.9-0.7h-2.7c-1.1,0-2.8,0.1-5.1,0.4c-0.4,0.1-0.6,0.4-0.6,0.8c0,0.4,0.1,1,0.2,1.9
			c0,0.1,0.1,0.3,0.3,0.4c0.3,0,0.7,0,1.1-0.1c0.2,0,0.3-0.1,0.5-0.1c0.1,0,0.3,0,0.6-0.1c1.5-0.2,2.6-0.3,3.5-0.3L131,28.7
			L131,28.7z M129.5,16.9v-0.8c0-0.9-0.1-1.6-0.3-2.1h-1c-0.6,0-1.1,0.1-1.7,0.2v0c0,0,0,0.1,0,0.2c0,0.1-0.1,0.3-0.3,0.4
			c-0.1,0.6-0.2,1.4-0.2,2.4c0.6,0,1,0,1.4,0c0.3,0,0.5-0.1,0.5-0.1c0.3,0,0.5,0,0.6,0c0.1-0.1,0.2-0.1,0.2-0.1c0.1,0,0.2,0,0.3,0
			L129.5,16.9L129.5,16.9z M132,14c-0.1,0.2-0.2,0.5-0.2,1c-0.1,0.6-0.2,1.3-0.3,1.9h2.4c0.7,0,1.1,0,1.2-0.1c0.1,0,0.2-0.2,0.4-0.4
			c0.3-0.7,0.5-1.3,0.5-1.7c0-0.4-0.3-0.6-0.9-0.8L132,14L132,14z"/>
		<path d="M157.3,20.4v-0.3c0-0.5,0-1.1,0-1.7c0-1-0.1-1.8-0.3-2.2c-0.1-0.2-0.1-0.4-0.1-0.6c0-0.6,0.5-1,1.4-1.2
			c1.5,0.1,2.2,0.6,2.2,1.5c0,0.1,0,0.3-0.1,0.6c-0.2,1.1-0.3,2.1-0.3,3c0,0.1,0,0.4,0,0.9c0.8-0.1,1.5-0.2,2.1-0.2
			c0.7,0,1.4,0.1,2,0.2c0.4,0.3,0.7,0.7,0.8,1.2c-0.1,0.4-0.3,0.6-0.7,0.8c-0.3,0.1-0.9,0.1-1.9,0.1H160l0,0.8
			c0,2.1-0.1,3.9-0.1,5.4c1.4-0.1,2.6-0.3,3.7-0.7c0.5-0.2,1.1-0.3,1.7-0.3c0.5,0,0.7,0.1,0.7,0.4c0,0,0,0,0,0.1
			c0,0.6-0.5,1.1-1.4,1.4c-1.9,0.8-4.5,1.5-7.8,2.1c-1,0.2-1.9,0.4-2.8,0.7c-0.7,0.5-1.2,0.8-1.4,0.8c0,0-0.1,0-0.1,0
			c-0.1,0-0.2,0-0.3,0c-0.6,0-0.9-0.4-0.9-1.2c0-0.1,0-0.3,0-0.5c0.6-1.1,1.6-1.8,2.8-1.9c0.2,0,0.5,0,0.6,0c0.7,0,1.6-0.2,2.7-0.5
			c0,0,0-0.1,0-0.2c0-0.1,0-0.1,0-0.1V28c0-0.5,0-1.3,0-2.3c0-0.9,0-1.8,0-2.9c-1.1,0.1-2.1,0.2-3.1,0.4c-0.2,0.1-0.3,0.1-0.4,0.1
			c-0.1,0-0.2,0-0.4-0.1c-0.8,0-1.3-0.3-1.4-0.8c0.1-0.5,0.5-0.9,1-1.4c1.2-0.3,2.1-0.4,2.7-0.4C156,20.6,156.6,20.5,157.3,20.4
			L157.3,20.4z M176.1,31.4c-0.2,1.1-0.8,2.1-1.7,2.9c-1.4,1.7-3.2,3.1-5.4,4.4c-1,0.6-1.9,1.1-2.6,1.4c-0.6,0.2-1,0.3-1.3,0.3
			c-1.1,0-1.9-0.8-2.3-2.5c0-0.6,0.1-1,0.4-1.3c0.2-0.2,0.5-0.3,1-0.3c0.3,0,0.8,0.1,1.4,0.2c0.2,0,0.5,0.1,0.8,0.1
			c1.9,0,3.6-0.8,5.1-2.3c1-1,1.7-1.9,2.2-2.7c-0.9,0.2-1.5,0.3-1.9,0.4c0,0-0.2,0.1-0.4,0.1l-0.2,0.1c-0.4,0.1-0.6,0.2-0.7,0.2
			c-0.1,0-0.2,0-0.4-0.1c-0.4,0-0.7-0.2-1-0.5c-0.5-0.5-0.7-0.9-0.7-1.2c0-0.3,0.1-0.5,0.3-0.6c0.2-0.2,0.4-0.4,0.6-0.6
			c0.5-0.5,0.9-1.5,1-2.8c0-0.3,0-0.5,0-0.5c0-0.8-0.1-1.4-0.4-1.7c-0.2-0.2-0.4-0.6-0.5-1c0.1-0.8,0.8-1.2,1.8-1.2
			c0.2,0,0.5,0.1,0.8,0.2c0.1,0,0.1,0,0.2,0.1c0.4,0.1,0.8,0.3,1.2,0.3c0.9,0,1.9-0.1,3-0.2c1.9-0.1,3.1-0.2,3.5-0.2h1.8
			c1.5,0,2.5-0.2,3.2-0.6c0.2-0.1,0.4-0.2,0.6-0.2c0.1,0,0.2,0,0.3,0.1c0.5,0.1,0.9,0.4,1.4,0.9c0,0.2,0,0.3,0,0.3
			c0,0.3-0.1,0.5-0.4,0.9c-0.5,0.7-0.8,1.9-0.8,3.9c0,0.4,0.1,0.9,0.2,1.5c0,0.6-0.2,1.2-0.6,1.6c-0.4,0.4-0.9,0.6-1.4,0.6
			c-0.7,0-1.3-0.1-1.7-0.3h-1.3c-0.5,2.2-0.7,3.7-0.7,4.7c0,0.4,0.2,0.7,0.7,0.8c0.5,0.1,1.1,0.2,2,0.3c0.5,0,1.2,0.1,1.9,0.2
			c0.7,0.1,1.5,0.2,2.5,0.2c0.6,0.1,1,0.1,1.1,0.1c1.5,0,3.1-0.6,4.9-1.8c0.4,0,0.5,0.2,0.5,0.4c0,0.7-0.6,1.6-1.7,3
			c-1,1.2-1.6,1.8-1.8,2c-0.4,0.3-0.9,0.4-1.3,0.4c-0.4,0-1.4-0.2-2.7-0.7c-1.1-0.4-2.8-0.9-5-1.4h-1c-1.1,0-1.9-0.2-2.2-0.6
			c-0.6-0.7-0.9-1.3-0.9-1.9c0-0.3,0.1-0.6,0.4-1.2c0.2-0.4,0.3-0.9,0.3-1.5c0.2-0.7,0.3-1.7,0.5-2.9
			C178,31.1,177.1,31.2,176.1,31.4L176.1,31.4z M172,16.8h-0.9c-0.6,0.1-1.1,0.2-1.5,0.2c-0.8,0-1.2-0.3-1.3-0.8
			c0.1-0.5,0.5-0.9,0.9-1.4c0.5-0.1,1.3-0.2,2.3-0.2l2.7-0.2l2.7-0.2c0-0.3-0.3-0.6-0.8-0.8c-0.5-0.2-0.8-0.6-0.8-1.1
			c0.1-0.3,0.2-0.6,0.4-0.8c0.4-0.4,0.9-0.6,1.4-0.6c0.9,0,1.7,0.3,2.6,0.9c0.5,0.4,0.8,0.7,0.8,1.1c0,0.4-0.3,0.7-0.9,1
			c-0.1,0-0.3,0.1-0.5,0.3l-0.1,0c2.5,0,4.3-0.1,5.4-0.1c0.4,0,0.7,0,0.8,0c0.6,0,1.2,0.1,1.8,0.2c0.4,0.3,0.7,0.6,0.8,1
			c-0.1,0.6-0.6,0.9-1.6,0.9h-2.5c0,0.1-0.1,0.4-0.1,0.6c-0.1,0.5-0.2,1-0.3,1.7h3.8c2.3,0,3.5,0.4,3.5,1.3c0,0.4-0.2,0.7-0.7,0.8
			c-0.2,0-0.7,0.1-1.6,0.1h-2.1c-0.8,0-1.7,0-2.9,0.1c-1.5,0.1-3.3,0.2-5.5,0.2c-0.8,0-2.4,0.1-4.6,0.3c-2.6,0.2-4.2,0.4-4.9,0.5
			c-0.4,0.1-0.7,0.1-0.8,0.1c-0.9,0-1.4-0.5-1.5-1.4c0.2-0.5,0.5-0.8,1.1-1.1c0.9-0.1,1.7-0.2,2.5-0.2h3.3c-0.1-1-0.2-1.8-0.6-2.2
			c0-0.1-0.1-0.1-0.1-0.2C172.1,16.8,172.1,16.8,172,16.8L172,16.8L172,16.8z M183.7,27.8c-0.9-0.1-1.6-0.1-2.3-0.1
			c-2,0-5,0.2-9.1,0.7c0,0,0,0.1-0.1,0.2l0,0.2l0,0.2c0,0.2-0.1,0.3-0.1,0.3c0,0.5,0.1,0.8,0.4,0.8c0.1,0,0.2,0,0.4-0.1
			c3.5-0.3,6.1-0.4,8-0.4h2c0.5,0,0.7-0.2,0.7-0.6v-0.1c0-0.2,0-0.4,0-0.6C183.7,28,183.7,27.8,183.7,27.8L183.7,27.8z M172.5,26.4
			c0.5,0,1.1-0.1,1.8-0.2l0.8-0.1c0.9-0.1,1.5-0.1,2-0.1c0.3,0,1.1,0,2.4-0.1c0.7,0,1.3-0.1,1.7-0.1c1-0.1,1.6-0.2,1.8-0.2h0.9
			c0-0.2,0-0.4,0-0.6c0-0.1,0-0.2,0-0.3c0,0,0-0.1,0-0.1v0c0-0.2-0.4-0.4-1.1-0.4c-1.1-0.1-1.8-0.1-2.3-0.1c-0.5,0-1.2,0-2.2,0.1
			c-2,0-3.5,0.1-4.6,0.3c-0.7,0-1.1,0.3-1.1,0.8V26.4L172.5,26.4z M174.9,18.9h1.7c0.3,0,0.8,0,1.4-0.1c0.7-0.1,1.5-0.1,2.6-0.1
			c0-0.1,0-0.3,0.1-0.7l0-0.5c0.1-0.6,0.1-1.1,0.2-1.3c-1,0.1-2,0.2-2.9,0.2c-1.2,0-2.2,0.1-3.1,0.2v0.2c0,0,0,0.2,0,0.4
			c0,0,0,0.1,0.1,0.3c0,0.1,0,0.2,0,0.3C175,18.1,175,18.4,174.9,18.9z"/>
		<path d="M212.8,15.4c0-0.1,0-0.2,0-0.3V15c0-0.4-0.3-0.7-1.1-1c-0.4-0.2-0.7-0.5-0.7-0.9c0.2-1,0.9-1.5,2.1-1.5
			c0.7,0,1.4,0.2,2.3,0.5c0.9,0.7,1.3,1.2,1.3,1.6c0,0.4-0.4,0.7-1.1,0.9c-0.3,0.3-0.6,0.6-1,0.8c1.7-0.1,3.4-0.2,5-0.2
			c2.1,0,3.2,0.4,3.2,1.2c0,0.8-0.5,1.1-1.4,1.1h-2c-0.4,1.2-0.7,2.8-0.8,4.8h3.1c2.2,0,3.3,0.4,3.3,1.3c0,0.5-0.2,0.8-0.6,0.9
			c-0.2,0.1-0.9,0.1-1.9,0.1h-2.3c-0.8,0-1.8,0-2.9,0.1c-0.4,0-1.7,0.1-4,0.2c-1.7,0.1-3.3,0.2-4.9,0.4c-3.3,0.4-5.4,0.6-6.3,0.6
			c-0.8,0-1.3-0.5-1.4-1.4c0.4-1,1.8-1.5,4-1.5c0,0,0.2,0,0.4,0c0.3,0,0.7,0,1.3,0c0.6,0,1.3,0,2.2-0.1c0-2.3-0.3-3.8-0.9-4.4
			c-0.1-0.1-0.2-0.2-0.4-0.2c-0.6,0-1.3,0.1-2,0.2c-0.1,0-0.2,0-0.3,0c-0.7,0-1.2-0.4-1.3-1.3c0.2-0.5,0.6-0.9,1.2-1.2
			c0.9-0.1,1.9-0.2,3-0.2c0.7,0,2.1,0,4.1-0.1l0.9,0C212.7,15.5,212.8,15.4,212.8,15.4L212.8,15.4z M215.6,36.6h-1.8
			c-0.5,0-0.9,0-1.4,0.1c-0.2,0-0.4,0.1-0.7,0.1c-0.3,0-0.5,0.1-0.6,0.1c-0.3,0-0.7,0.1-1,0.1c-0.4,0-0.8,0.1-1.3,0.4l-0.1,0.1
			c-0.1,0.1-0.2,0.1-0.2,0.1c-0.2,0.1-0.4,0.2-0.6,0.2c-0.4,0.1-0.8,0.2-1.2,0.2c-0.3-0.3-0.5-0.6-0.6-1c0-0.1,0-0.2,0-0.4
			c0-0.2,0.1-0.5,0.1-0.9c0.1-0.4,0.1-0.8,0.1-1.2c0-2-0.3-3.3-0.9-3.9c-0.3-0.4-0.4-0.8-0.4-1.1c0-0.5,0.3-1,0.9-1.5
			c0.2-0.1,0.4-0.1,0.6-0.1c0.2,0,0.5,0,0.8,0.1h1.2c0.5,0,0.9,0,1.4-0.1c0.4-0.1,0.8-0.1,1.3-0.1c0.4,0,0.9,0,1.5-0.1
			c0.6-0.1,1.3-0.1,2-0.1h1.4c0.9,0,1.6-0.1,2-0.2c0.1-0.1,0.5-0.2,1.1-0.4c0.5,0,1,0.2,1.6,0.4c0.7,0.6,1.1,1.2,1.1,1.7
			c0,0.7-0.1,1.2-0.3,1.6c0,0.1-0.1,0.3-0.2,0.6c-0.1,0.1-0.1,0.3-0.2,0.4c-0.3,0.8-0.6,1.8-0.6,3.3c-0.1,1.4-0.7,2.1-1.7,2.1
			c-0.3,0-0.8-0.1-1.6-0.3H215.6L215.6,36.6z M217.3,34.3c0.3,0,0.6-0.3,0.7-0.9c0.3-1.1,0.4-2.1,0.4-3.1c0-0.4-0.3-0.6-0.9-0.8
			h-3.7c-0.7,0-2.2,0.1-4.5,0.4c-0.4,0.1-0.6,0.5-0.6,1c0,0.2,0,0.5,0,0.9c0,0.2,0,0.5,0.1,0.9c0,0.3,0,0.6,0,0.8
			c0,0.5,0.1,0.7,0.1,0.8c0,0.4,0.1,0.6,0.3,0.7c0.3,0,0.9-0.1,1.8-0.3c1.5-0.3,2.9-0.5,4.2-0.5L217.3,34.3L217.3,34.3z M210.4,17.9
			c0,0.4,0.1,0.9,0.1,1.5c0,0.7,0.1,1.2,0.1,1.5c0,0.4,0,1-0.1,1.7h1.1c0.1,0,1-0.1,2.6-0.2l0.9-0.1l0.9-0.1l0.6,0v-2.5
			c0-0.9,0-1.7,0.1-2.3c-1.6,0.1-3.4,0.2-5.3,0.2C211.1,17.9,210.7,17.9,210.4,17.9L210.4,17.9z M229.9,30.8
			c0.2,4.7,0.4,7.9,0.4,9.5c0,1.1-0.4,1.7-1.3,1.9c-1-0.2-1.5-0.9-1.5-2.1c0-0.2,0-0.6,0-1.2c0-0.6,0-1.8,0-3.8
			c0-1.5-0.1-3.7-0.2-6.6c0-3.6-0.1-5.8-0.2-6.7c-0.2-1.6-0.5-2.9-0.9-3.8c-0.3-0.6-0.5-1-0.5-1.5c0.3-1.3,0.9-1.9,1.8-1.9
			c0.7,0,1.2,0.3,1.6,1c1.9-0.4,3.8-0.6,5.7-0.6c2.8,0,4.7,0.3,5.7,0.9c0.7,0.5,1.1,1.2,1.1,2.3c0,0.7-0.6,1.5-1.7,2.5
			c-0.7,0.6-1.3,1-1.8,1.2c-0.1,0-0.3,0.1-0.7,0.3c-0.1,0-0.2,0.1-0.4,0.2c-0.1,0-0.1,0.1-0.2,0.1c0,0.4,0.5,0.9,1.4,1.4
			c0.9,0.9,1.4,1.8,1.4,2.5c0,0.1,0,0.2,0,0.3c0,0.2,0,0.4,0,0.5c0,1.1-0.5,1.9-1.6,2.6c-1.3,0.9-3,1.3-5.2,1.3
			C232.3,31.2,231.2,31.1,229.9,30.8L229.9,30.8z M229.6,17.8c0.1,2,0.1,3.9,0.1,5.6c0.2-0.3,0.7-0.4,1.3-0.4c1.8,0,3.2-0.4,4.1-1.1
			c1.9-1.4,2.9-2.5,2.9-3.2c0-0.2,0-0.4,0-0.5c0-0.5-0.2-0.9-0.7-1.1c-0.3-0.1-1.1-0.2-2.5-0.2s-3,0.2-4.6,0.5
			c-0.1,0.1-0.3,0.2-0.4,0.3C229.7,17.7,229.6,17.8,229.6,17.8L229.6,17.8z M229.7,25.3v1.4c0,0.9,0,1.6,0,2l0,0.3
			c0,0.2,0,0.4,0,0.5c0.6,0,1.1,0,1.4,0c1.7,0,3-0.2,4-0.7c1.3-0.3,2-0.9,2-2.1c0-0.5-0.3-1.1-0.9-1.8c-0.8-0.4-1.6-0.6-2.2-0.6
			c-1.2,0-2.1,0.1-2.9,0.4C230.6,25.1,230.1,25.2,229.7,25.3L229.7,25.3z"/>
	</g>
	<g>
		<path class="st1" d="M47.7,12.5c0.6-0.5,1-0.9,2.2-0.8c0.6,0.1,1.1,0.2,2,1.1l26.1,37.8h6.2c0.4-2.5,0.7-5,0.7-7.6
			C85,19.5,66,0.5,42.5,0.5C19,0.5,0,19.5,0,43c0,0.7,0,1.4,0.1,2.1L14.5,45c5.6-8.4,11.2-16.8,16.8-25.2c1-1,1.7-1.1,2.6-0.8
			l4.4,4.7L20.8,48.2l-20.5,0c0.1,0.7,0.2,1.4,0.3,2.1l22,0.1L47.7,12.5z"/>
		<path class="st2" d="M49.3,39.5L37.5,58L2.7,58c6.1,16.1,21.6,27.5,39.8,27.5c18,0,33.5-11.3,39.6-27.1H62.6L49.3,39.5z"/>
		<path class="st2" d="M71.5,53.4L49.8,22.9L29.3,53.6l-28-0.1c0.2,0.6,0.3,1.3,0.5,1.9l29-0.1l19.2-27.5l19,27.5h14.2
			c0.2-0.6,0.3-1.1,0.5-1.7L71.5,53.4z"/>
		<path class="st0" d="M38.3,23.7L33.9,19c-0.9-0.3-1.6-0.2-2.6,0.8C25.7,28.2,20.1,36.6,14.5,45L0.1,45.1c0,1,0.1,2,0.3,3l20.5,0
			L38.3,23.7z"/>
		<path class="st0" d="M50.1,27.7L30.8,55.2l-29,0.1c0.3,0.9,0.6,1.8,0.9,2.6l34.8,0l11.7-18.5l13.4,18.9h19.5
			c0.4-1.1,0.8-2.1,1.1-3.2H69.1L50.1,27.7z"/>
		<path class="st0" d="M49.8,22.9l21.7,30.6l12.2,0c0.2-0.9,0.4-1.9,0.6-2.8h-6.2L51.9,12.9c-0.9-0.9-1.4-1-2-1.1
			c-1.2-0.1-1.6,0.3-2.2,0.8L22.6,50.3l-22-0.1c0.2,1.1,0.4,2.2,0.7,3.3l28,0.1L49.8,22.9z"/>
	</g>
</g>
</svg>
