<?xml version="1.0" encoding="utf-8"?>
<!-- Generator: Adobe Illustrator 23.1.0, SVG Export Plug-In . SVG Version: 6.00 Build 0)  -->
<svg version="1.1" id="圖層_1" xmlns="http://www.w3.org/2000/svg" xmlns:xlink="http://www.w3.org/1999/xlink" x="0px" y="0px"
	 viewBox="0 0 152.5 44" style="enable-background:new 0 0 152.5 44;" xml:space="preserve">
<style type="text/css">
	.st0{fill:#0C512D;}
</style>
<g>
	<g>
		<g>
			<path class="st0" d="M97.6,0.3c0,0,0.9,2.1,3,2c2-0.1,2.6-1.7,1.5-1.6c-1.1,0.1-2.5,0.2-3.4-0.2C98.2,0.2,97.5-0.3,97.6,0.3z"/>
			<path class="st0" d="M99,5.9c-0.9,0.9-2,1.3-2.2,1.4c-0.5,0.2-0.3,1.5,0.9,1.2c1.2-0.3,2.3-1.3,2.7-1.6c0,1.2,0,4.6,0,4.6
				s0.1,1.4-1.6,2.2c-1.8,0.8-2.6,0.3-3.3,0.9c-0.7,0.6,0.6,2.8,2.7,1.2c2.1-1.5,3.2-2.2,3.2-4.2s0-6.7,0-6.7S100.9,4,99,5.9z"/>
			<path class="st0" d="M109.8,0.7c-0.8,0-1.9,0-3,0.7c-1.4,0.9-0.6,2,1.1,1c0.7-0.3,1.8-0.4,2.8-0.3c1,0,1.9-0.1,2.2-0.9
				C113.1,0.4,110.6,0.7,109.8,0.7z"/>
			<path class="st0" d="M104.4,5.8c-0.7,0.6-1.4,1.5-0.9,2c0.5,0.6,1.9-0.3,2.4-1c0.5-0.7,2-0.8,2.8-0.8v8.6c0,0-0.1,1.3,0.8,1.3
				c0.9,0,0.9-0.6,0.9-1.3c0-0.7,0-8.4,0-8.4s1.7,0,2,0.2c0.3,0.2,2,0.8,2.8-0.2c0.8-1,0.3-2.1-0.5-1.6c-1.1,0.6-3.5,0.3-5.1,0.3
				C108,4.9,105.5,5,104.4,5.8z"/>
		</g>
		<g>
			<path class="st0" d="M121.5,5.2c-0.8-0.1-2.4-0.6-2.9-0.1c-0.4,0.4-1.3,1.6,0.6,1.6c1.4,0,1.5-0.3,1.5-0.3l0,5.8l-1.4,0.4
				l-0.1-3.9c0,0-0.1-0.3-0.4-0.3c-0.3,0-0.7,0.1-0.7,0.7c0,0.6,0,3.3,0,3.3s-0.3,0.8-0.6,1c-0.6,0.4-0.7,2.2,1.4,1.1
				c1.8-1,3.2-0.9,4-1c0.8-0.1,1.9-1.5,1.2-1.9c-0.5-0.3-0.9,0.8-2.1,0.7c0-3.1,0-2.6,0-2.6s3-0.5,2.1-1.4c-0.4-0.4-0.6,0.5-2.1,0.4
				c0-2,0-2.5,0-2.5s0.7-0.1,1.7-0.1c1.1-0.1,1.7-1.2,0.4-1.1C122.7,5.1,122.4,5.3,121.5,5.2z"/>
			<path class="st0" d="M129.8,3.5c-1.2-1.1-1.8,1.3-2.3,2c-0.5,0.7-1.2,1.3-1.7,1.6c-1.2,0.5-0.9,2.1,0.7,1.1c1-0.8,1.7-1.1,3-1.1
				c1.3,0,3.6,0,3.6,0s0.4,0.1,0.4-0.5c0-0.7-1.8-0.5-2.2-0.4c-0.4,0-2.6-0.1-2.6-0.1s-0.4-0.1,0.3-0.6C129.7,5,130.4,4.1,129.8,3.5
				z"/>
			<path class="st0" d="M126.5,9c-0.4,0-1.5,0.5-0.5,1.1c1,0.5,3.5,2.1,4.7,3.4c1.3,1.3,1.6,2,3.1,1.9c1.5-0.1,1.7-0.5,2.2-0.9
				c0.4-0.4,0.3-0.9-0.5-0.9s-2.3,0-3.9-1.1c-1.5-1-4-3-4-3S127,8.9,126.5,9z"/>
			<path class="st0" d="M129.1,9.2c0,0.5,0,2.3-1.2,3.5c-1.3,1.3-3.3,0.7-3.2,1.7c0,1,2.4,1.2,3.4-0.3c1-1.5,2.2-3.6,2.4-4.8
				C130.8,7.9,129.2,7.4,129.1,9.2z"/>
		</g>
		<g>
			<path class="st0" d="M137.5,6.4c-0.1,1,0,6.8,0,6.8s-0.3,2.2,0.7,2.2c1,0,0.8-1.1,0.8-2.8c0-1,0-2.8,0-2.8s1.7,0.6,2.1-1.9
				c0.4-2.5,0.3-3.3-2-3.3c-1.3,0.1,0.4,0.6,0.6,1.6c0.2,0.8,0.4,2.7-0.3,2.7c-0.7,0-0.5-0.4-0.5-0.8c0-0.4,0.8-1.6,0-2.1
				C138.1,5.3,137.6,5.1,137.5,6.4z"/>
			<path class="st0" d="M151.4,12.4c-0.4,1-0.8,1.9-2.2,1.9c-1.3,0-1.9-0.3-2-1.2c0-0.7,0.1-1.4,0.4-1.7c0.3-0.4,0.4-0.9-0.2-1.1
				c-0.6-0.1-1-0.5-0.1-0.7c1-0.2,2.2-0.9,1.6-1.5c-0.3-0.4-0.9-0.4-0.6-0.8c0.3-0.3-0.1-1.5-1.4-0.9c-1.3,0.6-3.1,1.5-2.9,0.7
				c0.1-0.8,0.7-1.2,1.2-1.6c0.5-0.4,1.4-1.2,2.6-1.2c1.2,0,1.7,0.1,1,0.4c-0.7,0.3-1.6,0.8,0,0.8c2.3,0,3.1-2.1,1.3-2.1
				c-1.9,0-3.2,0.4-3.4,0c-0.2-0.4,0.1-1.3-2.1-1c-0.2,0-1,0.4-0.5,0.7c0.4,0.3,1,0.7,0.3,0.9c-0.6,0.2-2.7,1.2-2.5,2.6
				c0.1,1,1.5,1.1,1.7,1.1c0.2,0-0.1,0.5,1,0.4c1-0.1,4-0.7,2.5,0.3c-1.5,1-2.3,1-3.4,1c-1.2,0-1.6,0.2-1.7,0.9c0,0.7,1.4,0.8,2,0.6
				c-1.6,1.8-4,3.4-3.3,4.1c0.7,0.7,3.3-2,4.1-3.1c0.8-1.1,1.2-1.5,1.4-1.5c0.2,0.1,0.2,0.6,0.1,1.6c-0.1,0.9-0.1,3,2.3,3.1
				s3.6-0.3,3.8-1.7S151.8,11.4,151.4,12.4z M143,6.3c-0.3-0.3,0.6-1.1,1-1.4c0.7-0.5,0.9,0,0.4,0.5C144,5.8,143.3,6.6,143,6.3z"/>
		</g>
	</g>
	<path class="st0" d="M48.5,4h-3.4v0.7h3.4V4z M78.8,23.9V9.9h-1.3v-2H65.2v2H52.4V8.2H49V25h3.3v-0.5h28.8v-0.5
		C81.1,23.9,78.8,23.9,78.8,23.9z M49.3,11.5h1.2v2.8h-1.2V11.5z M50.6,22.9h-1.2v-3.5h1.2V22.9z M50.6,18.1h-1.2v-2.8h1.2V18.1z
		 M50.9,11.5h1.2v2.8h-1.2V11.5z M52.1,22.9h-1.2v-3.5h1.2V22.9z M52.1,18.1h-1.2v-2.8h1.2V18.1z M53,11.5h1.2v2.8H53V11.5z
		 M54.3,22.9h-1.2v-3.5h1.2V22.9z M54.3,18.1h-1.2v-2.8h1.2V18.1z M54.6,11.5h1.2v2.8h-1.2V11.5z M55.8,22.9h-1.2v-3.5h1.2V22.9z
		 M55.8,18.1h-1.2v-2.8h1.2V18.1z M56.7,11.5H58v2.8h-1.2V11.5z M58,22.9h-1.2v-3.5H58V22.9z M58,18.1h-1.2v-2.8H58V18.1z
		 M58.3,11.5h1.2v2.8h-1.2V11.5z M59.5,22.9h-1.2v-3.5h1.2L59.5,22.9L59.5,22.9z M59.5,18.1h-1.2v-2.8h1.2L59.5,18.1L59.5,18.1z
		 M60.5,11.5h1.2v2.8h-1.2V11.5z M61.7,22.9h-1.2v-3.5h1.2V22.9z M61.7,18.1h-1.2v-2.8h1.2V18.1z M62,11.5h1.2v2.8H62V11.5z
		 M63.3,22.9H62v-3.5h1.2V22.9z M63.3,18.1H62v-2.8h1.2V18.1z M64.2,11.5h1.2v2.8h-1.2V11.5z M65.4,22.9h-1.2v-3.5h1.2V22.9z
		 M65.4,18.1h-1.2v-2.8h1.2V18.1z M65.7,11.5h1.2v2.8h-1.2V11.5z M67,22.9h-1.2v-3.5H67V22.9z M67,18.1h-1.2v-2.8H67V18.1z
		 M67.9,11.5h1.2v2.8h-1.2V11.5z M69.1,22.9h-1.2v-3.5h1.2V22.9z M69.1,18.1h-1.2v-2.8h1.2V18.1z M69.4,11.5h1.2v2.8h-1.2V11.5z
		 M70.7,22.9h-1.2v-3.5h1.2V22.9z M70.7,18.1h-1.2v-2.8h1.2V18.1z M71.6,11.5h1.2v2.8h-1.2V11.5z M72.8,18.1h-1.2v-2.8h1.2V18.1z
		 M73.1,11.5h1.2v2.8h-1.2V11.5z M74.4,18.1h-1.2v-2.8h1.2C74.4,15.3,74.4,18.1,74.4,18.1z M76.5,22.9h-1.2v-3.5h1.2V22.9z
		 M76.5,18.3h-1.2v-2.8h1.2V18.3z M76.5,14.3h-1.2v-2.8h1.2V14.3z M36.1,4h-3.4v0.7h3.4V4z M77.7,7.3H65v0.3h12.8
		C77.7,7.7,77.7,7.3,77.7,7.3z M28.8,25.5h23.5v-0.3H28.8V25.5z M32.3,25h3.4v-6.1h0v0h0.7V6.6h8.3v0.1h0v12.1h0.7v0h0.1V25h3.4V8.1
		h3.9V7.7h-3.9V4.8h-4.2v1.5h-8.3V4.8h-4.1v2.7h0v0.3h-3.9v0.3h3.9C32.3,8.1,32.3,25,32.3,25z M46.3,8.5h1.2v2.2h-1.2V8.5z
		 M46.3,11.5h1.2v2.8h-1.2V11.5z M46.3,15.3h1.2v2.8h-1.2V15.3z M46.3,19.4h1.2v3.5h-1.2V19.4z M33.8,8.5H35v2.2h-1.2V8.5z
		 M33.8,11.5H35v2.8h-1.2V11.5z M33.8,15.3H35v2.8h-1.2V15.3z M33.8,19.4H35v3.5h-1.2V19.4z M32.2,25V8.2h-3.4v1.7H15.9v-2H3.6v2
		H2.3v14.1H0v0.5h28.8V25C28.8,25,32.2,25,32.2,25z M5.8,22.9H4.6v-3.5h1.2V22.9z M5.8,18.3H4.6v-2.8h1.2V18.3z M5.8,14.3H4.6v-2.8
		h1.2V14.3z M7.9,18.1H6.7v-2.8h1.2V18.1z M7.9,14.4H6.7v-2.8h1.2V14.4z M9.5,18.1H8.2v-2.8h1.2L9.5,18.1L9.5,18.1z M9.5,14.4H8.2
		v-2.8h1.2L9.5,14.4L9.5,14.4z M11.6,22.9h-1.2v-3.5h1.2C11.6,19.4,11.6,22.9,11.6,22.9z M11.6,18.1h-1.2v-2.8h1.2
		C11.6,15.3,11.6,18.1,11.6,18.1z M11.6,14.4h-1.2v-2.8h1.2C11.6,11.5,11.6,14.4,11.6,14.4z M13.2,22.9H12v-3.5h1.2V22.9z
		 M13.2,18.1H12v-2.8h1.2V18.1z M13.2,14.4H12v-2.8h1.2V14.4z M15.3,22.9h-1.2v-3.5h1.2V22.9z M15.3,18.1h-1.2v-2.8h1.2V18.1z
		 M15.3,14.4h-1.2v-2.8h1.2V14.4z M16.9,22.9h-1.2v-3.5h1.2V22.9z M16.9,18.1h-1.2v-2.8h1.2V18.1z M16.9,14.4h-1.2v-2.8h1.2V14.4z
		 M19,22.9h-1.2v-3.5H19V22.9z M19,18.1h-1.2v-2.8H19V18.1z M19,14.4h-1.2v-2.8H19V14.4z M20.6,22.9h-1.2v-3.5h1.2V22.9z M20.6,18.1
		h-1.2v-2.8h1.2V18.1z M20.6,14.4h-1.2v-2.8h1.2V14.4z M22.8,22.9h-1.2v-3.5h1.2V22.9z M22.8,18.1h-1.2v-2.8h1.2V18.1z M22.8,14.4
		h-1.2v-2.8h1.2V14.4z M24.3,22.9h-1.2v-3.5h1.2V22.9z M24.3,18.1h-1.2v-2.8h1.2V18.1z M24.3,14.4h-1.2v-2.8h1.2V14.4z M26.5,22.9
		h-1.2v-3.5h1.2V22.9z M26.5,18.1h-1.2v-2.8h1.2V18.1z M26.5,14.4h-1.2v-2.8h1.2V14.4z M28,22.9h-1.2v-3.5H28V22.9z M28,18.1h-1.2
		v-2.8H28V18.1z M28,14.4h-1.2v-2.8H28V14.4z M30.5,11.5h1.2v2.8h-1.2V11.5z M30.5,15.3h1.2v2.8h-1.2V15.3z M30.5,19.4h1.2v3.5h-1.2
		V19.4z M29,11.5h1.2v2.8H29V11.5z M29,15.3h1.2v2.8H29V15.3z M29,19.4h1.2v3.5H29V19.4z M16.1,7.3H3.4v0.3h12.8V7.3z M45.2,25v-4
		h-9.3v4h0.3v-3.6h2.2V25h0.5v-3.6h3.6V25h0.4v-3.6h2.2V25H45.2z M45.2,19.1h-9.3v1.8h9.3V19.1z M36.5,6.7v12.1h8.1V6.7H36.5z
		 M36.9,8.6h2.1v3.2h-2.1V8.6z M39.1,18.2H37v-5.6h2.1V18.2z M41.6,18.2h-2.1v-5.6h2.1V18.2z M41.7,11.8h-2.1V8.6h2.1V11.8z
		 M44.1,18.2H42v-5.6h2.1V18.2z M44.2,11.8h-2.1V8.6h2.1V11.8z"/>
	<g>
		<path class="st0" d="M100.7,19.4v0.8h-3.2v1.6h3v0.8h-3v1.8h3.3v0.9h-4.3v-5.9L100.7,19.4L100.7,19.4z"/>
		<path class="st0" d="M103.9,23.1l1.5,2.1h-1.2l-0.9-1.3l-0.9,1.3h-1.2l1.5-2.1l-1.5-2.2h1.2l0.9,1.3l0.9-1.3h1.2L103.9,23.1z"/>
		<path class="st0" d="M106.6,23.4c0,0.2,0.1,0.3,0.1,0.4c0.1,0.1,0.1,0.3,0.2,0.4c0.1,0.1,0.2,0.2,0.3,0.3c0.1,0.1,0.2,0.1,0.4,0.1
			c0.2,0,0.4-0.1,0.6-0.2c0.2-0.1,0.3-0.3,0.4-0.6h0.9c-0.1,0.3-0.1,0.5-0.3,0.7c-0.1,0.2-0.3,0.4-0.4,0.5c-0.2,0.1-0.4,0.2-0.6,0.3
			c-0.2,0.1-0.4,0.1-0.6,0.1c-0.3,0-0.6-0.1-0.8-0.2s-0.5-0.3-0.6-0.5c-0.2-0.2-0.3-0.5-0.4-0.7c-0.1-0.3-0.1-0.6-0.1-0.9
			c0-0.3,0-0.6,0.1-0.8s0.2-0.5,0.4-0.7c0.2-0.2,0.4-0.4,0.6-0.5c0.2-0.1,0.5-0.2,0.8-0.2c0.3,0,0.6,0.1,0.8,0.2
			c0.2,0.1,0.4,0.3,0.6,0.4c0.2,0.2,0.3,0.4,0.4,0.7c0.1,0.3,0.1,0.5,0.1,0.8v0.4C109.6,23.4,106.6,23.4,106.6,23.4z M108.5,22.6
			c0-0.1-0.1-0.3-0.1-0.4s-0.1-0.2-0.2-0.3c-0.1-0.1-0.2-0.1-0.3-0.2c-0.1,0-0.2-0.1-0.4-0.1c-0.1,0-0.2,0-0.4,0.1
			c-0.1,0-0.2,0.1-0.3,0.2c-0.1,0.1-0.2,0.2-0.2,0.3s-0.1,0.2-0.1,0.4H108.5z"/>
		<path class="st0" d="M112.8,22.5c-0.1-0.3-0.2-0.5-0.3-0.6c-0.1-0.1-0.3-0.2-0.5-0.2c-0.2,0-0.3,0-0.4,0.1s-0.2,0.2-0.3,0.3
			c-0.1,0.1-0.1,0.3-0.2,0.4c0,0.2-0.1,0.3-0.1,0.5c0,0.2,0,0.4,0.1,0.5c0,0.2,0.1,0.3,0.2,0.5s0.2,0.3,0.3,0.3
			c0.1,0.1,0.2,0.1,0.4,0.1c0.1,0,0.2,0,0.3-0.1c0.1-0.1,0.2-0.1,0.2-0.2c0.1-0.1,0.1-0.2,0.2-0.3c0-0.1,0.1-0.2,0.1-0.4h1
			c0,0.3-0.1,0.5-0.2,0.7c-0.1,0.2-0.2,0.4-0.4,0.6c-0.2,0.2-0.3,0.3-0.6,0.4c-0.2,0.1-0.5,0.1-0.7,0.1c-0.2,0-0.4,0-0.6-0.1
			c-0.2-0.1-0.3-0.1-0.5-0.3c-0.1-0.1-0.3-0.2-0.4-0.4c-0.1-0.1-0.2-0.3-0.3-0.5c-0.1-0.2-0.1-0.3-0.2-0.5s-0.1-0.4-0.1-0.6
			c0-0.3,0-0.6,0.1-0.9c0.1-0.3,0.2-0.5,0.4-0.7c0.2-0.2,0.4-0.3,0.6-0.5c0.2-0.1,0.5-0.2,0.8-0.2c0.3,0,0.5,0,0.7,0.1
			c0.2,0.1,0.4,0.2,0.5,0.3c0.2,0.1,0.3,0.3,0.4,0.5s0.2,0.4,0.2,0.6L112.8,22.5L112.8,22.5z"/>
		<path class="st0" d="M118.2,25.3h-1v-0.5c-0.1,0.1-0.2,0.2-0.3,0.3c-0.1,0.1-0.2,0.1-0.3,0.2c-0.1,0-0.2,0.1-0.3,0.1
			c-0.1,0-0.2,0-0.3,0c-0.2,0-0.4,0-0.6-0.1c-0.2-0.1-0.3-0.2-0.4-0.3c-0.1-0.1-0.2-0.3-0.3-0.4c-0.1-0.2-0.1-0.4-0.1-0.6v-3h1v2.9
			c0,0.1,0,0.2,0,0.3c0,0.1,0.1,0.1,0.1,0.2c0.1,0,0.1,0.1,0.2,0.1s0.1,0,0.2,0c0.1,0,0.3,0,0.4-0.1c0.1-0.1,0.2-0.1,0.3-0.2
			c0.1-0.1,0.2-0.2,0.2-0.4c0.1-0.1,0.1-0.3,0.1-0.4V21h1L118.2,25.3L118.2,25.3z"/>
		<path class="st0" d="M120.4,19.8V21h0.8v0.8h-0.8v2.3c0,0.1,0,0.2,0.1,0.3c0.1,0.1,0.1,0.1,0.2,0.1c0,0,0.1,0,0.2,0
			c0.1,0,0.2,0,0.4-0.1v0.8c-0.2,0.1-0.3,0.1-0.5,0.1c-0.2,0-0.3,0-0.4,0c-0.1,0-0.3,0-0.4-0.1c-0.1-0.1-0.2-0.1-0.3-0.2
			c-0.1-0.1-0.2-0.2-0.2-0.4c-0.1-0.1-0.1-0.3-0.1-0.5v-2.4h-0.6V21h0.6v-1.2L120.4,19.8L120.4,19.8z"/>
		<path class="st0" d="M122.9,19.4v1h-1v-1H122.9z M122.9,21v4.3h-1V21H122.9z"/>
		<path class="st0" d="M125.4,23.9l1-2.9h1l-1.6,4.3h-0.9l-1.6-4.3h1L125.4,23.9z"/>
		<path class="st0" d="M128.6,23.4c0,0.2,0.1,0.3,0.1,0.4c0.1,0.1,0.1,0.3,0.2,0.4c0.1,0.1,0.2,0.2,0.3,0.3c0.1,0.1,0.2,0.1,0.4,0.1
			c0.2,0,0.4-0.1,0.6-0.2c0.2-0.1,0.3-0.3,0.4-0.6h0.9c-0.1,0.3-0.1,0.5-0.3,0.7s-0.3,0.4-0.4,0.5c-0.2,0.1-0.4,0.2-0.6,0.3
			c-0.2,0.1-0.4,0.1-0.6,0.1c-0.3,0-0.6-0.1-0.8-0.2c-0.2-0.1-0.5-0.3-0.6-0.5c-0.2-0.2-0.3-0.5-0.4-0.7c-0.1-0.3-0.1-0.6-0.1-0.9
			c0-0.3,0-0.6,0.1-0.8c0.1-0.3,0.2-0.5,0.4-0.7c0.2-0.2,0.4-0.4,0.6-0.5c0.2-0.1,0.5-0.2,0.8-0.2c0.3,0,0.6,0.1,0.8,0.2
			c0.2,0.1,0.4,0.3,0.6,0.4c0.2,0.2,0.3,0.4,0.4,0.7c0.1,0.3,0.1,0.5,0.1,0.8v0.4C131.6,23.4,128.6,23.4,128.6,23.4z M130.6,22.6
			c0-0.1-0.1-0.3-0.1-0.4s-0.1-0.2-0.2-0.3s-0.2-0.1-0.3-0.2c-0.1,0-0.2-0.1-0.4-0.1c-0.1,0-0.2,0-0.4,0.1c-0.1,0-0.2,0.1-0.3,0.2
			c-0.1,0.1-0.2,0.2-0.2,0.3s-0.1,0.2-0.1,0.4H130.6z"/>
		<path class="st0" d="M136.6,22l1.5-2.6h1.1l-2.1,3.6v2.3h-1v-2.3l-2.1-3.6h1.1L136.6,22z"/>
		<path class="st0" d="M143.4,25.3h-1v-0.5c-0.1,0.1-0.2,0.2-0.3,0.3c-0.1,0.1-0.2,0.1-0.3,0.2c-0.1,0-0.2,0.1-0.3,0.1s-0.2,0-0.3,0
			c-0.2,0-0.4,0-0.6-0.1c-0.2-0.1-0.3-0.2-0.4-0.3c-0.1-0.1-0.2-0.3-0.3-0.4c-0.1-0.2-0.1-0.4-0.1-0.6v-3h1v2.9c0,0.1,0,0.2,0,0.3
			c0,0.1,0.1,0.1,0.1,0.2c0.1,0,0.1,0.1,0.2,0.1s0.1,0,0.2,0c0.1,0,0.3,0,0.4-0.1c0.1-0.1,0.2-0.1,0.3-0.2c0.1-0.1,0.2-0.2,0.2-0.4
			c0.1-0.1,0.1-0.3,0.1-0.4V21h1V25.3z"/>
		<path class="st0" d="M148.3,25.2c-0.1,0.1-0.2,0.1-0.2,0.1c-0.1,0-0.1,0-0.2,0.1s-0.1,0-0.1,0c0,0-0.1,0-0.1,0
			c-0.1,0-0.2,0-0.3-0.1c-0.1,0-0.2-0.1-0.2-0.1c-0.1-0.1-0.1-0.1-0.2-0.2c0-0.1-0.1-0.2-0.1-0.3c-0.1,0.1-0.2,0.2-0.4,0.3
			c-0.1,0.1-0.2,0.2-0.3,0.2c-0.1,0.1-0.2,0.1-0.3,0.1c-0.1,0-0.2,0-0.3,0c-0.2,0-0.4,0-0.5-0.1c-0.2-0.1-0.3-0.1-0.4-0.3
			c-0.1-0.1-0.2-0.2-0.3-0.4c-0.1-0.2-0.1-0.3-0.1-0.5c0-0.2,0-0.3,0.1-0.4c0.1-0.1,0.2-0.2,0.3-0.3c0.1-0.1,0.3-0.2,0.4-0.2
			c0.2-0.1,0.3-0.1,0.5-0.2c0.2-0.1,0.3-0.1,0.5-0.1c0.2,0,0.3-0.1,0.4-0.2c0.1-0.1,0.2-0.1,0.3-0.2s0.1-0.1,0.1-0.2s0-0.2-0.1-0.2
			c0-0.1-0.1-0.1-0.2-0.1c-0.1,0-0.1-0.1-0.2-0.1c-0.1,0-0.2,0-0.3,0s-0.2,0-0.3,0c-0.1,0-0.2,0.1-0.2,0.1c-0.1,0.1-0.1,0.1-0.2,0.2
			c0,0.1-0.1,0.2-0.1,0.3h-1c0-0.2,0.1-0.5,0.2-0.6s0.2-0.3,0.4-0.5c0.2-0.1,0.3-0.2,0.6-0.3c0.2-0.1,0.4-0.1,0.6-0.1
			c0.2,0,0.5,0,0.7,0.1c0.2,0.1,0.4,0.1,0.6,0.2s0.3,0.2,0.4,0.4c0.1,0.2,0.1,0.4,0.1,0.6v2.1c0,0.1,0,0.1,0.1,0.2
			c0,0,0.1,0.1,0.2,0.1c0,0,0,0,0.1,0c0.1,0,0.1,0,0.2-0.1L148.3,25.2L148.3,25.2z M146.8,23.2c-0.1,0-0.1,0.1-0.3,0.1
			c-0.1,0-0.2,0.1-0.3,0.1c-0.1,0-0.2,0.1-0.4,0.1c-0.1,0-0.2,0.1-0.3,0.1c-0.1,0-0.2,0.1-0.2,0.2s-0.1,0.1-0.1,0.2
			c0,0.1,0,0.2,0,0.2c0,0.1,0.1,0.1,0.1,0.2c0,0,0.1,0.1,0.2,0.1c0.1,0,0.1,0,0.2,0c0.2,0,0.4-0.1,0.6-0.2c0.2-0.1,0.4-0.3,0.5-0.6
			V23.2z"/>
		<path class="st0" d="M148.8,21h1v0.5c0.2-0.2,0.4-0.4,0.6-0.5s0.4-0.1,0.6-0.1c0.2,0,0.4,0,0.6,0.1c0.2,0.1,0.3,0.2,0.4,0.3
			s0.2,0.3,0.3,0.4c0.1,0.2,0.1,0.4,0.1,0.6v3h-1v-2.9c0-0.1,0-0.2,0-0.3c0-0.1-0.1-0.2-0.1-0.2s-0.1-0.1-0.2-0.1
			c-0.1,0-0.1,0-0.2,0c-0.1,0-0.3,0-0.4,0.1c-0.1,0.1-0.2,0.1-0.3,0.2c-0.1,0.1-0.2,0.2-0.2,0.3c-0.1,0.1-0.1,0.2-0.1,0.4v2.6h-1
			L148.8,21L148.8,21z"/>
	</g>
</g>
<g>
	<path class="st0" d="M2.6,35.6c0.8,1.1,1.2,2.2,1.2,3.4c0,0.4-0.1,0.8-0.3,1.1S2.8,40.5,2,40.5c-0.2,0-0.4,0-0.6,0l-0.3-0.8l0.8,0
		c0.5,0,0.7-0.1,0.9-0.2C3,39.4,3.1,39.3,3.1,39c0-1.1-0.4-2.2-1.3-3.3c0.3-1,0.7-2.2,1.1-3.6H0.8V44H0V31.3h3.7v0.8
		C3.4,33.2,3,34.4,2.6,35.6z M12.5,41c0,0.8-0.1,1.4-0.2,1.8c-0.1,0.4-0.3,0.7-0.5,0.8c-0.2,0.1-0.7,0.2-1.4,0.2
		c-0.8,0-1.3-0.3-1.3-0.9v-4.6H7.4C7.3,40,7,41.2,6.4,42c-0.6,0.8-1.4,1.4-2.6,1.9l-0.6-0.7c1.1-0.4,1.9-1,2.5-1.8
		c0.6-0.8,0.9-1.8,0.9-3.2H4.4v-0.7h7.8v0.7H9.9v4.4c0,0.1,0,0.2,0.1,0.2c0.1,0.1,0.3,0.1,0.7,0.1c0.3,0,0.5,0,0.7-0.1
		c0.1,0,0.2-0.1,0.2-0.2c0.1-0.1,0.1-0.3,0.1-0.7c0-0.4,0.1-0.8,0.1-1.3L12.5,41z M12.2,35.4h-0.8v-2.2H5.1v2.2H4.4v-3h3.4
		c-0.1-0.4-0.3-0.8-0.5-1.4l0.8-0.2c0.2,0.5,0.4,1,0.6,1.6h3.5V35.4z M10.8,35.7H5.8V35h5.1V35.7z"/>
	<path class="st0" d="M28,43.6H17.6c-0.4,0-0.8-0.1-1.1-0.4c-0.3-0.3-0.4-0.7-0.4-1.1v-10h-0.9v-0.8h12.6v0.8H16.8v10
		c0,0.2,0.1,0.4,0.3,0.6c0.2,0.2,0.4,0.2,0.5,0.2H28V43.6z M21.8,41.5h-3.9v-3.7h3.9V41.5z M21,40.8v-2.3h-2.3v2.3H21z M25.3,36.5
		h-6v-3.2h6V36.5z M24.5,35.8V34H20v1.7H24.5z M27,41.5h-3.8v-3.7H27V41.5z M26.2,40.8v-2.3h-2.3v2.3H26.2z"/>
	<path class="st0" d="M36.5,35.8h-4.4v8.1h-0.8V31.4h5.1V35.8z M35.7,33.2v-1.1h-3.6v1.1H35.7z M35.7,35.1v-1.2h-3.6v1.2H35.7z
		 M41.4,40.1h-2.3v3.5h-0.8v-3.5h-2.3c-0.1,1.4-0.7,2.6-1.8,3.6l-0.7-0.4c1.2-1,1.8-2,1.8-3.1h-2.4v-0.7h2.5v-1.7h-2v-0.7h7.4v0.7
		h-1.8v1.7h2.3V40.1z M38.3,39.3v-1.7h-2.2v1.7H38.3z M43,42.8c0,0.4-0.1,0.7-0.4,0.8c-0.2,0.2-0.7,0.2-1.3,0.2c-0.3,0-0.5,0-0.8,0
		l-0.3-0.8c0.2,0,0.8,0.1,1.6,0.1c0.2,0,0.3-0.1,0.3-0.3v-7h-4.3v-4.4H43V42.8z M42.2,33.2v-1.1h-3.5v1.1H42.2z M42.2,35.1v-1.2
		h-3.5v1.2H42.2z"/>
	<path class="st0" d="M52.4,34h-3.7c0,0.6,0,1.4,0,2.1h3c0,1.8,0,3.4-0.1,4.7c-0.1,1.3-0.2,2.1-0.3,2.3c-0.1,0.2-0.3,0.4-0.5,0.5
		c-0.2,0.1-0.6,0.2-1.2,0.2c-0.2,0-0.4,0-0.7,0l-0.3-0.8c0.4,0,0.7,0,1,0c0.4,0,0.7,0,0.8-0.1c0.1-0.1,0.2-0.2,0.2-0.4
		c0-0.1,0.1-0.9,0.2-2.2c0.1-1.4,0.1-2.5,0.1-3.5h-2.2c-0.1,2.7-0.7,5-1.7,7.1l-0.7-0.5c0.5-0.9,0.8-1.8,1.1-2.8
		c0.3-1,0.4-2,0.5-3.2c0.1-1.2,0.1-2.3,0.1-3.5h-1.7v-0.7h2.9c-0.2-0.6-0.5-1.3-0.9-2L49,31c0.3,0.6,0.6,1.3,0.9,2.3h2.4V34z
		 M59.2,43.3L58.7,44c-1.3-0.7-2.4-1.5-3.2-2.4c-0.7,0.8-1.7,1.6-3,2.4L52,43.4c1.4-0.8,2.4-1.7,3-2.5c-0.6-1-1.1-2.1-1.4-3.4
		l0.8-0.2c0.3,1.1,0.6,2.1,1.1,2.9c0.9-1.4,1.4-3.5,1.5-6.2h-2.6c-0.4,1.4-1,2.8-1.8,4l-0.7-0.4c1.2-1.8,1.9-4,2.3-6.7l0.8,0.2
		c-0.1,0.9-0.3,1.7-0.5,2.2h4.4V34h-1.3c-0.2,2.9-0.8,5.2-1.9,6.9C56.8,41.8,57.8,42.6,59.2,43.3z"/>
	<path class="st0" d="M74.9,38.6l-0.3,0.7c-2.5-0.3-4.6-1.1-6.3-2.4c-1.8,1.1-3.8,1.9-6,2.3l-0.5-0.7c2.6-0.4,4.8-1.3,6.6-2.6
		l0.6,0.2l-0.1-0.4c0.8-0.6,1.4-1.3,1.8-2.2l0.7,0.3c-0.3,0.5-0.7,1.1-1.2,1.7c1.2-0.1,2.2-0.2,3-0.4c-0.2-0.3-0.4-0.5-0.7-0.8
		l0.6-0.4c0.6,0.6,1.1,1.3,1.6,2.2L74,36.5c-0.1-0.2-0.2-0.4-0.4-0.7c-1.8,0.3-3.3,0.4-4.5,0.5c-0.1,0.1-0.1,0.1-0.2,0.1
		C70.6,37.5,72.6,38.2,74.9,38.6z M67.8,35.8l-0.6,0.5C67.1,36.1,67,36,67,35.9c-1,0.2-2.6,0.5-4.6,0.8L62.1,36
		c0.8-0.6,1.5-1.3,2.1-2.2l0.8,0.2c-0.4,0.7-0.9,1.3-1.6,1.9c0.8-0.1,1.8-0.3,3-0.5c-0.2-0.3-0.4-0.5-0.6-0.7l0.6-0.5
		C66.9,34.5,67.3,35,67.8,35.8z M73.3,40.5c-2.2,2.1-5.3,3.3-9.4,3.6l-0.5-0.8c3.9-0.2,6.9-1.2,9.2-3.2L73.3,40.5z M69.3,38.3
		c-1.5,1.1-3.3,1.8-5.4,2.2l-0.5-0.7c2.1-0.3,3.8-1,5.1-1.9L69.3,38.3z M71.2,39.4c-2,1.5-4.4,2.4-7.3,2.8l-0.5-0.7
		c2.9-0.3,5.2-1.1,7-2.5L71.2,39.4z M72.4,33.1l-0.6,0.5c-0.2-0.3-0.4-0.5-0.6-0.6c-1.6,0.3-3.7,0.5-6.3,0.6l-0.2-0.7
		c1-0.5,1.9-1.2,2.7-2l0.9,0.2c-0.6,0.7-1.3,1.2-2,1.7c1.6-0.1,3.1-0.2,4.3-0.4c-0.2-0.3-0.5-0.5-0.7-0.7l0.6-0.5
		C71.2,31.7,71.8,32.4,72.4,33.1z"/>
	<path class="st0" d="M84.3,38.1h-2.2v1h2v0.7h-2v1h2v0.7h-2v1h2v0.7h-4.9v0.7l-0.7,0v-5.1c-0.2,0.3-0.5,0.7-0.8,1l-0.4-0.6
		c0.7-0.7,1.3-1.6,1.8-2.7l0.6,0.3c-0.1,0.2-0.2,0.4-0.3,0.7h1.7c-0.1-0.3-0.2-0.5-0.3-0.6l0.7-0.2c0.1,0.2,0.3,0.5,0.4,0.9h2.3
		V38.1z M80.2,33.5h-0.7v-0.7h-2.1v-0.7h2.1V31h0.7V33.5z M80.6,36.2h-2.7v-2.3h2.7V36.2z M79.8,35.6v-1.1h-1.3v1.1H79.8z
		 M81.4,39.1v-1h-2.1v1H81.4z M81.4,40.8v-1h-2.1v1H81.4z M81.4,42.5v-1h-2.1v1H81.4z M84.1,36.2h-2.7v-2.3h2.7V36.2z M84.4,32.8
		h-1.9v0.7h-0.7V31h0.7v1.2h1.9V32.8z M83.4,35.6v-1.1h-1.3v1.1H83.4z M90.4,41.3c-0.1,1.2-0.2,1.9-0.4,2.1
		c-0.2,0.2-0.5,0.4-1.1,0.4c-0.7,0-1.1-0.3-1.1-0.8v-3.4h-0.9c0,1.9-0.7,3.4-2.1,4.5l-0.6-0.5c0.8-0.7,1.3-1.3,1.5-1.9
		c0.2-0.6,0.4-1.3,0.4-2.1h-1.2v-8.3h4.7v8.3h-1.1v3.2c0,0.2,0.1,0.3,0.4,0.3c0.3,0,0.4-0.1,0.5-0.2c0.1-0.1,0.1-0.8,0.2-1.8
		L90.4,41.3z M88.9,33.8V32h-3.3v1.8H88.9z M88.9,36.3v-1.8h-3.3v1.8H88.9z M88.9,38.9V37h-3.3v1.9H88.9z"/>
	<path class="st0" d="M94.5,40.5c-0.2,1.2-0.4,2.4-0.8,3.5L93,43.7c0.4-0.9,0.7-2,0.9-3.3L94.5,40.5z M98.2,39.5l-0.7,0.2
		c-0.1-0.3-0.1-0.6-0.2-0.8c-1.5,0.4-2.8,0.7-3.9,0.9L93.1,39c1.1-1,2-2.1,2.8-3.4c-1.3,0.2-2.1,0.3-2.5,0.4l-0.2-0.7
		c0.9-1.1,1.7-2.6,2.4-4.3l0.7,0.2c-0.5,1.4-1.2,2.7-2.1,3.9c0.7-0.1,1.4-0.2,2.1-0.3c0.4-0.6,0.7-1.3,1-1.9l0.7,0.3
		c-1.3,2.5-2.5,4.4-3.8,5.7c0.8-0.1,1.7-0.3,2.8-0.7c-0.1-0.4-0.3-0.7-0.4-1l0.7-0.2C97.6,37.8,98,38.6,98.2,39.5z M96.4,43.4
		l-0.8,0.1c0-1-0.2-2-0.4-3.1l0.7-0.1C96.2,41.3,96.3,42.3,96.4,43.4z M98.1,42.7L97.4,43c-0.1-0.7-0.3-1.6-0.6-2.7l0.7-0.2
		C97.8,41,98,41.9,98.1,42.7z M105.6,42.9c0,0.3-0.1,0.5-0.3,0.7c-0.2,0.2-0.4,0.3-0.6,0.4c-0.2,0-0.7,0.1-1.3,0l-0.3-0.8
		c0.3,0,0.6,0,0.8,0c0.4,0,0.7,0,0.8-0.1c0.1-0.1,0.1-0.2,0.1-0.3V32.1h-5.6v11.8h-0.8V31.4h7.1V42.9z M104.5,35.8h-4.8v-0.7h1.2
		c-0.2-0.6-0.4-1.2-0.7-1.9l0.7-0.3c0.3,0.7,0.6,1.4,0.8,2.2h0.8c0.3-0.6,0.7-1.4,1-2.2l0.7,0.3c-0.1,0.4-0.4,1.1-0.8,1.9h1.1V35.8z
		 M104.5,38.5h-3.2v2.2c0,0.3,0.1,0.4,0.4,0.4h2.6v0.7h-2.7c-0.7,0-1-0.4-1-1.1v-2.2h-0.8v-0.7h2.3c-0.1-0.4-0.3-0.8-0.6-1.4
		l0.7-0.3c0.2,0.4,0.4,0.9,0.6,1.6h1.6V38.5z"/>
	<path class="st0" d="M113.9,42.2c-1.6,0.6-3.3,1.2-5.1,1.7l-0.2-0.8c0.3-0.1,0.6-0.2,0.8-0.2v-6h0.7v5.8c0.2,0,0.6-0.2,1.2-0.4
		v-6.6h-2.1v-4.2h4.2v4.2h-1.4V38h1.6v0.8h-1.6V42c0.6-0.2,1.2-0.4,1.8-0.7V42.2z M112.7,35v-2.7H110V35H112.7z M121.6,37.4
		l-0.5,0.7c-1.3-0.5-2.4-1-3.4-1.7c-0.9,0.7-2.1,1.3-3.6,1.7l-0.5-0.7c1.5-0.4,2.6-0.9,3.5-1.5c-0.6-0.6-1.2-1.2-1.7-2
		c-0.5,0.4-0.9,0.7-1.2,0.9l-0.6-0.6c1.5-0.9,2.6-2,3.2-3.3l0.8,0.2c-0.2,0.4-0.4,0.8-0.6,1.1h3.8V33c-0.7,1.2-1.4,2.2-2.3,2.9
		C119.3,36.5,120.4,37,121.6,37.4z M120.5,44h-0.8v-0.7h-4.1V44h-0.8v-5.4h5.7V44z M119.8,42.5v-3.3h-4.1v3.3H119.8z M119.7,33h-3.4
		c0,0-0.1,0.1-0.2,0.2c-0.1,0.1-0.1,0.2-0.2,0.2c0.4,0.8,1,1.5,1.7,2C118.5,34.8,119.2,34,119.7,33z"/>
	<path class="st0" d="M137.1,39l-0.2,0.7h-5.3c-1.7,0-2.9-0.1-3.6-0.4c-0.7-0.2-1.3-0.5-1.6-0.9c-0.5,0.5-1.1,1-1.8,1.4l-0.5-0.6
		c1.2-0.7,2.1-1.6,2.7-2.7h-2.4v-0.7c0.8-0.6,1.5-1.2,2.2-1.8h-2.3v-0.7h3.3v0.7c-0.6,0.7-1.3,1.3-2,1.8h2v0.7
		c-0.2,0.5-0.4,1-0.8,1.4c0.4,0.3,0.9,0.6,1.5,0.8c0.6,0.2,1.8,0.3,3.6,0.3H137.1z M137.1,41.3h-2.8v1.5c0,0.4-0.1,0.7-0.4,0.9
		c-0.2,0.2-0.7,0.3-1.4,0.3h-1l-0.2-0.7c1,0,1.6,0,1.9,0c0.3,0,0.4-0.1,0.4-0.3v-1.6h-9.3v-0.7h9.3v-0.5h0.8v0.5h2.8V41.3z
		 M127.2,32.5l-0.5,0.5c-0.6-0.5-1.3-1-2.1-1.6l0.6-0.5C125.9,31.4,126.6,32,127.2,32.5z M129.8,42.8l-0.5,0.6
		c-0.6-0.4-1.4-0.8-2.4-1.1l0.5-0.6C128.2,41.9,129,42.3,129.8,42.8z M137,32.8H133c-0.2,0.4-0.3,0.6-0.4,0.8h3.7v4.6h-7.5v-4.6h3
		c0.2-0.3,0.4-0.6,0.4-0.8h-4.3v-0.7h9.1V32.8z M131.1,31.6l-0.6,0.4c-0.3-0.2-0.6-0.5-1-0.7l0.6-0.4
		C130.5,31.1,130.8,31.3,131.1,31.6z M135.5,34.8v-0.7h-6v0.7H135.5z M135.5,36.2v-0.8h-6v0.8H135.5z M135.5,37.5v-0.8h-6v0.8H135.5
		z M135.5,31.3c-0.3,0.2-0.7,0.4-1.1,0.7l-0.6-0.4c0.4-0.1,0.7-0.3,1.1-0.6L135.5,31.3z"/>
	<path class="st0" d="M152.5,41.6c-0.1,0.9-0.2,1.5-0.4,1.7c-0.1,0.2-0.3,0.4-0.5,0.4c-0.2,0.1-0.9,0.1-2,0.1c-0.8,0-1.4,0-1.6-0.1
		c-0.2,0-0.4-0.2-0.6-0.3c-0.2-0.2-0.2-0.4-0.2-0.7v-1.1h-1.8c-0.2,0.5-0.4,0.9-0.7,1.2c-0.3,0.3-0.9,0.6-1.7,0.8
		c-0.8,0.2-1.8,0.3-2.8,0.3l-0.3-0.7c1.4,0,2.5-0.1,3.3-0.4c0.8-0.2,1.3-0.6,1.5-1.2h-2.2v-4.6h7.9v4.6h-2.4v1.1
		c0,0.2,0.1,0.3,0.3,0.3c0.2,0.1,0.7,0.1,1.6,0.1c0.8,0,1.3,0,1.5-0.1c0.2,0,0.3-0.2,0.4-0.4c0.1-0.2,0.2-0.7,0.2-1.3L152.5,41.6z
		 M146.1,31.9h-2.2v0.8h1.7v2h-1.7v0.9h2.1v0.6h-5.5v-5h5.6V31.9z M143.2,32.8v-0.8h-1.9v0.8H143.2z M144.9,34.2v-0.8h-3.7v0.8
		H144.9z M143.2,35.7v-0.9h-1.9v0.9H143.2z M149.5,38.4v-0.7H143v0.7H149.5z M149.5,39.7V39H143v0.7H149.5z M149.5,41.1v-0.7H143
		v0.7H149.5z M152.3,32.4h-4.8c-0.4,0.6-0.7,1-1,1.3l-0.6-0.4c0.7-0.7,1.3-1.5,1.7-2.4l0.6,0.2c-0.1,0.2-0.2,0.4-0.3,0.6h4.4V32.4z
		 M152,36.4h-5.4v-2.1h5.4V36.4z M148.2,35.8v-1h-1v1H148.2z M151.7,33.6h-4V33h4V33.6z M149.8,35.8v-1h-1v1H149.8z M151.3,35.8v-1
		h-0.9v1H151.3z"/>
</g>
</svg>
