<?xml version="1.0" encoding="utf-8"?>
<!-- Generator: Adobe Illustrator 27.2.0, SVG Export Plug-In . SVG Version: 6.00 Build 0)  -->
<svg version="1.1" id="圖層_1" xmlns="http://www.w3.org/2000/svg" xmlns:xlink="http://www.w3.org/1999/xlink" x="0px" y="0px"
	 width="42.2px" height="42.2px" viewBox="0 0 42.2 42.2" style="enable-background:new 0 0 42.2 42.2;" xml:space="preserve">
<style type="text/css">
	.st0{fill:#B5B5B6;}
	.st1{fill:#FFFFFF;}
</style>
<g>
	<path class="st0" d="M21.1,0C9.5,0,0,9.5,0,21.1v21.1h21.1c11.7,0,21.1-9.5,21.1-21.1C42.2,9.5,32.8,0,21.1,0z"/>
	<g>
		<path class="st1" d="M21.1,3.9c9.5,0,17.2,7.7,17.2,17.2c0,9.5-7.7,17.2-17.2,17.2H3.9V21.1C3.9,11.6,11.6,3.9,21.1,3.9 M21.1,2.2
			c-10.4,0-18.9,8.5-18.9,18.9v17.2v1.8h1.8h17.2c10.4,0,18.9-8.5,18.9-18.9S31.6,2.2,21.1,2.2L21.1,2.2z"/>
	</g>
	<g>
		<path class="st1" d="M25.1,19h-3.5v-2.3c0.3-2.2,3.9-1.8,3.9-1.8l0-0.1l0,0v-3.6h0c-0.1,0-7.2-1.7-8.6,3.7c0,0,0,0,0,0l0,0
			c-0.2,0.7-0.2,3.8-0.2,4.2h-3v4.1h3.2v11.2h4.7V23.2h3.6l0.4-4.1L25.1,19L25.1,19z"/>
	</g>
</g>
</svg>
