<?xml version="1.0" encoding="utf-8"?>
<!-- Generator: Adobe Illustrator 15.0.2, SVG Export Plug-In . SVG Version: 6.00 Build 0)  -->
<!DOCTYPE svg PUBLIC "-//W3C//DTD SVG 1.1//EN" "http://www.w3.org/Graphics/SVG/1.1/DTD/svg11.dtd">
<svg version="1.1" id="圖層_1" xmlns="http://www.w3.org/2000/svg" xmlns:xlink="http://www.w3.org/1999/xlink" x="0px" y="0px"
	 width="42.246px" height="42.247px" viewBox="0 0 42.246 42.247" enable-background="new 0 0 42.246 42.247" xml:space="preserve">
<g>
	<path fill="#00B900" d="M21.123,0C9.456,0,0,9.458,0,21.124v21.123h21.123c11.667,0,21.123-9.458,21.123-21.123
		C42.246,9.458,32.79,0,21.123,0z"/>
	<g>
		<path fill="#FFFFFF" d="M21.123,3.943c9.474,0,17.181,7.707,17.181,17.181c0,9.473-7.707,17.18-17.181,17.18H3.943v-17.18
			C3.943,11.65,11.65,3.943,21.123,3.943 M21.123,2.191c-10.439,0-18.932,8.494-18.932,18.933v17.18v1.752h1.752h17.18
			c10.439,0,18.933-8.492,18.933-18.932S31.563,2.191,21.123,2.191L21.123,2.191z"/>
	</g>
	<g>
		<g id="g7966_4_" transform="matrix(1.6639441,0,0,1.6639441,441.5933,393.76931)">
			<path id="path7968_4_" fill="#FFFFFF" d="M-255.057-226.619h-0.788c-0.121,0-0.219,0.099-0.219,0.219v4.894
				c0,0.121,0.098,0.219,0.219,0.219h0.788c0.121,0,0.218-0.097,0.218-0.219v-4.894
				C-254.839-226.521-254.936-226.619-255.057-226.619"/>
		</g>
		<g id="g7970_4_" transform="matrix(1.6639441,0,0,1.6639441,483.49956,393.76931)">
			<path id="path7972_4_" fill="#FFFFFF" d="M-274.819-226.619h-0.788c-0.121,0-0.218,0.099-0.218,0.219v2.907l-2.243-3.029
				c-0.006-0.008-0.012-0.015-0.018-0.022l-0.001-0.002c-0.004-0.005-0.009-0.009-0.013-0.014c-0.002-0.001-0.002-0.002-0.005-0.003
				c-0.004-0.005-0.007-0.007-0.012-0.011c-0.001-0.002-0.003-0.003-0.004-0.005c-0.005-0.002-0.009-0.005-0.012-0.007
				c-0.002-0.002-0.005-0.004-0.006-0.004c-0.005-0.003-0.008-0.005-0.012-0.008c-0.002-0.002-0.005-0.002-0.007-0.003
				c-0.004-0.002-0.008-0.005-0.012-0.005c-0.002-0.001-0.006-0.002-0.008-0.003c-0.004-0.001-0.008-0.003-0.013-0.004
				c-0.002-0.001-0.004-0.001-0.006-0.002c-0.004,0-0.009-0.001-0.012-0.003c-0.004,0-0.006,0-0.011-0.001
				c-0.003-0.001-0.008-0.001-0.01-0.002c-0.005,0-0.008,0-0.012-0.001c-0.004,0-0.006-0.001-0.008-0.001h-0.788
				c-0.12,0-0.218,0.099-0.218,0.219v4.894c0,0.121,0.098,0.219,0.218,0.219h0.788c0.12,0,0.218-0.097,0.218-0.219v-2.907
				l2.246,3.033c0.015,0.022,0.034,0.04,0.055,0.054c0.001,0.001,0.002,0.002,0.002,0.002c0.005,0.003,0.01,0.006,0.013,0.008
				c0.003,0.001,0.005,0.002,0.006,0.004c0.004,0.002,0.008,0.004,0.011,0.005c0.004,0.002,0.006,0.003,0.01,0.005
				c0.002,0,0.005,0.002,0.006,0.002c0.005,0.002,0.011,0.004,0.015,0.005c0.001,0,0.004,0,0.004,0
				c0.016,0.006,0.036,0.008,0.056,0.008h0.788c0.12,0,0.218-0.097,0.218-0.219v-4.894
				C-274.601-226.521-274.699-226.619-274.819-226.619"/>
		</g>
		<g id="g7974_4_" transform="matrix(1.6639441,0,0,1.6639441,426.91715,362.04388)">
			<path id="path7976_4_" fill="#FFFFFF" d="M-248.136-203.446h-2.142v-3.887c0-0.121-0.098-0.219-0.218-0.219h-0.789
				c-0.12,0-0.218,0.099-0.218,0.219v4.893v0.001c0,0.06,0.023,0.112,0.062,0.151c0,0.001,0.001,0.002,0.002,0.002
				c0.001,0.002,0.003,0.002,0.003,0.005c0.04,0.038,0.093,0.06,0.151,0.06l0,0h3.149c0.12,0,0.217-0.099,0.217-0.219v-0.788
				C-247.919-203.348-248.015-203.446-248.136-203.446"/>
		</g>
		<g id="g7978_4_" transform="matrix(1.6639441,0,0,1.6639441,517.12172,384.29914)">
			<path id="path7980_4_" fill="#FFFFFF" d="M-290.676-219.702c0.122,0,0.218-0.097,0.218-0.218v-0.788
				c0-0.121-0.096-0.219-0.218-0.219h-3.148l0,0c-0.058,0-0.112,0.025-0.151,0.062c-0.001,0.002-0.003,0.002-0.003,0.003
				c-0.001,0.001-0.002,0.003-0.002,0.004c-0.039,0.039-0.062,0.092-0.062,0.151l0,0v4.893v0.001c0,0.06,0.023,0.112,0.062,0.151
				c0.001,0.001,0.002,0.002,0.002,0.002c0.001,0.002,0.002,0.004,0.004,0.005c0.039,0.038,0.093,0.06,0.15,0.06l0,0h3.148
				c0.122,0,0.218-0.099,0.218-0.219v-0.788c0-0.12-0.096-0.218-0.218-0.218h-2.14v-0.827h2.14c0.122,0,0.218-0.099,0.218-0.219
				v-0.788c0-0.121-0.096-0.219-0.218-0.219h-2.14v-0.828H-290.676z"/>
		</g>
	</g>
</g>
</svg>
