<?xml version="1.0" encoding="utf-8"?>
<!-- Generator: Adobe Illustrator 27.2.0, SVG Export Plug-In . SVG Version: 6.00 Build 0)  -->
<svg version="1.1" id="Layer_1" xmlns="http://www.w3.org/2000/svg" xmlns:xlink="http://www.w3.org/1999/xlink" x="0px" y="0px"
	 width="38px" height="38px" viewBox="0 0 38 38" style="enable-background:new 0 0 38 38;" xml:space="preserve">
<style type="text/css">
	.st0{fill:#4CB234;}
	.st1{fill:#FFFFFF;}
</style>
<circle class="st0" cx="19" cy="19" r="19"/>
<g>
	<path class="st1" d="M30.9,18.5c0,2.3-1,4.2-2.5,5.9c-2.2,2.5-4.9,4.4-7.7,6.1c-0.6,0.4-1.2,0.7-1.8,1c-0.2,0.1-0.6,0.2-0.8,0
		c-0.2-0.1-0.2-0.5-0.1-0.8c0-0.5,0.1-0.9,0.2-1.4c0-0.8-0.2-1-1-1.2c-0.7-0.1-1.4-0.2-2.1-0.5c-3.3-1-6-2.8-7.4-6.1
		C6.2,18.2,7,15,9.8,12.3c1.8-1.8,4.1-2.8,6.6-3.2c4-0.7,7.6,0.1,10.9,2.6c1.6,1.2,2.8,2.9,3.3,4.8C30.8,17.1,30.8,17.8,30.9,18.5
		L30.9,18.5z"/>
</g>
<path class="st0" d="M18.7,18.1h0.1c0.7,1,1.5,1.9,2.2,2.9c0.2,0.3,0.5,0.5,0.9,0.3c0.2-0.1,0.4-0.5,0.4-0.7c0-1.4,0-2.8,0-4.2
	c0-0.6-0.2-0.8-0.6-0.8c-0.5,0-0.6,0.4-0.6,0.8c0,0.8,0,1.7,0,2.7C20.2,18,19.4,17,18.7,16c-0.2-0.3-0.5-0.5-0.8-0.3
	c-0.2,0.1-0.4,0.5-0.4,0.7c0,1.4,0,2.8,0,4.2c0,0.4,0.1,0.8,0.6,0.8s0.6-0.4,0.6-0.8C18.7,19.8,18.7,18.9,18.7,18.1L18.7,18.1z"/>
<path class="st0" d="M24.3,16.8h1.6c0.4,0,0.7-0.2,0.7-0.6s-0.3-0.6-0.7-0.6h-2.2c-0.5,0-0.7,0.2-0.7,0.7c0,1.4,0,2.9,0,4.3
	c0,0.5,0.2,0.7,0.7,0.7c0.7,0,1.4,0,2.1,0c0.4,0,0.7-0.1,0.8-0.6c0-0.4-0.3-0.6-0.8-0.6s-1,0-1.6,0V19c0.5,0,1,0,1.5,0
	c0.4,0,0.8-0.1,0.8-0.6c0-0.4-0.3-0.6-0.8-0.6s-1,0-1.6,0C24.3,17.4,24.3,17.2,24.3,16.8L24.3,16.8z"/>
<path class="st0" d="M12.5,20.1v-3.8c0-0.4-0.1-0.7-0.6-0.7s-0.6,0.3-0.6,0.7c0,1.4,0,2.9,0,4.3c0,0.5,0.2,0.7,0.8,0.7
	c0.7,0,1.4,0,2.1,0c0.4,0,0.8-0.1,0.8-0.6s-0.3-0.6-0.7-0.6C13.5,20.1,13,20.1,12.5,20.1L12.5,20.1z"/>
<path class="st0" d="M16.6,18.4v-2.1c0-0.4-0.2-0.8-0.6-0.8s-0.6,0.3-0.6,0.7v4.3c0,0.4,0.1,0.8,0.7,0.8c0.5,0,0.6-0.4,0.6-0.8
	C16.6,19.9,16.6,19.2,16.6,18.4z"/>
</svg>
