<?xml version="1.0" encoding="utf-8"?>
<!-- Generator: Adobe Illustrator 15.0.2, SVG Export Plug-In . SVG Version: 6.00 Build 0)  -->
<!DOCTYPE svg PUBLIC "-//W3C//DTD SVG 1.1//EN" "http://www.w3.org/Graphics/SVG/1.1/DTD/svg11.dtd">
<svg version="1.1" id="圖層_1" xmlns="http://www.w3.org/2000/svg" xmlns:xlink="http://www.w3.org/1999/xlink" x="0px" y="0px"
	 width="42.246px" height="42.247px" viewBox="0 0 42.246 42.247" enable-background="new 0 0 42.246 42.247" xml:space="preserve">
<g>
	<path fill="#F39800" d="M21.122,0C9.456,0,0,9.458,0,21.124v21.123h21.122c11.668,0,21.124-9.458,21.124-21.123
		C42.246,9.458,32.79,0,21.122,0z"/>
	<g>
		<path fill="#FFFFFF" d="M21.122,3.943c9.474,0,17.181,7.707,17.181,17.181c0,9.473-7.707,17.18-17.181,17.18H3.942v-17.18
			C3.942,11.65,11.649,3.943,21.122,3.943 M21.122,2.191c-10.439,0-18.932,8.494-18.932,18.933v17.18v1.752h1.752h17.18
			c10.439,0,18.933-8.492,18.933-18.932S31.562,2.191,21.122,2.191L21.122,2.191z"/>
	</g>
	<g>
		<rect x="16.833" y="14.615" fill="#FFFFFF" width="4.027" height="1.344"/>
		<rect x="16.833" y="17.3" fill="#FFFFFF" width="8.057" height="1.344"/>
		<rect x="16.833" y="19.985" fill="#FFFFFF" width="8.057" height="1.343"/>
		<path fill="#FFFFFF" d="M29.589,19.985h-0.671v2.686h-1.343v-8.056l-4.027-4.027h-9.399v12.083h-1.343v-2.686h-0.672
			c-1.112,0-2.015,0.902-2.015,2.016v8.055c0,1.113,0.902,2.014,2.015,2.014h17.455c1.11,0,2.014-0.9,2.014-2.014v-8.055
			C31.603,20.888,30.699,19.985,29.589,19.985L29.589,19.985z M15.49,11.931h6.713v4.027h4.029v6.713H15.49V11.931z M11.462,25.357
			v-1.343h2.687v1.343H11.462z M28.918,29.385H12.806v-1.343h16.112V29.385z M28.918,29.385"/>
	</g>
</g>
</svg>
