<?xml version="1.0" encoding="utf-8"?>
<!-- Generator: Adobe Illustrator 23.0.3, SVG Export Plug-In . SVG Version: 6.00 Build 0)  -->
<svg version="1.1" id="圖層_1" xmlns="http://www.w3.org/2000/svg" xmlns:xlink="http://www.w3.org/1999/xlink" x="0px" y="0px"
	 viewBox="0 0 42.2 42.2" style="enable-background:new 0 0 42.2 42.2;" xml:space="preserve">
<style type="text/css">
	.st0{fill:#B5B5B6;}
	.st1{fill:#FFFFFF;}
</style>
<g>
	<path class="st0" d="M21.1,0C9.5,0,0,9.5,0,21.1v21.1h21.1c11.7,0,21.1-9.5,21.1-21.1C42.2,9.5,32.8,0,21.1,0z"/>
	<g>
		<path class="st1" d="M21.1,3.9c9.5,0,17.2,7.7,17.2,17.2c0,9.5-7.7,17.2-17.2,17.2H3.9V21.1C3.9,11.6,11.6,3.9,21.1,3.9 M21.1,2.2
			c-10.4,0-18.9,8.5-18.9,18.9v17.2v1.8h1.8h17.2c10.4,0,18.9-8.5,18.9-18.9S31.6,2.2,21.1,2.2L21.1,2.2z"/>
	</g>
	<g>
		<rect x="16.8" y="14.6" class="st1" width="4" height="1.3"/>
		<rect x="16.8" y="17.3" class="st1" width="8.1" height="1.3"/>
		<rect x="16.8" y="20" class="st1" width="8.1" height="1.3"/>
		<path class="st1" d="M29.6,20h-0.7v2.7h-1.3v-8.1l-4-4h-9.4v12.1h-1.3V20h-0.7c-1.1,0-2,0.9-2,2v8.1c0,1.1,0.9,2,2,2h17.5
			c1.1,0,2-0.9,2-2V22C31.6,20.9,30.7,20,29.6,20L29.6,20z M15.5,11.9h6.7v4h4v6.7H15.5V11.9z M11.5,25.4V24h2.7v1.3H11.5z
			 M28.9,29.4H12.8V28h16.1V29.4z"/>
	</g>
</g>
</svg>
