<?xml version="1.0" encoding="utf-8"?>
<!-- Generator: $$$/GeneralStr/196=Adobe Illustrator 27.6.0, SVG Export Plug-In . SVG Version: 6.00 Build 0)  -->
<svg version="1.1" id="圖層_1" xmlns="http://www.w3.org/2000/svg" xmlns:xlink="http://www.w3.org/1999/xlink" x="0px" y="0px"
	 width="42.2px" height="42.2px" viewBox="0 0 42.2 42.2" style="enable-background:new 0 0 42.2 42.2;" xml:space="preserve">
<style type="text/css">
	.st0{fill:#FFFFFF;}
</style>
<g>
	<path d="M21.1,0C9.5,0,0,9.5,0,21.1v21.1h21.1c11.7,0,21.1-9.5,21.1-21.1S32.8,0,21.1,0z"/>
	<g>
		<path class="st0" d="M21.1,3.9c9.5,0,17.2,7.7,17.2,17.2s-7.7,17.2-17.2,17.2H3.9V21.1C3.9,11.7,11.6,3.9,21.1,3.9 M21.1,2.2
			c-10.4,0-18.9,8.5-18.9,18.9v17.2v1.8H4h17.2c10.4,0,18.9-8.5,18.9-18.9S31.6,2.2,21.1,2.2L21.1,2.2z"/>
	</g>
	<path class="st0" d="M23,19.6l7.4-8.5h-1.8l-6.5,7.4l-5.2-7.4h-6l7.8,11.1l-7.8,8.9h1.8l6.8-7.8l5.5,7.8h6L23,19.6z M20.6,22.3
		l-0.8-1.1l-6.3-8.8h2.7l5.1,7.1l0.8,1.1l6.6,9.2H26L20.6,22.3L20.6,22.3z"/>
</g>
</svg>
