<?xml version="1.0" encoding="utf-8"?>
<!-- Generator: Adobe Illustrator 15.0.2, SVG Export Plug-In . SVG Version: 6.00 Build 0)  -->
<!DOCTYPE svg PUBLIC "-//W3C//DTD SVG 1.1//EN" "http://www.w3.org/Graphics/SVG/1.1/DTD/svg11.dtd">
<svg version="1.1" id="圖層_1" xmlns="http://www.w3.org/2000/svg" xmlns:xlink="http://www.w3.org/1999/xlink" x="0px" y="0px"
	 width="31.246px" height="31.245px" viewBox="-18.322 -18.32 31.246 31.245" enable-background="new -18.322 -18.32 31.246 31.245"
	 xml:space="preserve">
<g>
	<g>
		<path fill="#35815F" d="M-2.699,12.925c-8.614,0-15.623-7.008-15.623-15.623c0-8.615,7.009-15.622,15.623-15.622
			c8.614,0,15.623,7.008,15.623,15.623C12.924,5.918,5.915,12.925-2.699,12.925z M-2.699-17.075c-7.928,0-14.377,6.45-14.377,14.377
			c0,7.927,6.45,14.377,14.377,14.377c7.927,0,14.377-6.449,14.377-14.377C11.678-10.626,5.229-17.075-2.699-17.075z"/>
	</g>
	<g>
		<g>
			<g>
				<path fill="#35815F" d="M-0.72-4.78v-1.203h5.519v1.203H-0.72z"/>
			</g>
		</g>
		<g>
			<g>
				<path fill="#35815F" d="M-10.199,2.824L-5.96-8.222h1.577L0.135,2.824h-1.666l-1.285-3.348h-4.618l-1.212,3.348H-10.199z
					 M-7.015-1.717h3.749l-1.157-3.061C-4.775-5.704-5.031-6.467-5.2-7.066C-5.345-6.353-5.542-5.65-5.804-4.953L-7.015-1.717z"/>
			</g>
		</g>
	</g>
</g>
</svg>
