<?xml version="1.0" encoding="utf-8"?>
<!-- Generator: Adobe Illustrator 15.0.2, SVG Export Plug-In . SVG Version: 6.00 Build 0)  -->
<!DOCTYPE svg PUBLIC "-//W3C//DTD SVG 1.1//EN" "http://www.w3.org/Graphics/SVG/1.1/DTD/svg11.dtd">
<svg version="1.1" id="圖層_1" xmlns="http://www.w3.org/2000/svg" xmlns:xlink="http://www.w3.org/1999/xlink" x="0px" y="0px"
	 width="31.244px" height="31.244px" viewBox="-18.321 -18.32 31.244 31.244" enable-background="new -18.321 -18.32 31.244 31.244"
	 xml:space="preserve">
<g>
	<g>
		<path fill="#35815F" d="M-2.699,12.924c-8.614,0-15.622-7.008-15.622-15.622c0-8.614,7.008-15.622,15.622-15.622
			c8.614,0,15.622,7.008,15.622,15.622C12.923,5.916,5.915,12.924-2.699,12.924z M-2.699-17.076c-7.928,0-14.378,6.45-14.378,14.378
			c0,7.928,6.45,14.378,14.378,14.378c7.928,0,14.378-6.45,14.378-14.378C11.679-10.626,5.229-17.076-2.699-17.076z"/>
	</g>
	<g>
		<g>
			<g>
				<path fill="#35815F" d="M-10.194,2.943l4.335-11.287h1.608L0.365,2.943h-1.702l-1.317-3.42h-4.72l-1.237,3.42H-10.194z
					 M-6.941-1.693h3.827l-1.177-3.126c-0.358-0.948-0.628-1.728-0.8-2.338C-5.238-6.435-5.44-5.716-5.699-5.004L-6.941-1.693z"/>
			</g>
		</g>
		<g>
			<path fill="#35815F" d="M1.378-2.301v-2.628h-2.613v-1.099h2.613v-2.608h1.106v2.608H5.09v1.099H2.485v2.628H1.378z"/>
		</g>
	</g>
</g>
</svg>
