<?xml version="1.0" encoding="utf-8"?>
<!-- Generator: Adobe Illustrator 15.0.2, SVG Export Plug-In . SVG Version: 6.00 Build 0)  -->
<!DOCTYPE svg PUBLIC "-//W3C//DTD SVG 1.1//EN" "http://www.w3.org/Graphics/SVG/1.1/DTD/svg11.dtd">
<svg version="1.1" id="圖層_1" xmlns="http://www.w3.org/2000/svg" xmlns:xlink="http://www.w3.org/1999/xlink" x="0px" y="0px"
	 width="31.244px" height="31.244px" viewBox="-18.321 -18.32 31.244 31.244" enable-background="new -18.321 -18.32 31.244 31.244"
	 xml:space="preserve">
<g>
	<path fill="#35815F" d="M-2.699,12.924c-8.614,0-15.622-7.008-15.622-15.622c0-8.614,7.008-15.622,15.622-15.622
		c8.614,0,15.622,7.008,15.622,15.622C12.923,5.916,5.915,12.924-2.699,12.924z"/>
</g>
<g>
	<g>
		<path fill="#FFFFFF" d="M-7.705,2.943L-3.37-8.344h1.608L2.854,2.943H1.152l-1.317-3.42h-4.72l-1.237,3.42H-7.705z M-4.452-1.693
			h3.825l-1.175-3.126c-0.358-0.948-0.628-1.728-0.8-2.338c-0.147,0.722-0.349,1.441-0.607,2.154L-4.452-1.693z"/>
	</g>
</g>
</svg>
