<?xml version="1.0" encoding="UTF-8"?>
<svg id="_圖層_2" data-name="圖層 2" xmlns="http://www.w3.org/2000/svg" width="300" height="105.68" viewBox="0 0 300 105.68">
  <defs>
    <style>
      .cls-1 {
        fill: #fff;
      }

      .cls-2 {
        fill: #274602;
      }

      .cls-2, .cls-3, .cls-4 {
        fill-rule: evenodd;
      }

      .cls-3 {
        fill: #fc0;
      }

      .cls-4 {
        fill: #4a8504;
      }
    </style>
  </defs>
  <g id="_圖層_1-2" data-name="圖層 1">
    <g>
      <path class="cls-4" d="m297.47,0c1.69,0,2.53,1.11,2.53,3.34v99.08c0,2.18-.84,3.26-2.53,3.26H2.53c-1.69,0-2.53-1.09-2.53-3.26V3.34C0,1.11.85,0,2.53,0h294.93Z"/>
      <path class="cls-3" d="m25.72,54.11c3.42,0,6.37,2.07,8.86,6.2,2.49,4.14,3.73,8.61,3.73,13.42,0,2.15-.27,4.14-.82,5.95-.59,1.77-1.5,3.25-2.72,4.43h-2.34c.17-.51.32-.99.44-1.46.04-.55.06-1.12.06-1.71,0-2.41-.72-4.58-2.15-6.52-1.48-1.94-3.16-2.91-5.06-2.91s-3.71.97-5.19,2.91c-1.43,1.94-2.15,4.11-2.15,6.52,0,1.06.19,2.11.57,3.17h-2.34c-1.22-1.18-2.11-2.66-2.66-4.43-.63-1.81-.95-3.82-.95-6.02,0-4.77,1.24-9.24,3.73-13.42,2.49-4.09,5.49-6.14,8.99-6.14Zm-1.46,6.52c-.38.21-.76.51-1.14.89-.38.42-.65.89-.82,1.39-.21.46-.32.95-.32,1.46,0,1.05.36,2.05,1.07,2.98.72.8,1.54,1.2,2.47,1.2.38,0,.74-.06,1.08-.19.34-.21.8-.61,1.39-1.2.59-.63.89-1.48.89-2.53s-.36-2.07-1.08-2.91c-.68-.85-1.48-1.27-2.41-1.27-.38,0-.76.06-1.14.19Z"/>
      <g>
        <path class="cls-2" d="m290.82,24.35l1.14,51.28c.08,4.56-2.34,6.67-7.28,6.33l-55.26-4.37c0-.89.02-1.73.06-2.53l51.02,4.05c4.39.3,6.54-1.6,6.46-5.7l-.88-45.96c-.13-4.14-2.32-5.89-6.59-5.25l-51.02,6.46c-2.15.21-3.46,1.33-3.92,3.35l-3.04-.95c.04-1.94.61-3.36,1.71-4.24.72-.59,1.65-.97,2.78-1.14l57.48-7.22c4.81-.63,7.26,1.33,7.34,5.89Z"/>
        <path class="cls-3" d="m278.43,25.88c-.3,0-.59.02-.89.06l-50.64,6.27c-1.81.21-3.02,1.08-3.6,2.59l-4.31-2.72c.21-1.43.78-2.49,1.71-3.17.76-1.01,1.94-1.62,3.54-1.83l56.91-7.03c.38-.04.74-.06,1.08-.06,3.29-.17,5.29,1.06,6.01,3.67.34.84.53,1.84.57,2.97l1.07,49.89v1.46c.09,4.3-2.17,6.35-6.77,6.14-.13-.04-.28-.06-.44-.06l-54.5-4.12v-4.81l50.13,3.86c.09,0,.19.02.32.06,1.81.08,3.23-.21,4.24-.89.67-.93.99-2.22.95-3.86l-.89-44.69c-.04-1.1-.23-2.01-.57-2.72-.08-.08-.19-.17-.32-.25-.88-.59-2.09-.84-3.61-.76Z"/>
        <g>
          <path class="cls-3" d="m261.27,48.29c.93,0,1.73.38,2.41,1.14.76.68,1.14,1.5,1.14,2.47s-.38,1.77-1.14,2.53c-.68.72-1.48,1.08-2.41,1.08-1.05,0-1.92-.36-2.59-1.08-.72-.76-1.08-1.6-1.08-2.53s.36-1.79,1.08-2.47c.68-.76,1.54-1.14,2.59-1.14Zm0-6.08c-1.05,0-1.92-.36-2.59-1.08-.72-.72-1.08-1.56-1.08-2.53s.36-1.75,1.08-2.47c.68-.76,1.54-1.14,2.59-1.14.93,0,1.73.38,2.41,1.14.76.72,1.14,1.54,1.14,2.47s-.38,1.81-1.14,2.53c-.68.72-1.48,1.08-2.41,1.08Zm16.52,7.22c.72.68,1.08,1.5,1.08,2.47s-.36,1.77-1.08,2.53c-.72.72-1.54,1.08-2.47,1.08-1.05,0-1.92-.36-2.6-1.08-.72-.76-1.07-1.6-1.07-2.53s.36-1.79,1.07-2.47c.68-.76,1.54-1.14,2.6-1.14.93,0,1.75.38,2.47,1.14Zm1.08-10.82c0,.97-.36,1.81-1.08,2.53-.72.72-1.54,1.08-2.47,1.08-1.05,0-1.92-.36-2.6-1.08-.72-.72-1.07-1.56-1.07-2.53s.36-1.75,1.07-2.47c.68-.76,1.54-1.14,2.6-1.14.93,0,1.75.38,2.47,1.14.72.72,1.08,1.54,1.08,2.47Zm-39.69,0c0,.97-.36,1.81-1.08,2.53-.72.72-1.54,1.08-2.47,1.08-1.01,0-1.88-.36-2.59-1.08-.72-.72-1.08-1.56-1.08-2.53s.36-1.75,1.08-2.47c.72-.76,1.58-1.14,2.59-1.14.93,0,1.75.38,2.47,1.14.72.72,1.08,1.54,1.08,2.47Zm-1.08,10.82c.72.68,1.08,1.5,1.08,2.47s-.36,1.77-1.08,2.53c-.72.72-1.54,1.08-2.47,1.08-1.01,0-1.88-.36-2.59-1.08-.72-.76-1.08-1.6-1.08-2.53s.36-1.79,1.08-2.47c.72-.76,1.58-1.14,2.59-1.14.93,0,1.75.38,2.47,1.14Zm10.32-7.22c-1.01,0-1.86-.36-2.53-1.08-.72-.72-1.08-1.56-1.08-2.53s.36-1.75,1.08-2.47c.68-.76,1.52-1.14,2.53-1.14s1.79.38,2.47,1.14c.76.72,1.14,1.54,1.14,2.47s-.38,1.81-1.14,2.53c-.68.72-1.5,1.08-2.47,1.08Zm0,6.08c.97,0,1.79.38,2.47,1.14.76.68,1.14,1.5,1.14,2.47s-.38,1.77-1.14,2.53c-.68.72-1.5,1.08-2.47,1.08s-1.86-.36-2.53-1.08c-.72-.76-1.08-1.6-1.08-2.53s.36-1.79,1.08-2.47c.68-.76,1.52-1.14,2.53-1.14Zm-.44,14.62c.93,0,1.73.38,2.41,1.14.76.72,1.14,1.52,1.14,2.41,0,.97-.38,1.81-1.14,2.53-.68.76-1.48,1.14-2.41,1.14-1.06,0-1.92-.38-2.59-1.14-.72-.72-1.08-1.56-1.08-2.53,0-.89.36-1.69,1.08-2.41.67-.76,1.54-1.14,2.59-1.14Zm-10.38,1.14c.76.72,1.14,1.52,1.14,2.41,0,.97-.38,1.81-1.14,2.53-.68.76-1.5,1.14-2.47,1.14s-1.86-.38-2.53-1.14c-.72-.72-1.08-1.56-1.08-2.53,0-.89.36-1.69,1.08-2.41.67-.76,1.52-1.14,2.53-1.14s1.79.38,2.47,1.14Zm37.22-1.14c.97,0,1.79.38,2.47,1.14.76.72,1.14,1.52,1.14,2.41,0,.97-.38,1.81-1.14,2.53-.68.76-1.5,1.14-2.47,1.14s-1.86-.38-2.53-1.14c-.72-.72-1.07-1.56-1.07-2.53,0-.89.36-1.69,1.07-2.41.68-.76,1.52-1.14,2.53-1.14Zm-14.05,0c.93,0,1.75.38,2.47,1.14.72.72,1.07,1.52,1.07,2.41,0,.97-.36,1.81-1.07,2.53-.72.76-1.54,1.14-2.47,1.14-1.05,0-1.92-.38-2.59-1.14-.72-.72-1.08-1.56-1.08-2.53,0-.89.36-1.69,1.08-2.41.67-.76,1.54-1.14,2.59-1.14Z"/>
          <path class="cls-2" d="m261.72,43.86c-1.86,0-3.42-.65-4.68-1.96-1.27-1.35-1.9-2.89-1.9-4.62s.63-3.12,1.9-4.43c1.27-1.35,2.83-2.02,4.68-2.02,1.73,0,3.21.68,4.43,2.02,1.35,1.31,2.02,2.79,2.02,4.43,0,1.73-.68,3.27-2.02,4.62-1.23,1.31-2.7,1.96-4.43,1.96Z"/>
          <path class="cls-2" d="m239.18,57.66c-1.22,1.31-2.68,1.96-4.37,1.96-1.9,0-3.46-.65-4.68-1.96-1.31-1.35-1.96-2.89-1.96-4.62s.65-3.17,1.96-4.43c1.22-1.35,2.79-2.03,4.68-2.03,1.69,0,3.15.67,4.37,2.03,1.35,1.26,2.03,2.74,2.03,4.43s-.68,3.27-2.03,4.62Z"/>
          <path class="cls-2" d="m261.34,60.82c1.68,0,3.14.68,4.37,2.03,1.39,1.31,2.09,2.79,2.09,4.43,0,1.77-.7,3.33-2.09,4.68-1.23,1.31-2.68,1.96-4.37,1.96-1.9,0-3.46-.66-4.68-1.96-1.31-1.35-1.96-2.91-1.96-4.68,0-1.65.65-3.12,1.96-4.43,1.22-1.35,2.78-2.03,4.68-2.03Z"/>
        </g>
      </g>
      <g>
        <path class="cls-1" d="m17.8,43.77l1.73,1.29c.17.17.25.31.25.41,0,.08-.07.13-.21.16-.19.03-.33.1-.45.21-.51.73-1.05,1.41-1.62,2.03-.67.68-1.54,1.37-2.6,2.07-.25,0-.41-.08-.5-.25-.43-.34-.8-.64-1.08-.91-.17-.06-.25-.14-.25-.22,0-.05.03-.11.1-.16.51-.21.92-.45,1.24-.72.69-.53,1.29-1.1,1.79-1.71.44-.53.92-1.2,1.45-1.99.05-.13.09-.2.14-.2Zm22.11-10.68c.24,0,.36.13.36.4v1.11c0,.26-.12.39-.36.39H13.55c-.24,0-.36-.13-.36-.39v-1.11c0-.26.12-.4.36-.4h26.35Zm-20.43-10.92c1.65.82,2.48,1.3,2.48,1.45,0,.19-.07.28-.22.28-.34.02-.56.13-.67.31-1.02,1.94-2.03,3.41-3.03,4.41-.56.6-1.52,1.46-2.87,2.57-.21,0-.41-.09-.59-.28-.29-.23-.6-.49-.91-.76-.15-.11-.22-.22-.22-.35.7-.59,1.41-1.2,2.11-1.84.91-.84,1.71-1.77,2.39-2.8.58-.92,1.03-1.82,1.37-2.72.04-.18.1-.27.16-.27Zm19.6,18.64c.24,0,.36.13.36.39v1.11c0,.27-.12.4-.36.4H14.62c-.24,0-.36-.13-.36-.4v-1.11c0-.26.12-.39.36-.39h24.45Zm-21.36-14.24h2.14v14.79c0,.27-.16.4-.47.4h-1.24c-.29,0-.43-.13-.43-.4v-14.79Zm20.89-.95c.24,0,.36.13.36.4v1.11c0,.27-.12.4-.36.4h-19.59c-.24,0-.36-.13-.36-.4v-1.11c0-.27.12-.4.36-.4h19.59Zm-14.23,18.47c.86,1.4,1.64,2.9,2.36,4.48,0,.31-.07.48-.2.5-.74.51-1.34.76-1.78.76-.75-1.98-1.46-3.62-2.14-4.93,0-.22.48-.56,1.43-1.01.18,0,.29.06.33.19Zm-1.32-17.52h2.14v14.79c0,.27-.16.4-.47.4h-1.24c-.29,0-.43-.13-.43-.4v-14.79Zm5.46,0h2.14v14.79c0,.27-.16.4-.47.4h-1.24c-.29,0-.43-.13-.43-.4v-14.79Zm1.8,17.52c1.07,1.44,2.06,2.97,2.95,4.6,0,.31-.07.48-.2.5-.74.51-1.34.76-1.78.76-.96-2.03-1.87-3.71-2.73-5.05,0-.22.48-.56,1.43-1.01.18,0,.29.06.33.19Zm3.66-17.52h2.14v14.79c0,.27-.16.4-.47.4h-1.23c-.29,0-.43-.13-.43-.4v-14.79Zm4.53,19.47c.82.86,1.53,1.64,2.11,2.34,0,.04-.05.13-.16.28-.63.86-.96,1.29-1.01,1.29-.89-1.1-1.85-2.12-2.88-3.06-.84-.73-1.54-1.26-2.09-1.57,0-.1.34-.54,1.02-1.32.11-.15.19-.22.25-.22,1.12.81,2.03,1.56,2.75,2.26Z"/>
        <path class="cls-1" d="m45.74,23.41h1.23c.31,0,.47.12.47.36v25.88c0,.27-.16.4-.47.4h-1.23c-.29,0-.44-.13-.44-.4v-25.88c0-.24.15-.36.44-.36Zm6.68,0v1.78h-5.63c-.28,0-.42-.12-.42-.35v-1.08c0-.23.14-.35.42-.35h5.63Zm0,0c.54,0,.89.07,1.04.22.48.46.72.85.72,1.17l-3.11,7.72c-.02.12-.03.23-.03.33,0,.08.04.16.13.24,1.09,1.15,1.91,2.29,2.47,3.43.45,1.09.67,2.13.67,3.14,0,1.79-.28,3.1-.85,3.94-.66,1.06-1.74,1.59-3.22,1.59-.94,0-1.43-.2-1.48-.6-.06-.46-.2-.99-.39-1.59,0-.3.08-.46.23-.46l1.64.21c.72,0,1.17-.3,1.35-.89.17-.57.25-1.4.25-2.5,0-.84-.26-1.75-.77-2.74-.54-1.14-1.36-2.21-2.48-3.2-.13-.09-.19-.17-.19-.23,0-.08.04-.24.14-.46l3.89-9.33Zm19.01,6.76c.22,0,.33.12.33.37v1.04c0,.25-.11.37-.33.37h-17.85c-.22,0-.33-.12-.33-.37v-1.04c0-.25.11-.37.33-.37h17.85Zm.24,14.84c.22,0,.34.12.34.37v1.04c0,.25-.11.37-.34.37h-18.09c-.22,0-.33-.12-.33-.37v-1.04c0-.25.11-.37.33-.37h18.09Zm-.95-20.06c.22,0,.33.12.33.37v1.04c0,.25-.11.37-.33.37h-15.83c-.22,0-.33-.13-.33-.37v-1.04c0-.25.11-.37.33-.37h15.83Zm-14.68,9.08h13.51l-1.7,1.66h-9.97v5.58l-1.7,1.66c-.29,0-.43-.13-.43-.4v-8.1c0-.27.1-.4.3-.4Zm11.81,1.66l1.7-1.66c.29,0,.44.13.44.4v8.1c0,.27-.11.4-.32.4h-13.49l1.7-1.66h9.97v-5.58Zm.76,1.9c.21,0,.31.12.31.35v.97c0,.23-.1.35-.31.35h-11.48c-.21,0-.31-.12-.31-.35v-.97c0-.23.1-.35.31-.35h11.48Zm-8.65-8.57c.3.52.56,1.07.77,1.66,0,.08-.62.29-1.87.63-.08-.37-.26-.83-.53-1.36-.3-.6-.7-1.22-1.19-1.84,0-.13.52-.45,1.57-.95.51.68.93,1.31,1.25,1.87Zm4.49-6.22c0,.27-.11.41-.32.43-.21.02-.32.22-.32.6v1.61c0,.27-.16.4-.47.4h-1.23c-.29,0-.43-.13-.43-.4v-2.68c0-.24.15-.37.44-.37,1.55,0,2.33.13,2.33.4Zm-2.77,19.3h2.14v7.67c0,.27-.16.4-.47.4h-1.23c-.29,0-.43-.13-.43-.4v-7.67Zm4.66-14.95l1.73.71c.27.12.41.26.41.41,0,.11-.07.18-.2.23-.19,0-.3.07-.34.22-.51,1.13-1.01,2.01-1.49,2.62-.11.13-.2.19-.26.19-.12,0-.27-.06-.47-.17-.39-.19-.75-.36-1.08-.52-.16-.06-.24-.1-.24-.14,0-.02.03-.06.08-.13.43-.58.75-1.08.98-1.51.32-.56.55-1.11.7-1.67.06-.17.11-.26.17-.26Z"/>
        <path class="cls-1" d="m80.02,25.49l1.81.68c-.35,1.95-.71,3.71-1.08,5.29-.44,1.62-.9,3.06-1.39,4.32-.48,1.34-1.04,2.58-1.69,3.71-.22,0-.39-.05-.5-.16-.42-.2-.85-.4-1.27-.62-.18,0-.27-.05-.27-.16.87-1.44,1.57-2.87,2.1-4.27.53-1.32.93-2.62,1.22-3.9.29-.95.61-2.52.96-4.7,0-.12.04-.18.11-.18Zm4.65-.77c.22,0,.33.12.33.37v1.04c0,.25-.11.37-.33.37h-7.64c-.22,0-.33-.12-.33-.37v-1.04c0-.25.11-.37.33-.37h7.64Zm-5.68,9.14h1.09c.28,0,.42.12.42.36v15.37c0,.24-.14.36-.42.36h-1.09c-.26,0-.39-.12-.39-.36v-15.37c0-.24.13-.36.39-.36Zm5.28,0c.26,0,.39.12.39.36v12.52c0,.24-.14.36-.42.36h-1.09c-.26,0-.39-.12-.39-.36v-11.1h-2.87c-.22,0-.33-.12-.33-.36v-1.07c0-.24.11-.36.33-.36h4.38Zm-.78,10.09c.22,0,.33.12.33.37v1.04c0,.25-.11.37-.33.37h-3.61c-.22,0-.33-.12-.33-.37v-1.04c0-.25.11-.37.33-.37h3.61Zm7.97-8.76c.23.07.34.17.34.29,0,.19-.07.32-.21.39-.3.08-.45.27-.45.57,0,3.17-.16,5.5-.47,6.97-.42,1.62-1.04,3.03-1.87,4.21-.63.85-1.4,1.62-2.34,2.32h-.31c-.56-.17-1.09-.36-1.59-.56-.09-.05-.13-.15-.13-.3,1.13-.67,2.03-1.41,2.71-2.22.68-.82,1.18-1.84,1.52-3.07.45-1.3.68-3.51.68-6.63,0-.35-.03-.98-.08-1.91,0-.17.11-.26.34-.26l1.87.21Zm-3.75-3.29l1.62.67c.25.11.38.24.38.39,0,.21-.08.36-.25.44-.24,0-.38.15-.43.44-.65,2.22-1.28,3.94-1.91,5.16-.14.25-.25.38-.32.38-.11,0-.25-.06-.44-.16-.37-.18-.7-.34-1.01-.48-.15-.05-.22-.1-.22-.13,0-.04.04-.12.11-.24.57-1.09,1.01-2.03,1.31-2.84.42-1.05.73-2.09.93-3.14.07-.32.15-.48.22-.48Zm5.77,8.31c.21,0,.31.12.31.35v.97c0,.23-.1.35-.31.35h-7.33c-.21,0-.31-.12-.31-.35v-.97c0-.23.1-.35.31-.35h7.33Zm-5.09-17.24c0,.12-.11.26-.33.45v5.69c0,.24.12.36.36.36h3.32c.4,0,.77-.65,1.11-1.96l1.64,1.03c-.59,1.77-1.35,2.65-2.25,2.65h-4.52c-.96,0-1.45-.41-1.45-1.22v-7.11c0-.22.08-.33.24-.33,1.25.11,1.87.26,1.87.44Zm4.19.86c.09,0,.2.08.31.24.76.98,1.13,1.51,1.13,1.57,0,.18-.07.27-.21.27l-.65-.11h-.08c-.41.28-.87.56-1.38.84-.62.28-1.29.53-2,.75-.57.22-1.32.42-2.24.59l-.56-1.61c.92-.19,1.74-.42,2.47-.71.69-.23,1.33-.54,1.93-.92.43-.24.83-.54,1.2-.92h.08Zm.78,10.8c.21,0,.31.12.31.35v.97c0,.23-.1.35-.31.35h-5.55c-.21,0-.31-.12-.31-.35v-.97c0-.23.1-.35.31-.35h5.55Zm-1.58,8.77c.28.66.76,1.41,1.42,2.25.08.06.12.13.12.21,0,.06-.06.15-.19.25-.22.27-.5.57-.84.89-.13.15-.24.22-.33.22-.05,0-.12-.04-.2-.12-.47-.67-.89-1.41-1.24-2.24-.35-.88-.69-1.93-1.02-3.13l1.39-.81c.32,1.07.62,1.9.89,2.48Zm3.08-6.51l2.55.29c0,.14-.06.24-.18.31-.26.14-.38.3-.38.47-.02,1.63-.06,2.88-.13,3.73-.05.83-.15,1.67-.29,2.52-.14.78-.32,1.52-.54,2.22-.21.73-.45,1.34-.73,1.85-.36.65-.91,1.37-1.63,2.15-.12,0-.23-.1-.32-.29-.28-.31-.6-.61-.96-.89-.16-.12-.24-.24-.24-.37.16-.13.36-.32.62-.57.28-.31.52-.61.71-.92.26-.38.46-.79.62-1.23.21-.51.39-1.08.54-1.72.14-.59.27-1.23.36-1.92.09-.76.15-1.52.19-2.26.05-.94-.02-2.07-.2-3.37Zm8.78-4.21l-.47,1.78h-8.57c-.22,0-.33-.12-.33-.37v-1.04c0-.25.11-.37.33-.37h9.04Zm-7.59,8.6c.27,0,.42.11.43.33.05,1.02.15,1.96.29,2.8.1.69.23,1.27.4,1.74.13.43.27.78.45,1.03.17.28.38.48.64.62.21.14.42.23.65.27.53.06,1.29.09,2.27.09.57,0,1.55-.16,2.94-.47,0,.05-.04.17-.13.36-.19.47-.36.96-.5,1.48-.05.19-.19.28-.42.28-.26.09-.88.13-1.88.13-1.58,0-2.74-.09-3.5-.26-.36-.13-.68-.35-.95-.66-.33-.34-.62-.82-.87-1.43-.21-.52-.4-1.17-.57-1.95-.24-.96-.4-2.3-.5-4.02,0-.22.12-.33.35-.33h.91Zm2.68-12.65c.98.47,1.86.99,2.63,1.56.58.39,1.09.78,1.5,1.2.04.04.06.08.06.11,0,.13-.44.46-1.31,1-.06,0-.12-.02-.19-.06-.69-.61-1.43-1.14-2.22-1.59-.48-.29-.99-.56-1.53-.81-.69-.31-1.44-.61-2.25-.92-.06-.03-.09-.06-.09-.08,0-.06.31-.44.95-1.14.11-.09.24-.14.39-.14.64.23,1.33.52,2.06.88Zm3.65-5.15c.28,0,.49.1.61.31l-.31,1.36h-6.31c-.22,0-.33-.11-.33-.33v-1c0-.22.11-.33.33-.33h6.01Zm-4.21,10.09h1.9v15.08c0,.24-.14.35-.42.35h-1.1c-.26,0-.39-.12-.39-.35v-15.08Zm4.82-9.78c.69.79,1.03,1.24,1.03,1.35-1.82,2.7-2.96,4.43-3.42,5.21-.08.17-.15.25-.23.25-.15,0-.31-.06-.47-.2-.33-.28-.68-.58-1.03-.89-.15-.06-.22-.16-.22-.31l4.34-5.42Zm-.19,16.3c.24,0,.36.13.36.4v1.11c0,.26-.12.39-.36.39h-3.32c-.24,0-.36-.13-.36-.39v-1.11c0-.26.12-.4.36-.4h3.32Zm.36-7.42h.5c.23,0,.38.04.45.11.32.33.47.58.47.75l-1.85,4.29c-.04.09-.09.13-.14.13-.97-.27-1.45-.51-1.45-.7l2.02-4.59Z"/>
        <path class="cls-1" d="m111.89,30l1.81.68c-.36,1.95-.73,3.71-1.11,5.29-.45,1.62-.93,3.06-1.43,4.32-.49,1.34-1.07,2.57-1.74,3.71-.22,0-.39-.05-.5-.16-.42-.2-.85-.4-1.27-.62-.18,0-.27-.05-.27-.16.89-1.44,1.61-2.87,2.16-4.27.54-1.32.96-2.62,1.26-3.9.29-.95.62-2.52.99-4.7,0-.12.04-.19.11-.19Zm4.98-.95c.24,0,.36.13.36.4v1.11c0,.27-.12.4-.36.4h-8.43c-.24,0-.36-.13-.36-.4v-1.11c0-.27.12-.4.36-.4h8.43Zm-2.1-5.89c0,.27-.11.41-.32.43-.21.02-.32.22-.32.6v25.7c0,.27-.16.4-.47.4h-1.24c-.29,0-.43-.13-.43-.4v-26.77c0-.24.15-.37.44-.37,1.55,0,2.33.13,2.33.4Zm.87,10.99c.42,1.11,1.12,2.36,2.11,3.76.12.1.18.21.18.34,0,.06-.06.15-.19.25-.22.27-.5.57-.84.89-.13.15-.24.22-.33.22-.08,0-.18-.06-.3-.19-.7-1.07-1.32-2.27-1.84-3.6-.52-1.42-1.03-3.09-1.51-5.02l1.39-.81c.48,1.79.93,3.17,1.33,4.15Zm5.41,9.38l1.63,1.22c.16.16.24.29.24.39,0,.07-.07.12-.21.14-.19.02-.34.08-.45.18-.51.63-1.06,1.21-1.64,1.75-.68.58-1.55,1.18-2.62,1.79-.23,0-.39-.08-.47-.24-.41-.32-.75-.6-1.02-.86-.16-.06-.23-.13-.23-.21,0-.05.03-.09.11-.14.51-.18.93-.39,1.26-.62.7-.46,1.3-.96,1.81-1.49.44-.46.93-1.04,1.46-1.73.05-.11.09-.17.14-.17Zm13.64-3.26c.22,0,.33.12.33.37v1.04c0,.25-.11.37-.33.37h-16.9c-.22,0-.33-.12-.33-.37v-1.04c0-.25.11-.37.33-.37h16.9Zm.12-16.38c.22,0,.34.12.34.37v1.04c0,.25-.11.37-.34.37h-16.78c-.22,0-.33-.12-.33-.37v-1.04c0-.25.11-.37.33-.37h16.78Zm-16.3,4.16h15.37l-1.7,1.78h-11.87v2.97l-1.7,1.78c-.29,0-.43-.14-.43-.4v-5.73c0-.27.11-.4.34-.4Zm13.66,1.78l1.7-1.78c.29,0,.43.13.43.4v5.73c0,.27-.12.4-.37.4h-15.34l1.7-1.78h11.87v-2.97Zm.62,6.77c.22,0,.33.12.33.37v1.04c0,.25-.11.37-.33.37h-12.98c-.22,0-.33-.12-.33-.37v-1.04c0-.25.11-.37.33-.37h12.98Zm-7.5,4.57h2.14v6.72c0,1.53-1.23,2.3-3.67,2.3h-1.31c-.15,0-.23-.18-.23-.53-.04-.46-.23-.99-.58-1.59,0-.12.04-.19.1-.19.63.15,1.25.23,1.85.23,1.14,0,1.7-.37,1.7-1.1v-5.85Zm-2.55-16.38h2.02v8.52c0,.25-.15.38-.44.38h-1.17c-.27,0-.41-.13-.41-.38v-8.52Zm4.75,0h2.02v8.52c0,.25-.15.38-.44.38h-1.17c-.27,0-.41-.13-.41-.38v-8.52Zm5.84,20.77c.75.77,1.4,1.46,1.93,2.09,0,.04-.05.12-.15.26-.59.81-.91,1.22-.95,1.22-.82-.98-1.7-1.89-2.63-2.73-.77-.65-1.41-1.12-1.91-1.4,0-.1.32-.51.96-1.24.1-.14.18-.21.24-.21,1.02.72,1.86,1.39,2.52,2.01Z"/>
        <path class="cls-1" d="m165.98,45.01c.22,0,.33.12.33.37v1.04c0,.25-.11.37-.33.37h-25.56c-.22,0-.33-.12-.33-.37v-1.04c0-.25.11-.37.33-.37h25.56Zm0-15.19c.22,0,.33.12.33.37v1.04c0,.25-.11.37-.33.37h-25.44c-.22,0-.33-.12-.33-.37v-1.04c0-.25.11-.37.33-.37h25.44Zm-2.02-5.22c.22,0,.33.12.33.37v1.04c0,.25-.11.37-.33.37h-21.41c-.22,0-.33-.12-.33-.37v-1.04c0-.25.11-.37.33-.37h21.41Zm-20.14,8.9h18.85l-1.7,1.78h-15.43v5.82l-1.7,1.78c-.29,0-.43-.13-.43-.4v-8.58c0-.27.14-.4.42-.4Zm17.15,1.78l1.7-1.78c.29,0,.43.13.43.4v8.58c0,.27-.15.4-.45.4h-18.82l1.7-1.78h15.43v-5.82Zm.73,2.02c.22,0,.33.12.33.37v1.04c0,.25-.11.37-.33.37h-16.9c-.22,0-.33-.12-.33-.37v-1.04c0-.25.11-.37.33-.37h16.9Zm-13.27-9.41c.35.4.66.83.91,1.29,0,.09-.7.32-2.1.7-.1-.27-.31-.61-.63-1.01-.36-.45-.83-.9-1.41-1.37,0-.15.59-.5,1.77-1.07.6.53,1.09,1.01,1.47,1.45Zm3.52,14.09h2.14v7.91c0,.27-.16.4-.47.4h-1.24c-.29,0-.43-.13-.43-.4v-7.91Zm2.89-19.18c0,.27-.11.41-.32.43-.21.02-.32.22-.32.6v1.25c0,.27-.16.4-.47.4h-1.23c-.29,0-.43-.14-.43-.4v-2.32c0-.24.15-.37.44-.37,1.55,0,2.33.13,2.33.4Zm4.2,3.52l1.84.76c.29.13.44.27.44.44,0,.09-.08.14-.23.18-.21,0-.34.06-.39.18-.58.9-1.15,1.6-1.71,2.09-.13.1-.23.15-.29.15-.12,0-.29-.06-.5-.18-.41-.2-.8-.39-1.15-.55-.17-.06-.25-.11-.25-.15,0-.02.03-.05.1-.11.5-.47.87-.88,1.13-1.23.37-.46.64-.91.81-1.37.06-.14.13-.21.19-.21Z"/>
        <path class="cls-1" d="m185.03,47.48h-14.39c-.04-1.5.64-3.09,2.05-4.75.85-1.01,2.2-2.25,4.04-3.71,1.42-1.15,2.68-2.33,3.77-3.53,1.17-1.31,1.75-2.6,1.75-3.89,0-1.09-.4-2-1.19-2.73-.77-.71-1.74-1.07-2.91-1.07-.83,0-1.59.2-2.29.59-1.3.71-1.97,1.99-1.99,3.83l-2.73-.33c.1-1.01.3-1.84.59-2.49,1.11-2.53,3.26-3.8,6.47-3.8,2.26,0,4,.67,5.25,2.02,1.01,1.13,1.51,2.47,1.51,4.04,0,1.21-.33,2.35-.98,3.44-.83,1.35-2.27,2.91-4.33,4.69l-2.19,1.84c-1.45,1.15-2.48,2.24-3.12,3.26h10.68v2.58Z"/>
        <path class="cls-1" d="m193.19,47.48h-3.06v-3.06h3.06v3.06Z"/>
        <path class="cls-1" d="m207.27,47.83h-2.83v-17.23c-.68.62-1.57,1.24-2.68,1.86-1.1.62-2.1,1.09-2.97,1.4v-2.61c1.58-.71,2.96-1.57,4.14-2.58,1.18-1.01,2.02-1.99,2.51-2.94h1.82v22.12Z"/>
      </g>
      <g>
        <path class="cls-1" d="m50.96,79.72c-1.99,0-3.58-.68-4.79-2.04-1.09-1.24-1.63-2.73-1.63-4.47s.52-3.14,1.56-4.29c1.18-1.3,2.8-1.95,4.86-1.95h7.18v2.22h-7.18c-1.28,0-2.31.42-3.1,1.26-.7.74-1.07,1.67-1.12,2.76-.04,1.16.3,2.14.99,2.94.78.9,1.85,1.35,3.23,1.35h7.18v2.22h-7.18Z"/>
        <path class="cls-1" d="m66.4,79.72c-1.98,0-3.58-.68-4.78-2.04-1.09-1.24-1.63-2.73-1.63-4.47s.52-3.14,1.56-4.29c1.18-1.3,2.8-1.95,4.86-1.95h7.18v2.22h-7.18c-1.27,0-2.31.42-3.1,1.26-.7.74-1.07,1.67-1.12,2.76-.04,1.16.29,2.14.99,2.94.78.9,1.86,1.35,3.23,1.35h7.18v2.22h-7.18Z"/>
        <path class="cls-1" d="m77.92,77.5h8.79v2.22h-11.01v-12.74h11.01v2.22h-8.79v8.31Zm8.22-5.35v2.21h-7.28v-2.21h7.28Z"/>
        <path class="cls-1" d="m98.46,79.72h-9.71v-2.22h9.71c.73,0,1.32-.18,1.75-.55.4-.34.6-.75.6-1.22s-.19-.87-.58-1.19c-.44-.35-1.03-.53-1.77-.53h-6.03c-1.25,0-2.24-.37-2.98-1.1-.66-.66-.99-1.47-.99-2.43s.33-1.75.99-2.41c.73-.73,1.72-1.1,2.98-1.1h9.63v2.22h-9.63c-.47,0-.85.13-1.12.39-.27.26-.41.57-.41.92s.12.65.37.88c.28.27.67.41,1.15.41h6.03c1.36,0,2.45.41,3.26,1.24.73.76,1.1,1.67,1.1,2.75s-.36,1.98-1.08,2.71c-.8.82-1.9,1.22-3.28,1.22Z"/>
        <path class="cls-1" d="m114.02,79.72h-9.71v-2.22h9.71c.73,0,1.32-.18,1.75-.55.4-.34.6-.75.6-1.22s-.2-.87-.58-1.19c-.44-.35-1.03-.53-1.77-.53h-6.03c-1.25,0-2.25-.37-2.98-1.1-.66-.66-.99-1.47-.99-2.43s.33-1.75.99-2.41c.73-.73,1.72-1.1,2.98-1.1h9.62v2.22h-9.62c-.47,0-.85.13-1.12.39-.27.26-.41.57-.41.92s.12.65.37.88c.29.27.67.41,1.15.41h6.03c1.36,0,2.45.41,3.26,1.24.73.76,1.1,1.67,1.1,2.75s-.36,1.98-1.08,2.71c-.8.82-1.9,1.22-3.28,1.22Z"/>
        <path class="cls-1" d="m120.66,79.72v-12.74h2.22v12.74h-2.22Z"/>
        <path class="cls-1" d="m138.82,73.41c.9.7,1.35,1.57,1.35,2.6s-.42,1.84-1.28,2.54c-.93.77-2.2,1.15-3.81,1.15h-9.13v-12.74h9.13c1.61,0,2.88.4,3.81,1.19.85.71,1.28,1.58,1.28,2.61s-.45,1.94-1.35,2.66Zm-3.39,4.08c.82,0,1.46-.15,1.95-.46.43-.27.64-.61.64-1.01s-.22-.74-.66-1.01c-.47-.32-1.12-.48-1.93-.48h-5.97v-2.22h5.97c.82,0,1.46-.17,1.93-.5.44-.3.66-.66.66-1.08s-.21-.79-.64-1.08c-.48-.32-1.13-.48-1.95-.48h-7.27v8.31h7.27Z"/>
        <path class="cls-1" d="m142.84,79.72v-12.74h2.22v12.74h-2.22Z"/>
        <path class="cls-1" d="m147.49,79.72v-12.74h2.22v10.53h8.77v2.22h-10.99Z"/>
        <path class="cls-1" d="m160.5,79.72v-12.74h2.22v12.74h-2.22Z"/>
        <path class="cls-1" d="m172.18,69.19v10.53h-2.22v-10.53h-5.03v-2.22h12.27v2.22h-5.02Z"/>
        <path class="cls-1" d="m186.31,79.72h-2.21v-4.25l-6.49-8.49h2.86l4.81,6.29,4.5-6.29h2.85l-6.31,8.53v4.22Z"/>
      </g>
    </g>
  </g>
</svg>