<?xml version="1.0" encoding="utf-8"?>
<!-- Generator: $$$/GeneralStr/196=Adobe Illustrator 27.6.0, SVG Export Plug-In . SVG Version: 6.00 Build 0)  -->
<svg version="1.1" id="圖層_1" xmlns="http://www.w3.org/2000/svg" xmlns:xlink="http://www.w3.org/1999/xlink" x="0px" y="0px"
	 width="32px" height="32px" viewBox="0 0 32 32" style="enable-background:new 0 0 32 32;" xml:space="preserve">
<style type="text/css">
	.st0{fill:#3B5998;}
	.st1{fill:#FFFFFF;}
</style>
<g>
	<path class="st0" d="M16,0.8C7.6,0.8,0.8,7.6,0.8,16c0,7.6,5.5,13.8,12.7,15V20.7H9.4v-4.6h4.1v-3.5c0-4,2.4-6.2,6-6.2
		c1.8,0,3.6,0.3,3.6,0.3v4h-2c-2,0-2.6,1.2-2.6,2.5v3h4.4l-0.7,4.6h-3.7V31c7.2-1.2,12.7-7.5,12.7-15C31.2,7.6,24.4,0.8,16,0.8z"/>
	<path class="st1" d="M16,0C7.2,0,0,7.2,0,16c0,7.8,5.5,14.2,12.9,15.7c0.6,0.1,1.2,0.2,1.8,0.2c0.4,0,0.9,0.1,1.3,0.1c0,0,0,0,0,0
		h0c0.4,0,0.9,0,1.3-0.1c0.6-0.1,1.2-0.1,1.8-0.2C26.5,30.2,32,23.8,32,16C32,7.2,24.8,0,16,0z M18.5,31V20.7h3.7l0.7-4.6h-4.4v-3
		c0-1.3,0.6-2.5,2.6-2.5h2v-4c0,0-1.8-0.3-3.6-0.3c-3.7,0-6,2.2-6,6.2v3.5H9.4v4.6h4.1V31C6.3,29.8,0.8,23.6,0.8,16
		C0.8,7.6,7.6,0.8,16,0.8S31.2,7.6,31.2,16C31.2,23.6,25.7,29.8,18.5,31z"/>
</g>
</svg>
