<?xml version="1.0" encoding="utf-8"?>
<!-- Generator: Adobe Illustrator 15.0.2, SVG Export Plug-In . SVG Version: 6.00 Build 0)  -->
<!DOCTYPE svg PUBLIC "-//W3C//DTD SVG 1.1//EN" "http://www.w3.org/Graphics/SVG/1.1/DTD/svg11.dtd">
<svg version="1.1" id="圖層_1" xmlns="http://www.w3.org/2000/svg" xmlns:xlink="http://www.w3.org/1999/xlink" x="0px" y="0px"
	 width="768.605px" height="456.977px" viewBox="0 0 768.605 456.977" enable-background="new 0 0 768.605 456.977"
	 xml:space="preserve">
<g opacity="0.2">
	<path fill="#C9C9CA" d="M134.899,108.144c-0.25-3.223-5.26-2.834-5.005,0.391C130.151,111.751,135.154,111.366,134.899,108.144"/>
	<path fill="#C9C9CA" d="M141.965,99.86c-0.253-3.219-5.258-2.828-5,0.396C137.216,103.478,142.218,103.083,141.965,99.86"/>
	<path fill="#C9C9CA" d="M121.894,120.534c-0.249-3.215-5.253-2.824-4.999,0.393C117.149,124.146,122.156,123.757,121.894,120.534"
		/>
	<path fill="#C9C9CA" d="M145.934,82.085c-0.258-3.213-5.259-2.822-5.007,0.402C141.183,85.704,146.187,85.313,145.934,82.085"/>
	<path fill="#C9C9CA" d="M147.283,65.194c-0.255-3.219-5.252-2.826-5.004,0.404C142.54,68.812,147.537,68.423,147.283,65.194"/>
	<path fill="#C9C9CA" d="M163.395,60.903c-0.254-3.217-5.246-2.826-5.002,0.398C158.648,64.513,163.649,64.122,163.395,60.903"/>
	<path fill="#C9C9CA" d="M166.862,49.548c-0.257-3.215-5.251-2.828-5.004,0.393C162.117,53.165,167.113,52.771,166.862,49.548"/>
	<path fill="#C9C9CA" d="M174.309,63.063c-0.26-3.221-5.252-2.83-5.003,0.389C169.558,66.673,174.56,66.284,174.309,63.063"/>
	<path fill="#C9C9CA" d="M191.276,73.812c-0.261-3.223-5.257-2.84-5.005,0.387C186.521,77.421,191.523,77.026,191.276,73.812"/>
	<path fill="#C9C9CA" d="M219.067,72.95c-0.254-3.217-5.254-2.828-5,0.398C214.325,76.558,219.326,76.173,219.067,72.95"/>
	<path fill="#C9C9CA" d="M238.357,66.394c-0.259-3.223-5.254-2.828-5.005,0.395C233.608,70.009,238.614,69.61,238.357,66.394"/>
	<path fill="#C9C9CA" d="M251.286,64.366c-0.253-3.225-5.259-2.836-5.001,0.389C246.544,67.978,251.544,67.583,251.286,64.366"/>
	<path fill="#C9C9CA" d="M263.525,70.446c-0.253-3.219-5.266-2.832-5.009,0.393C258.771,74.056,263.773,73.675,263.525,70.446"/>
	<path fill="#C9C9CA" d="M278.367,75.651c-0.255-3.221-5.252-2.828-5,0.396C273.625,79.263,278.623,78.872,278.367,75.651"/>
	<path fill="#C9C9CA" d="M291.951,77.595c-0.259-3.223-5.258-2.824-5.004,0.395C287.204,81.212,292.207,80.825,291.951,77.595"/>
	<path fill="#C9C9CA" d="M309.457,90.991c-0.249-3.223-5.252-2.834-5.001,0.385C304.712,94.603,309.713,94.216,309.457,90.991"/>
	<path fill="#C9C9CA" d="M323.792,93.882c-0.257-3.221-5.262-2.828-5.005,0.396C319.037,97.495,324.039,97.106,323.792,93.882"/>
	<path fill="#C9C9CA" d="M335.986,99.632c-0.252-3.217-5.249-2.822-5.004,0.395C331.245,103.253,336.249,102.862,335.986,99.632"/>
	<path fill="#C9C9CA" d="M346.631,94.093c-0.257-3.223-5.255-2.826-5.008,0.395C341.884,97.708,346.887,97.31,346.631,94.093"/>
	<path fill="#C9C9CA" d="M370.823,98.562c-0.26-3.221-5.258-2.83-5.003,0.396C366.072,102.173,371.077,101.78,370.823,98.562"/>
	<path fill="#C9C9CA" d="M398.144,104.458c-0.254-3.219-5.253-2.83-4.999,0.395C393.4,108.069,398.396,107.683,398.144,104.458"/>
	<path fill="#C9C9CA" d="M420.507,107.054c-0.25-3.221-5.256-2.828-5.003,0.393C415.761,110.669,420.765,110.276,420.507,107.054"/>
	<path fill="#C9C9CA" d="M447.15,108.647c-0.249-3.223-5.254-2.836-4.99,0.389C442.408,112.259,447.406,111.866,447.15,108.647"/>
	<path fill="#C9C9CA" d="M466.616,112.813c-0.253-3.221-5.253-2.834-4.995,0.389S466.876,116.036,466.616,112.813"/>
	<path fill="#C9C9CA" d="M483.267,119.554c-0.253-3.221-5.26-2.836-4.999,0.393C478.517,123.163,483.523,122.78,483.267,119.554"/>
	<path fill="#C9C9CA" d="M503.107,119.993c-0.254-3.215-5.253-2.82-4.996,0.396C498.361,123.61,503.365,123.22,503.107,119.993"/>
	<path fill="#C9C9CA" d="M524.824,131.372c-0.252-3.217-5.258-2.824-5.002,0.398C520.08,134.987,525.076,134.601,524.824,131.372"/>
	<path fill="#C9C9CA" d="M547.533,142.671c-0.254-3.215-5.252-2.824-4.994,0.395C542.792,146.284,547.792,145.897,547.533,142.671"
		/>
	<path fill="#C9C9CA" d="M553.001,152.315c-0.262-3.217-5.254-2.83-5.006,0.391C548.253,155.923,553.254,155.538,553.001,152.315"/>
	<path fill="#C9C9CA" d="M562.181,149.571c-0.253-3.217-5.25-2.826-5.001,0.396C557.436,153.185,562.441,152.794,562.181,149.571"/>
	<path fill="#C9C9CA" d="M576.833,160.839c-0.251-3.221-5.253-2.832-4.999,0.391C572.089,164.444,577.091,164.062,576.833,160.839"
		/>
	<path fill="#C9C9CA" d="M589.701,174.927c-0.253-3.219-5.259-2.828-5.002,0.395C584.954,178.536,589.955,178.151,589.701,174.927"
		/>
	<path fill="#C9C9CA" d="M609.35,181.433c-0.255-3.221-5.251-2.834-5.003,0.395C604.599,185.044,609.607,184.655,609.35,181.433"/>
	<path fill="#C9C9CA" d="M631.642,187.392c-0.252-3.219-5.256-2.832-5.005,0.393C626.898,191.005,631.901,190.616,631.642,187.392"
		/>
	<path fill="#C9C9CA" d="M648.462,192.106c-0.254-3.221-5.254-2.826-4.998,0.389C643.716,195.718,648.719,195.329,648.462,192.106"
		/>
	<path fill="#C9C9CA" d="M662.706,189.638c-0.253-3.221-5.258-2.83-5.002,0.389C657.958,193.245,662.958,192.86,662.706,189.638"/>
	<path fill="#C9C9CA" d="M680.746,188.546c-0.253-3.219-5.256-2.832-5.002,0.396C676.005,192.153,681.005,191.771,680.746,188.546"
		/>
	<path fill="#C9C9CA" d="M697.732,186.868c-0.25-3.217-5.25-2.834-4.998,0.396C692.992,190.483,697.994,190.093,697.732,186.868"/>
	<path fill="#C9C9CA" d="M706.455,195.243c-0.25-3.221-5.256-2.83-5.002,0.395C701.71,198.854,706.709,198.472,706.455,195.243"/>
	<path fill="#C9C9CA" d="M721.205,190.72c-0.252-3.215-5.252-2.83-4.999,0.395C716.463,194.337,721.458,193.946,721.205,190.72"/>
	<path fill="#C9C9CA" d="M713.079,206.804c-0.257-3.217-5.259-2.828-5.003,0.396C708.333,210.415,713.333,210.032,713.079,206.804"
		/>
	<path fill="#C9C9CA" d="M718.716,214.417c-0.256-3.221-5.259-2.824-5,0.395C713.968,218.032,718.974,217.642,718.716,214.417"/>
	<path fill="#C9C9CA" d="M701.532,222.151c-0.257-3.217-5.251-2.828-5.003,0.395C696.787,225.767,701.792,225.374,701.532,222.151"
		/>
	<path fill="#C9C9CA" d="M690.743,217.296c-0.258-3.213-5.258-2.826-5.002,0.396C685.996,220.911,690.996,220.524,690.743,217.296"
		/>
	<path fill="#C9C9CA" d="M669.115,224.042c-0.251-3.221-5.257-2.83-4.998,0.395C664.371,227.655,669.373,227.271,669.115,224.042"/>
	<path fill="#C9C9CA" d="M648.917,236.046c-0.252-3.219-5.26-2.83-5.002,0.4C644.167,239.655,649.173,239.274,648.917,236.046"/>
	<path fill="#C9C9CA" d="M637.429,252.063c-0.258-3.217-5.261-2.834-5.006,0.395C632.684,255.671,637.682,255.282,637.429,252.063"
		/>
	<path fill="#C9C9CA" d="M627.962,268.255c-0.262-3.221-5.256-2.83-5.004,0.391C623.214,271.864,628.218,271.476,627.962,268.255"/>
	<path fill="#C9C9CA" d="M622.183,280.126c-0.251-3.225-5.26-2.828-5,0.391C617.442,283.737,622.439,283.349,622.183,280.126"/>
	<path fill="#C9C9CA" d="M611.376,292.06c-0.25-3.223-5.255-2.83-5.002,0.395C606.63,295.671,611.636,295.278,611.376,292.06"/>
	<path fill="#C9C9CA" d="M598.281,300.476c-0.256-3.219-5.26-2.826-5.002,0.395C593.531,304.091,598.537,303.7,598.281,300.476"/>
	<path fill="#C9C9CA" d="M588.083,298.937c-0.25-3.221-5.25-2.836-5.001,0.393C583.341,302.544,588.34,302.151,588.083,298.937"/>
	<path fill="#C9C9CA" d="M564.546,311.2c-0.254-3.219-5.252-2.83-5,0.395C559.806,314.813,564.802,314.427,564.546,311.2"/>
	<path fill="#C9C9CA" d="M553.109,315.126c-0.258-3.217-5.261-2.828-5.004,0.393C548.355,318.739,553.365,318.354,553.109,315.126"
		/>
	<path fill="#C9C9CA" d="M537.775,325.067c-0.25-3.219-5.252-2.826-4.998,0.393C533.035,328.683,538.033,328.29,537.775,325.067"/>
	<path fill="#C9C9CA" d="M530.362,337.403c-0.253-3.223-5.255-2.826-5.003,0.396C525.617,341.013,530.619,340.626,530.362,337.403"
		/>
	<path fill="#C9C9CA" d="M520.813,339.835c-0.253-3.223-5.251-2.828-4.999,0.391C516.07,343.448,521.07,343.058,520.813,339.835"/>
	<path fill="#C9C9CA" d="M514.282,333.638c-0.256-3.221-5.253-2.832-4.999,0.396C509.539,337.249,514.539,336.858,514.282,333.638"
		/>
	<path fill="#C9C9CA" d="M497.445,332.956c-0.252-3.219-5.256-2.83-4.999,0.393C492.703,336.567,497.699,336.183,497.445,332.956"/>
	<path fill="#C9C9CA" d="M483.091,329.724c-0.254-3.215-5.254-2.83-5.006,0.393C478.343,333.337,483.352,332.952,483.091,329.724"/>
	<path fill="#C9C9CA" d="M465.011,326.118c-0.256-3.221-5.256-2.832-5.004,0.393C460.269,329.724,465.268,329.341,465.011,326.118"
		/>
	<path fill="#C9C9CA" d="M447.335,331.878c-0.252-3.221-5.253-2.828-4.997,0.395C442.588,335.489,447.589,335.101,447.335,331.878"
		/>
	<path fill="#C9C9CA" d="M418.121,327.468c-0.256-3.213-5.254-2.822-5.002,0.4C413.369,331.085,418.375,330.7,418.121,327.468"/>
	<path fill="#C9C9CA" d="M393.818,317.312c-0.258-3.221-5.256-2.83-5.006,0.391C389.066,320.921,394.072,320.536,393.818,317.312"/>
	<path fill="#C9C9CA" d="M369.968,304.419c-0.255-3.219-5.258-2.83-5.004,0.395C365.22,308.032,370.22,307.644,369.968,304.419"/>
	<path fill="#C9C9CA" d="M347.43,291.091c-0.253-3.211-5.254-2.824-5.006,0.398C342.681,294.706,347.688,294.321,347.43,291.091"/>
	<path fill="#C9C9CA" d="M326.903,281.974c-0.254-3.219-5.258-2.822-5.003,0.393C322.159,285.585,327.156,285.194,326.903,281.974"
		/>
	<path fill="#C9C9CA" d="M304.145,274.368c-0.253-3.213-5.26-2.822-4.997,0.4C299.398,277.983,304.398,277.591,304.145,274.368"/>
	<path fill="#C9C9CA" d="M283.382,262.249c-0.258-3.223-5.259-2.824-5.007,0.396C278.633,265.86,283.632,265.472,283.382,262.249"/>
	<path fill="#C9C9CA" d="M255.326,251.376c-0.252-3.219-5.257-2.83-5,0.393C250.576,254.983,255.583,254.597,255.326,251.376"/>
	<path fill="#C9C9CA" d="M242.52,237.948c-0.254-3.217-5.26-2.826-5.003,0.396C237.767,241.565,242.771,241.175,242.52,237.948"/>
	<path fill="#C9C9CA" d="M230.144,225.837c-0.255-3.219-5.253-2.83-5.003,0.389C225.397,229.45,230.398,229.06,230.144,225.837"/>
	<path fill="#C9C9CA" d="M208.411,218.487c-0.252-3.219-5.249-2.826-5.001,0.391C203.671,222.104,208.67,221.71,208.411,218.487"/>
	<path fill="#C9C9CA" d="M190.046,211.21c-0.257-3.225-5.256-2.83-5.007,0.393C185.298,214.825,190.303,214.437,190.046,211.21"/>
	<path fill="#C9C9CA" d="M169.195,193.726c-0.258-3.221-5.256-2.84-5.005,0.389C164.44,197.335,169.442,196.948,169.195,193.726"/>
	<path fill="#C9C9CA" d="M156.427,168.208c-0.25-3.219-5.25-2.822-5.001,0.396C151.681,171.823,156.694,171.435,156.427,168.208"/>
	<path fill="#C9C9CA" d="M147.379,147.104c-0.259-3.215-5.259-2.828-5.002,0.387C142.634,150.72,147.635,150.327,147.379,147.104"/>
	<path fill="#C9C9CA" d="M126.717,136.319c-0.255-3.23-5.256-2.84-5.001,0.393C121.969,139.929,126.975,139.538,126.717,136.319"/>
	<path fill="#C9C9CA" d="M95.433,257.698c-0.244-3.045-4.974-2.676-4.731,0.367C90.939,261.114,95.674,260.741,95.433,257.698"/>
	<path fill="#C9C9CA" d="M103.738,250.37c-0.24-3.041-4.966-2.672-4.731,0.377C99.25,253.79,103.981,253.421,103.738,250.37"/>
	<path fill="#C9C9CA" d="M114.084,252.726c-0.24-3.039-4.973-2.672-4.733,0.377C109.595,256.147,114.327,255.78,114.084,252.726"/>
	<path fill="#C9C9CA" d="M111.265,265.333c-0.239-3.047-4.965-2.678-4.727,0.369C106.778,268.745,111.511,268.378,111.265,265.333"
		/>
	<path fill="#C9C9CA" d="M119.831,273.226c-0.244-3.043-4.966-2.672-4.729,0.369C115.337,276.642,120.071,276.274,119.831,273.226"
		/>
	<path fill="#C9C9CA" d="M116.323,281.12c-0.24-3.043-4.969-2.678-4.721,0.369C111.836,284.534,116.571,284.165,116.323,281.12"/>
	<path fill="#C9C9CA" d="M111.242,277.077c-0.235-3.047-4.964-2.678-4.727,0.375C106.755,280.493,111.486,280.128,111.242,277.077"
		/>
	<path fill="#C9C9CA" d="M105.139,280.095c-0.244-3.043-4.972-2.664-4.734,0.379C100.645,283.517,105.374,283.147,105.139,280.095"
		/>
	<path fill="#C9C9CA" d="M105.058,267.095c-0.239-3.043-4.973-2.682-4.728,0.367C100.569,270.507,105.304,270.14,105.058,267.095"/>
	<path fill="#C9C9CA" d="M108.45,285.866c-0.24-3.037-4.967-2.674-4.729,0.373C103.963,289.282,108.696,288.915,108.45,285.866"/>
	<path fill="#C9C9CA" d="M115.725,293.544c-0.241-3.045-4.974-2.672-4.734,0.377C111.232,296.962,115.958,296.593,115.725,293.544"
		/>
	<path fill="#C9C9CA" d="M117.142,287.401c-0.243-3.045-4.971-2.674-4.73,0.373C112.658,290.815,117.379,290.45,117.142,287.401"/>
	<path fill="#C9C9CA" d="M187.643,323.632c-0.243-3.043-4.968-2.676-4.729,0.375C183.152,327.05,187.887,326.679,187.643,323.632"/>
	<path fill="#C9C9CA" d="M217.334,310.038c-0.235-3.045-4.965-2.67-4.724,0.371C212.852,313.45,217.579,313.089,217.334,310.038"/>
	<path fill="#C9C9CA" d="M218.617,317.876c-0.239-3.043-4.966-2.672-4.723,0.375C214.132,321.294,218.856,320.925,218.617,317.876"
		/>
	<path fill="#C9C9CA" d="M226.837,325.497c-0.243-3.037-4.973-2.668-4.735,0.373C222.348,328.917,227.077,328.546,226.837,325.497"
		/>
	<path fill="#C9C9CA" d="M215.207,329.063c-0.24-3.043-4.975-2.668-4.731,0.371C210.713,332.479,215.44,332.114,215.207,329.063"/>
	<path fill="#C9C9CA" d="M210.593,316.858c-0.229-3.047-4.962-2.678-4.724,0.367C206.111,320.274,210.838,319.905,210.593,316.858"
		/>
	<path fill="#C9C9CA" d="M200.972,333.171c-0.241-3.043-4.971-2.682-4.731,0.373C196.482,336.583,201.208,336.218,200.972,333.171"
		/>
	<path fill="#C9C9CA" d="M199.004,325.052c-0.244-3.045-4.966-2.676-4.729,0.375C194.516,328.47,199.246,328.101,199.004,325.052"/>
	<path fill="#C9C9CA" d="M205.887,324.177c-0.247-3.045-4.978-2.67-4.734,0.373C201.395,327.595,206.121,327.224,205.887,324.177"/>
	<path fill="#C9C9CA" d="M206.013,338.396c-0.239-3.045-4.966-2.68-4.724,0.367C201.528,341.813,206.256,341.446,206.013,338.396"/>
	<path fill="#C9C9CA" d="M217.599,338.474c-0.236-3.049-4.966-2.674-4.726,0.371C213.113,341.886,217.847,341.519,217.599,338.474"
		/>
	<path fill="#C9C9CA" d="M239.87,342.271c-0.236-3.045-4.964-2.672-4.727,0.371C235.387,345.685,240.116,345.319,239.87,342.271"/>
	<path fill="#C9C9CA" d="M275.72,350.185c-0.245-3.039-4.966-2.666-4.725,0.377C271.235,353.603,275.963,353.239,275.72,350.185"/>
	<path fill="#C9C9CA" d="M650.261,277.058c-0.246-3.23-5.253-2.834-5.001,0.395C645.518,280.663,650.517,280.274,650.261,277.058"/>
	<path fill="#C9C9CA" d="M679.492,88.907c-0.254-3.217-5.256-2.818-5.002,0.396C674.749,92.528,679.743,92.134,679.492,88.907"/>
	<path fill="#C9C9CA" d="M679.363,78.425c-0.256-3.221-5.252-2.826-4.999,0.391C674.615,82.036,679.615,81.646,679.363,78.425"/>
	<path fill="#C9C9CA" d="M693.082,74.886c-0.255-3.219-5.254-2.822-5,0.395C688.33,78.503,693.335,78.114,693.082,74.886"/>
	<path fill="#C9C9CA" d="M563.438,100.276c-0.258-3.215-5.265-2.826-4.999,0.398C558.685,103.892,563.691,103.505,563.438,100.276"
		/>
	<path fill="#C9C9CA" d="M564.139,91.474c-0.256-3.217-5.256-2.824-4.999,0.395C559.385,95.093,564.396,94.698,564.139,91.474"/>
	<path fill="#C9C9CA" d="M572.917,91.831c-0.253-3.219-5.261-2.832-5.001,0.391C568.169,95.44,573.173,95.06,572.917,91.831"/>
	<path fill="#C9C9CA" d="M152.075,109.179c-0.259-3.213-5.25-2.822-5.003,0.398C147.331,112.794,152.334,112.407,152.075,109.179"/>
	<path fill="#C9C9CA" d="M158.858,87.974c-0.251-3.221-5.256-2.83-5.005,0.391C154.111,91.579,159.113,91.192,158.858,87.974"/>
	<path fill="#C9C9CA" d="M139.497,122.39c-0.259-3.223-5.254-2.828-5.004,0.396C134.746,126.007,139.755,125.616,139.497,122.39"/>
	<path fill="#C9C9CA" d="M177.264,112.831c-0.255-3.219-5.255-2.834-4.997,0.393C172.526,116.438,177.521,116.052,177.264,112.831"
		/>
	<path fill="#C9C9CA" d="M158.308,134.53c-0.253-3.221-5.254-2.83-5,0.389C153.556,138.14,158.565,137.753,158.308,134.53"/>
	<path fill="#C9C9CA" d="M175.286,147.282c-0.25-3.223-5.247-2.828-5.001,0.396C170.547,150.899,175.544,150.507,175.286,147.282"/>
	<path fill="#C9C9CA" d="M199.836,154.733c-0.248-3.221-5.25-2.822-4.995,0.4C195.095,158.349,200.094,157.962,199.836,154.733"/>
	<path fill="#C9C9CA" d="M212.016,136.394c-0.256-3.215-5.254-2.832-5,0.393C207.27,140.007,212.273,139.614,212.016,136.394"/>
	<path fill="#C9C9CA" d="M230.469,132.116c-0.252-3.223-5.247-2.83-4.999,0.389C225.725,135.726,230.729,135.341,230.469,132.116"/>
	<path fill="#C9C9CA" d="M200.546,98.31c-0.251-3.23-5.255-2.834-4.997,0.391C195.802,101.917,200.806,101.526,200.546,98.31"/>
	<path fill="#C9C9CA" d="M209.049,176.091c-0.017-0.154-0.023-0.303-0.045-0.463c-0.043-0.645-0.375-1.293-0.869-1.711
		c-0.461-0.396-1.202-0.67-1.821-0.596c-0.641,0.084-1.301,0.348-1.714,0.879c-0.412,0.523-0.641,1.141-0.586,1.818
		c0.009,0.158,0.019,0.313,0.032,0.471c0.05,0.639,0.381,1.291,0.878,1.709c0.466,0.402,1.202,0.67,1.823,0.59
		c0.641-0.076,1.296-0.342,1.711-0.867C208.865,177.394,209.102,176.771,209.049,176.091"/>
	<path fill="#C9C9CA" d="M248.602,141.485c-0.255-3.219-5.268-2.824-5.008,0.396C243.852,145.104,248.852,144.718,248.602,141.485"
		/>
	<path fill="#C9C9CA" d="M262.924,192.036c-0.253-3.215-5.252-2.826-4.998,0.395C258.183,195.653,263.187,195.265,262.924,192.036"
		/>
	<path fill="#C9C9CA" d="M275.421,153.938c-0.252-3.225-5.254-2.836-4.995,0.383C270.674,157.546,275.68,157.159,275.421,153.938"/>
	<path fill="#C9C9CA" d="M287.968,122.401c-0.255-3.219-5.264-2.83-5.008,0.395C283.221,126.015,288.222,125.628,287.968,122.401"/>
	<path fill="#C9C9CA" d="M314.276,146.165c-0.26-3.215-5.256-2.828-5.004,0.395C309.526,149.774,314.532,149.388,314.276,146.165"/>
	<path fill="#C9C9CA" d="M299.885,190.06c-0.248-3.223-5.249-2.832-4.999,0.395C295.14,193.667,300.146,193.278,299.885,190.06"/>
	<path fill="#C9C9CA" d="M300.207,223.862c-0.25-3.225-5.253-2.834-4.997,0.393C295.463,227.472,300.464,227.091,300.207,223.862"/>
	<path fill="#C9C9CA" d="M374.492,153.153c-0.249-3.221-5.252-2.828-4.992,0.391C369.748,156.767,374.753,156.376,374.492,153.153"
		/>
	<path fill="#C9C9CA" d="M418.542,157.655c-0.253-3.217-5.251-2.824-4.999,0.395C413.802,161.271,418.805,160.88,418.542,157.655"/>
	<path fill="#C9C9CA" d="M331.191,199.798c-0.25-3.217-5.249-2.826-4.991,0.393C326.447,203.409,331.455,203.021,331.191,199.798"/>
	<path fill="#C9C9CA" d="M356.234,249.03c-0.258-3.217-5.261-2.826-5.003,0.395C351.487,252.644,356.493,252.257,356.234,249.03"/>
	<path fill="#C9C9CA" d="M330.135,257.673c-0.25-3.219-5.26-2.826-5.004,0.395C325.391,261.288,330.391,260.901,330.135,257.673"/>
	<path fill="#C9C9CA" d="M266.841,241.532c-0.252-3.221-5.259-2.824-5.003,0.395C262.093,245.142,267.097,244.755,266.841,241.532"
		/>
	<path fill="#C9C9CA" d="M388.074,206.108c-0.253-3.217-5.25-2.824-4.995,0.395C383.322,209.72,388.331,209.329,388.074,206.108"/>
	<path fill="#C9C9CA" d="M392.256,247.126c-0.252-3.219-5.257-2.834-5.001,0.393C387.514,250.737,392.514,250.347,392.256,247.126"
		/>
	<path fill="#C9C9CA" d="M355.164,280.497c0.143-0.166,0.28-0.332,0.433-0.502c0.415-0.494,0.638-1.186,0.587-1.83
		c-0.049-0.615-0.38-1.324-0.871-1.713c-0.515-0.398-1.162-0.67-1.829-0.588c-0.653,0.082-1.265,0.355-1.711,0.867
		c-0.142,0.168-0.281,0.342-0.431,0.506c-0.413,0.492-0.64,1.188-0.584,1.83c0.045,0.611,0.373,1.33,0.868,1.703
		c0.517,0.406,1.163,0.682,1.827,0.598C354.115,281.29,354.723,281.017,355.164,280.497"/>
	<path fill="#C9C9CA" d="M425.902,238.831c-0.258-3.219-5.258-2.83-5.002,0.391C421.152,242.444,426.16,242.058,425.902,238.831"/>
	<path fill="#C9C9CA" d="M418.716,272.759c-0.257-3.219-5.257-2.838-5.003,0.396C413.97,276.372,418.974,275.976,418.716,272.759"/>
	<path fill="#C9C9CA" d="M450.401,186.149c-0.258-3.217-5.255-2.828-4.999,0.395C445.65,189.761,450.658,189.372,450.401,186.149"/>
	<path fill="#C9C9CA" d="M491.439,247.745c-0.254-3.223-5.256-2.836-5.002,0.393C486.69,251.354,491.701,250.968,491.439,247.745"/>
	<path fill="#C9C9CA" d="M453.429,277.999c-0.26-3.217-5.262-2.828-5,0.393C448.678,281.614,453.684,281.226,453.429,277.999"/>
	<path fill="#C9C9CA" d="M470.457,297.325c-0.248-3.223-5.251-2.828-4.99,0.396C465.716,300.935,470.716,300.548,470.457,297.325"/>
	<path fill="#C9C9CA" d="M477.412,180.624c0.148-0.166,0.289-0.332,0.432-0.498c0.417-0.488,0.648-1.189,0.6-1.824
		c-0.047-0.617-0.384-1.332-0.881-1.715c-0.506-0.398-1.155-0.676-1.82-0.588c-0.662,0.076-1.268,0.35-1.711,0.867
		c-0.146,0.166-0.285,0.338-0.427,0.502c-0.425,0.496-0.646,1.186-0.591,1.83c0.039,0.605,0.375,1.32,0.866,1.707
		c0.513,0.404,1.163,0.676,1.83,0.59C476.363,181.411,476.976,181.142,477.412,180.624"/>
	<path fill="#C9C9CA" d="M524.869,207.048c-0.006-0.158-0.017-0.311-0.029-0.471c-0.055-0.641-0.379-1.295-0.875-1.709
		c-0.465-0.402-1.209-0.672-1.828-0.592c-0.645,0.08-1.297,0.344-1.705,0.873c-0.416,0.527-0.65,1.146-0.594,1.826
		c0.008,0.152,0.024,0.309,0.035,0.465c0.053,0.639,0.387,1.289,0.875,1.711c0.466,0.396,1.206,0.666,1.824,0.594
		c0.646-0.08,1.302-0.352,1.713-0.869C524.691,208.345,524.929,207.722,524.869,207.048"/>
	<path fill="#C9C9CA" d="M568.179,196.106c-0.254-3.217-5.264-2.824-5.004,0.393C563.427,199.72,568.433,199.333,568.179,196.106"/>
	<path fill="#C9C9CA" d="M563.903,266.919c-0.256-3.221-5.251-2.826-4.999,0.398C559.158,270.534,564.16,270.146,563.903,266.919"/>
	<path fill="#C9C9CA" d="M618.615,216.085c-0.254-3.221-5.258-2.83-4.998,0.395C613.873,219.696,618.87,219.304,618.615,216.085"/>
	<path fill="#C9C9CA" d="M650.468,208.866c-0.258-3.215-5.259-2.824-5.002,0.398C645.72,212.478,650.723,212.091,650.468,208.866"/>
	<path fill="#C9C9CA" d="M542.29,308.565c-0.25-3.221-5.255-2.834-4.997,0.395C537.546,312.175,542.546,311.786,542.29,308.565"/>
	<path fill="#C9C9CA" d="M719.042,190.89c-0.003,0.059-0.015,0.119-0.04,0.18l-8.03,15.898l5.513,7.443
		c0.064,0.086,0.086,0.189,0.055,0.287c-0.03,0.1-0.097,0.18-0.189,0.219l-17.185,7.74c-0.081,0.033-0.18,0.033-0.273-0.002
		l-10.67-4.803l-21.471,6.697l-20.101,11.947l-11.451,15.959l-9.447,16.16l-5.764,11.852c-0.018,0.027-0.033,0.057-0.053,0.078
		l-10.812,11.938c-0.021,0.021-0.042,0.039-0.066,0.053l-13.1,8.426c-0.065,0.041-0.148,0.059-0.226,0.043l-10.094-1.529
		l-23.436,12.219l-11.445,3.93l-15.23,9.881l-7.377,12.27c-0.051,0.074-0.121,0.129-0.212,0.152l-9.536,2.426
		c-0.111,0.029-0.229,0.002-0.317-0.076l-6.438-6.113l-16.719-0.68c-0.018,0.004-0.035,0-0.053-0.008l-14.359-3.225l-17.981-3.59
		l-17.588,5.734c-0.052,0.016-0.116,0.021-0.158,0.014l-29.22-4.408c-0.025-0.004-0.055-0.012-0.082-0.018l-24.297-10.17
		l-23.875-12.904l-22.561-13.33l-20.491-9.102l-22.726-7.592c-0.02-0.008-0.04-0.016-0.058-0.027l-20.765-12.119l-28.004-10.859
		c-0.051-0.018-0.094-0.043-0.128-0.078l-12.814-13.422l-12.309-12.057l-21.651-7.322c-4.245-1.404-18.139-6.107-18.587-7.486
		c-0.455-1.039-12.654-10.934-20.743-17.334c-0.036-0.031-0.064-0.068-0.084-0.111l-12.76-25.51l-9.021-21.02l-20.546-10.734
		c-0.085-0.039-0.138-0.109-0.163-0.195l-4.827-15.785c-0.042-0.119,0-0.248,0.091-0.336l12.997-12.395l6.995-8.191l3.943-17.688
		l1.344-16.85c0.015-0.139,0.11-0.262,0.252-0.297l15.929-4.248l3.413-11.176c0.037-0.123,0.147-0.217,0.285-0.23
		c0.133-0.016,0.266,0.057,0.329,0.166l7.405,13.434l16.797,10.646l27.654-0.844l19.233-6.545c0.022-0.01,0.041-0.012,0.056-0.012
		l12.93-2.029c0.072-0.016,0.14-0.002,0.204,0.029l12.235,6.082l14.773,5.172l13.554,1.947c0.065,0.012,0.107,0.033,0.156,0.068
		L307.1,90.872l14.255,2.883c0.024,0.004,0.048,0.008,0.068,0.021l12.061,5.682l10.494-5.465c0.064-0.037,0.139-0.045,0.211-0.033
		l24.192,4.469l27.332,5.898l22.333,2.59l26.626,1.588l19.514,4.176c0.025,0,0.041,0.006,0.062,0.018l16.587,6.723l19.781,0.436
		c0.049,0.01,0.1,0.018,0.146,0.043l21.719,11.371l22.699,11.303c0.064,0.021,0.118,0.072,0.152,0.133l5.328,9.412l8.928-2.668
		c0.1-0.033,0.209-0.012,0.3,0.047l14.659,11.268c0.007,0.016,0.028,0.025,0.039,0.041l12.802,14.027l19.571,6.477l22.268,5.953
		l16.757,4.695l14.165-2.451l18.078-1.096l16.976-1.676c0.099-0.016,0.192,0.02,0.271,0.088l8.572,8.24l14.563-4.463
		c0.127-0.045,0.271-0.004,0.348,0.102C719.007,190.753,719.039,190.825,719.042,190.89 M710.248,207.032
		c-0.01-0.064-0.002-0.125,0.033-0.184l7.771-15.385l-13.999,4.297c-0.116,0.033-0.244,0.006-0.327-0.08l-8.611-8.268l-16.83,1.666
		l-18.06,1.088l-14.202,2.467c-0.048,0.008-0.098,0.002-0.143-0.01l-16.83-4.715l-22.285-5.955l-19.666-6.514
		c-0.055-0.012-0.111-0.051-0.148-0.09l-12.843-14.068l-14.493-11.141l-9.025,2.691c-0.142,0.037-0.303-0.025-0.378-0.156
		l-5.415-9.549l-22.629-11.254l-21.643-11.35l-19.764-0.439c-0.041-0.004-0.08-0.008-0.119-0.027l-16.621-6.732l-19.44-4.16
		l-26.6-1.578l-22.374-2.604l-27.361-5.9l-24.06-4.445l-10.541,5.482c-0.093,0.053-0.203,0.059-0.296,0.006l-12.167-5.732
		l-14.299-2.887c-0.042-0.008-0.085-0.027-0.13-0.059l-17.437-13.336l-13.497-1.934c-0.021-0.002-0.043-0.01-0.063-0.016
		l-14.851-5.207l-12.166-6.057l-12.805,2.02l-19.263,6.543c-0.031,0.012-0.066,0.021-0.094,0.025l-27.797,0.85
		c-0.073,0-0.132-0.01-0.187-0.049L171.623,63.54c-0.044-0.031-0.078-0.072-0.106-0.125l-7.07-12.816l-3.232,10.598
		c-0.039,0.113-0.125,0.193-0.233,0.217l-15.891,4.246l-1.324,16.645l-3.974,17.828c-0.015,0.053-0.041,0.098-0.075,0.145
		l-7.061,8.277l-12.875,12.275l4.713,15.447l20.534,10.727c0.069,0.035,0.13,0.09,0.154,0.166l9.058,21.109l12.714,25.424
		c3.559,2.822,20.478,16.248,20.912,17.604c0.49,0.838,9.719,4.27,18.15,7.064l21.735,7.344c0.046,0.016,0.089,0.041,0.125,0.078
		l12.368,12.119l12.771,13.373l27.979,10.848l20.785,12.133l22.722,7.594l20.564,9.129l22.573,13.344l23.844,12.877l24.226,10.133
		l29.101,4.387l17.598-5.727c0.06-0.025,0.11-0.025,0.175-0.014l18.071,3.609l14.338,3.221l16.806,0.682
		c0.082,0.004,0.16,0.041,0.215,0.096l6.404,6.066l9.229-2.352l7.344-12.217c0.036-0.047,0.068-0.08,0.111-0.109l15.326-9.939
		c0.018-0.016,0.049-0.025,0.068-0.037l11.445-3.926l23.494-12.242c0.059-0.033,0.136-0.047,0.203-0.037l10.059,1.52l12.967-8.326
		l10.75-11.857l5.746-11.836l9.477-16.209l11.508-16.037c0.027-0.043,0.063-0.076,0.104-0.102l20.203-11.998
		c0.021-0.014,0.044-0.027,0.067-0.039l21.623-6.74c0.079-0.025,0.16-0.021,0.243,0.014l10.646,4.793l16.666-7.502l-5.387-7.283
		C710.265,207.153,710.249,207.089,710.248,207.032 M144.878,147.302l-0.002-0.004L144.878,147.302z"/>
	<path fill="#C9C9CA" d="M117.775,273.388c0.011,0.051,0.001,0.104-0.021,0.148l-3.5,7.898c-0.043,0.086-0.116,0.15-0.21,0.178
		c-0.087,0.021-0.185,0.008-0.261-0.045l-5.598-3.877l-5.258,2.871c-0.102,0.057-0.22,0.049-0.317-0.008
		c-0.095-0.055-0.16-0.148-0.153-0.268l-0.082-12.877l-9.529-9.301c-0.072-0.063-0.102-0.145-0.101-0.234
		c0.006-0.084,0.044-0.172,0.107-0.23l8.313-7.32c0.076-0.064,0.179-0.092,0.276-0.072l10.344,2.355
		c0.172,0.035,0.276,0.207,0.236,0.383l-2.77,12.416l8.422,7.773C117.74,273.233,117.773,273.306,117.775,273.388 M113.83,280.831
		l3.256-7.346l-8.39-7.734c-0.089-0.074-0.125-0.197-0.093-0.309l2.742-12.289l-9.878-2.25l-7.936,6.99l9.382,9.164
		c0.068,0.051,0.096,0.131,0.102,0.217l0.072,12.482l4.972-2.719c0.102-0.053,0.23-0.049,0.327,0.02L113.83,280.831z"/>
	<path fill="#C9C9CA" d="M115.09,287.565c0.001,0.031,0.001,0.068-0.001,0.096l-1.424,6.141c-0.024,0.115-0.111,0.205-0.225,0.236
		c-0.111,0.027-0.234-0.002-0.314-0.086l-7.267-7.68c-0.101-0.102-0.117-0.254-0.053-0.365c0.062-0.119,0.197-0.184,0.333-0.168
		l8.693,1.541c0.078,0.016,0.159,0.061,0.213,0.133C115.074,287.462,115.087,287.511,115.09,287.565 M113.186,293.091l1.206-5.248
		l-7.418-1.309L113.186,293.091z"/>
	<path fill="#C9C9CA" d="M224.787,325.657c0.003,0.037-0.005,0.07-0.009,0.105c-0.031,0.115-0.121,0.209-0.233,0.23l-11.691,2.793
		c-0.157,0.039-0.315-0.047-0.37-0.195l-4.541-11.438c-0.046-0.111-0.019-0.248,0.067-0.332l6.74-6.82
		c0.081-0.084,0.208-0.115,0.326-0.084c0.11,0.041,0.202,0.137,0.215,0.26l1.267,7.73l8.13,7.549
		C224.74,325.509,224.778,325.583,224.787,325.657 M212.972,328.106l10.847-2.594l-7.771-7.219
		c-0.052-0.045-0.092-0.111-0.098-0.186l-1.183-7.221l-6.165,6.23L212.972,328.106z"/>
	<path fill="#C9C9CA" d="M203.835,324.343c0.002,0.059-0.012,0.115-0.039,0.174l-4.916,8.99c-0.057,0.115-0.183,0.176-0.316,0.16
		c-0.131-0.02-0.237-0.109-0.266-0.234l-1.962-8.117c-0.022-0.09-0.006-0.18,0.043-0.26c0.053-0.068,0.134-0.121,0.227-0.131
		l6.869-0.873c0.124-0.018,0.237,0.035,0.307,0.137C203.808,324.229,203.834,324.29,203.835,324.343 M198.721,332.487l4.225-7.727
		l-5.917,0.744L198.721,332.487z"/>
	<path fill="#C9C9CA" d="M215.555,338.636c-0.003,0.006-0.002,0.012-0.003,0.02c0.001,0.18-0.144,0.322-0.317,0.322l-11.588-0.08
		c-0.174,0-0.317-0.143-0.311-0.316c0-0.174,0.143-0.316,0.313-0.314l11.591,0.072C215.405,338.349,215.536,338.47,215.555,338.636"
		/>
	<path fill="#C9C9CA" d="M658.623,116.335c0.01,0.096-0.03,0.193-0.103,0.264l-9.429,9.1c-0.141,0.133-0.35,0.125-0.477-0.006
		c-0.128-0.133-0.12-0.344,0.014-0.475l0.084-0.084c-0.144-0.047-0.254-0.193-0.238-0.355l0.702-8.799
		c0.014-0.182,0.166-0.318,0.342-0.311l8.784,0.359c0.131,0.004,0.247,0.088,0.307,0.217
		C658.611,116.272,658.617,116.306,658.623,116.335 M649.15,124.714l8.346-8.051l-7.681-0.311L649.15,124.714z"/>
	<path fill="#C9C9CA" d="M690.91,75.063c0.012,0.09-0.023,0.189-0.088,0.256l-13.589,14.031c-0.097,0.092-0.24,0.121-0.371,0.072
		c-0.124-0.053-0.21-0.162-0.2-0.313l-0.136-10.484c0.001-0.15,0.104-0.287,0.255-0.33l13.719-3.533
		c0.145-0.037,0.299,0.021,0.369,0.156C690.894,74.964,690.91,75.011,690.91,75.063 M677.315,88.296l12.198-12.586l-12.314,3.166
		L677.315,88.296z"/>
	<path fill="#C9C9CA" d="M175.136,112.899c0.007,0.104-0.025,0.219-0.098,0.313c-0.105,0.154-0.303,0.189-0.46,0.088
		c-0.068-0.041-0.11-0.107-0.129-0.17c-2.349-0.193-22.739,5.482-36.662,9.572l18.204,11.744c0.083,0.053,0.134,0.139,0.15,0.232
		c0.012,0.1-0.014,0.197-0.081,0.266l-10.928,12.578c-0.079,0.09-0.202,0.129-0.324,0.107c-0.109-0.025-0.212-0.113-0.25-0.223
		l-7.813-24.508l-17.377-1.842c-0.188-0.018-0.316-0.184-0.3-0.365c0.018-0.182,0.188-0.311,0.368-0.289l17.53,1.844
		c0.832-0.248,9.676-2.84,18.514-5.27c18.901-5.209,19.323-4.631,19.581-4.287C175.101,112.757,175.124,112.825,175.136,112.899
		 M145.012,146.634l10.297-11.84l-17.717-11.42L145.012,146.634z"/>
	<path fill="#C9C9CA" d="M228.303,132.284c0.008,0.043-0.004,0.09-0.014,0.129c-0.038,0.111-0.133,0.195-0.238,0.225l-18.325,4.25
		l-12.113,18.232c-0.075,0.123-0.222,0.186-0.37,0.135l-24.351-7.391l-18.714,20.764c-0.125,0.139-0.333,0.148-0.474,0.025
		c-0.13-0.121-0.146-0.338-0.024-0.475l18.861-20.924c0.088-0.094,0.219-0.131,0.339-0.094l24.317,7.381l12.04-18.137
		c0.05-0.072,0.12-0.121,0.201-0.143l17.919-4.152l-29.561-33.389l-26.254-35.266c-0.113-0.152-0.082-0.361,0.063-0.469
		c0.147-0.107,0.361-0.072,0.47,0.07L198.314,98.3l29.906,33.793C228.274,132.146,228.3,132.218,228.303,132.284"/>
	<path fill="#C9C9CA" d="M285.805,122.616c0.012,0.092-0.01,0.178-0.054,0.268c-0.915,1.664-26.699,5.508-43.986,7.904l4.638,10.762
		c0.007,0.006,0,0.018,0.011,0.023l-0.007,0.004c0.028,0.068,0.029,0.145,0.005,0.213c0,0.012-0.007,0.023-0.011,0.041l0,0
		l-0.004,0.002c-0.02,0.039-0.05,0.08-0.086,0.109l-39.502,34.561l-18.974,35.063c-0.088,0.162-0.29,0.223-0.455,0.137
		c-0.156-0.094-0.218-0.291-0.135-0.457l19.006-35.115c0.021-0.035,0.044-0.068,0.074-0.092l39.182-34.283l-17.69-9.146
		c-0.126-0.068-0.203-0.209-0.171-0.352c0.022-0.146,0.137-0.254,0.277-0.281c4.012-0.525,8.391-1.109,12.884-1.732l-9.865-22.883
		c-11.348-2.988-22.912-5.967-32.972-8.531c-0.111-0.033-0.2-0.115-0.236-0.223c-0.038-0.098-0.021-0.211,0.048-0.309l18.516-25.342
		c0.074-0.104,0.188-0.15,0.311-0.137c0.115,0.006,0.216,0.084,0.268,0.197l14.558,33.789c3.294,0.863,6.669,1.742,10.048,2.65
		c43.61,11.574,44.083,12.574,44.281,13C285.786,122.509,285.803,122.565,285.805,122.616 M241.491,130.147
		c19.776-2.76,41.489-6.127,43.56-7.494c-2.149-1.367-27.022-8.178-53.279-15.076L241.491,130.147z M229.074,132.509l16.344,8.451
		l-4.344-10.08C235.973,131.591,231.676,132.159,229.074,132.509 M198.61,98.296c2.69,0.688,16.364,4.186,31.999,8.289
		l-14.12-32.762L198.61,98.296z"/>
	<path fill="#C9C9CA" d="M289.786,77.769c-0.004,0.021-0.004,0.039,0.001,0.059l-3.99,44.801c-0.004,0.031-0.011,0.07-0.026,0.1
		l-12.54,31.525l-12.336,37.619l36.473-1.947c0.19-0.016,0.338,0.123,0.347,0.307l0.004,0.004c0.009,0.189-0.126,0.348-0.309,0.355
		l-36.616,1.959l3.881,49.156c0.009,0.098-0.032,0.197-0.11,0.27c-0.072,0.072-0.171,0.1-0.272,0.084l-24.328-3.58
		c-0.153-0.021-0.262-0.145-0.282-0.291l-2.455-21.563l-9.346,9.637c-0.084,0.088-0.217,0.123-0.335,0.092
		c-0.112-0.041-0.213-0.131-0.227-0.262l-3.221-15.857l-18.038,8.75c-0.083,0.043-0.177,0.043-0.262,0.014
		c-0.084-0.029-0.153-0.092-0.189-0.174l-16.11-34.633l-22.672,10.031c-0.117,0.049-0.24,0.039-0.331-0.037
		c-0.102-0.068-0.151-0.188-0.137-0.309l6.096-46.445c0.023-0.139,0.132-0.262,0.283-0.287c0.15-0.02,0.289,0.057,0.35,0.193
		l16.743,35.984l16.276-7.207l-9.074-21.047c-0.022-0.041-0.034-0.09-0.026-0.143l0.709-56.426
		c-0.001-0.172,0.118-0.311,0.286-0.338c0.16-0.021,0.319,0.078,0.369,0.244l11.461,38.088l7.28,35.918l14.532-4.857l-4.008-35.211
		c0-0.021-0.003-0.049,0-0.072l7.888-65.729c0.021-0.145,0.13-0.266,0.282-0.285c0.152-0.027,0.299,0.057,0.362,0.199l36.742,86.795
		l12.228-30.73l3.98-44.754c0.015-0.188,0.177-0.322,0.364-0.303C289.646,77.476,289.773,77.606,289.786,77.769 M232.295,167.347
		l40.18-13.416L236.038,67.88l-7.729,64.43L232.295,167.347z M260.207,191.827l12.188-37.164l-40.024,13.359l1.838,16.104
		L260.207,191.827z M263.98,241.339l-3.828-48.338l-22.321,23.01l2.487,21.842L263.98,241.339z M236.413,203.517l23.088-11.203
		l-25.21-7.467L236.413,203.517z M237.734,215.147l21.13-21.779l-22.375,10.855L237.734,215.147z M227.849,225.351l9.282-9.574
		l-1.28-11.244l-11.133,5.404L227.849,225.351z M224.581,209.255l11.191-5.426l-2.183-19.191l-14.887-4.402L224.581,209.255z
		 M218.552,179.489l14.951,4.434l-1.771-15.686l-14.486,4.83L218.552,179.489z M206.073,218.235l17.89-8.678l-5.984-29.533
		l-11.414-3.377l-16.455,7.27L206.073,218.235z M207.659,176.269l10.167,3.014l-1.217-5.996L207.659,176.269z M206.736,175.874
		l9.741-3.25l-7.293-35.969l-10.829-35.975l-0.676,54.188L206.736,175.874z M167.104,193.376l22.109-9.787l-16.242-34.924
		L167.104,193.376z"/>
	<path fill="#C9C9CA" d="M307.286,91.161c0.002,0.037,0.005,0.082-0.008,0.117l-22.554,79.676l12.943,19.117
		c0.038,0.047,0.055,0.107,0.05,0.182l0.323,33.803c0.006,0.045-0.006,0.098-0.021,0.137l-16.838,38.387
		c-0.042,0.111-0.148,0.18-0.266,0.199c-0.11,0.014-0.23-0.033-0.298-0.125l-16.54-20.709c-0.067-0.084-0.09-0.197-0.056-0.303
		l19.973-70.564l-11.303-16.684l-26.731-12.406c-0.152-0.061-0.225-0.225-0.199-0.371l7.265-34.551l-97.126,27.98
		c-0.172,0.055-0.363-0.051-0.413-0.23c-0.052-0.168,0.054-0.361,0.222-0.414l97.466-28.074l7.515-35.752
		c0.038-0.184,0.214-0.295,0.396-0.26c0.175,0.033,0.302,0.213,0.256,0.396l-7.434,35.404l52.958-15.252
		c0.114-0.037,0.238-0.004,0.326,0.086C307.247,91.005,307.282,91.079,307.286,91.161 M284.233,170.237l22.239-78.57l-52.719,15.189
		l-7.275,34.645l26.583,12.322c0.053,0.031,0.103,0.068,0.134,0.121L284.233,170.237z M297.375,223.989l-0.315-33.635
		l-12.578-18.557l-19.77,69.855l16.083,20.152L297.375,223.989z"/>
	<path fill="#C9C9CA" d="M475.845,178.972c0.006,0.16-0.094,0.307-0.249,0.35l-27.616,7.348c-0.109,0.027-0.228,0.002-0.309-0.074
		l-31.77-28.42l-43.943-4.494l-60.221-6.988c-0.189-0.02-0.32-0.188-0.295-0.369c0.021-0.186,0.188-0.313,0.375-0.295l60.215,6.99
		l44.047,4.5c0.078,0.014,0.137,0.039,0.191,0.096l31.715,28.363l27.137-7.227l-11.33-65.686c-0.039-0.182,0.092-0.355,0.268-0.395
		c0.184-0.023,0.359,0.098,0.391,0.279l11.384,65.99C475.84,178.952,475.843,178.962,475.845,178.972"/>
	<path fill="#C9C9CA" d="M561.742,267.093c-0.002,0.029-0.007,0.061-0.01,0.1l-10.804,48.207c-0.034,0.18-0.218,0.291-0.39,0.256
		c-0.186-0.047-0.303-0.223-0.255-0.404l10.728-47.893l-72.15-19.09c-0.182-0.051-0.285-0.234-0.24-0.412
		c0.047-0.182,0.229-0.283,0.404-0.234l72.455,19.172C561.628,266.831,561.732,266.948,561.742,267.093"/>
	<path fill="#C9C9CA" d="M625.795,268.427c0.001,0.01-0.003,0.02-0.002,0.035c-0.001,0.182-0.159,0.326-0.342,0.324l-64.053-1.332
		c-0.091-0.004-0.185-0.045-0.238-0.111c-0.063-0.068-0.097-0.154-0.093-0.248l4.271-70.811c0.015-0.188,0.172-0.328,0.354-0.316
		c0.189,0.01,0.33,0.172,0.32,0.357l-4.254,70.463l63.707,1.326C625.64,268.12,625.786,268.255,625.795,268.427"/>
	<path fill="#C9C9CA" d="M189.104,73.979c0.003,0.098-0.031,0.203-0.114,0.27l-39.19,35.379c-0.008,0.004-0.017,0.008-0.024,0.012
		l0,0c-0.036,0.031-0.076,0.057-0.114,0.063c-0.039,0.012-0.07,0.018-0.107,0.008l-16.685-1.004l4.441,13.777
		c0.037,0.121,0.004,0.242-0.075,0.334l-12.775,13.924c-0.115,0.133-0.333,0.143-0.475,0.021c-0.132-0.133-0.14-0.336-0.016-0.479
		l12.648-13.779l-4.541-14.068c-0.032-0.104-0.014-0.221,0.06-0.311c0.066-0.08,0.17-0.129,0.277-0.123l16.249,0.988l-9.425-8.693
		c-0.135-0.117-0.142-0.336-0.026-0.469c0.131-0.135,0.341-0.145,0.48-0.012l9.72,8.953l6.541-20.418l-12.66-5.764
		c-0.133-0.059-0.209-0.203-0.191-0.346c0.019-0.143,0.124-0.26,0.264-0.281l45.342-8.285c0.156-0.025,0.298,0.047,0.363,0.18
		C189.095,73.894,189.104,73.937,189.104,73.979 M150.273,108.298l37.402-33.754l-43.135,7.875l11.96,5.445
		c0.151,0.072,0.225,0.25,0.179,0.412L150.273,108.298z"/>
	<path fill="#C9C9CA" d="M385.909,206.278c0.012,0.168-0.097,0.32-0.264,0.355l-48.249,9.75l16.636,32.689
		c0.057,0.127,0.039,0.277-0.053,0.377l-29.33,32.943c-0.072,0.088-0.188,0.123-0.297,0.107c-0.113-0.016-0.21-0.086-0.26-0.186
		l-26.687-58.121c-0.041-0.088-0.04-0.193,0.005-0.289c0.05-0.09,0.139-0.158,0.235-0.174l38.762-7.838l-8.014-15.75l-16.911-53.594
		l-26.239-23.697c-0.029-0.035-0.062-0.066-0.082-0.111l-24.304-51.656l-62.565,27.67l-25.21,48.877
		c-0.041,0.086-0.124,0.15-0.214,0.17c-0.104,0.021-0.204,0.006-0.278-0.053l-16.981-12.754c-0.079-0.064-0.121-0.143-0.127-0.236
		c-0.019-0.111,0.017-0.184,0.074-0.252l18.956-21.701c0.024-0.029,0.046-0.049,0.077-0.068l22.616-14.104l-40.933-10.143
		c-0.087-0.02-0.173-0.088-0.213-0.174l-11.578-22.771c-0.08-0.166-0.013-0.367,0.15-0.447c0.163-0.086,0.368-0.018,0.455,0.139
		l11.502,22.646l41.436,10.262l62.857-27.813c0.176-0.066,0.368-0.002,0.448,0.166l24.408,51.895l26.257,23.723
		c0.055,0.029,0.085,0.088,0.097,0.145l16.93,53.633l8.065,15.867l48.429-9.781c0.18-0.035,0.352,0.078,0.395,0.26
		C385.909,206.257,385.911,206.272,385.909,206.278 M324.494,281.569l28.841-32.385l-16.61-32.668l-38.536,7.787L324.494,281.569z
		 M172.671,146.976l24.528-47.561l-22.213,13.867l-18.691,21.393L172.671,146.976z"/>
	<path fill="#C9C9CA" d="M445.164,332.048c0.016,0.096-0.02,0.189-0.078,0.252c-0.077,0.08-0.19,0.121-0.298,0.109
		c-2.239-0.344-81.36-73.721-91.143-82.801l-25.902,8.574c-0.13,0.051-0.275,0.014-0.361-0.096l-29.262-33.055l3.855,49.51
		c0.014,0.188-0.122,0.35-0.311,0.361c-0.171,0.016-0.343-0.123-0.358-0.309l-3.933-50.51c-0.01-0.141,0.081-0.273,0.213-0.334
		c0.133-0.057,0.278-0.02,0.374,0.086l29.773,33.652l25.792-8.541l31.786-42.838c0.054-0.076,0.138-0.125,0.23-0.131
		c0.096-0.012,0.189,0.016,0.251,0.08l37.827,32.717c0.06,0.043,0.097,0.104,0.106,0.168l21.434,93.057
		C445.162,332.017,445.166,332.036,445.164,332.048 M354.179,249.19c29.214,27.109,83.578,77.252,90.151,82.174l-21.235-92.152
		l-37.465-32.418L354.179,249.19z"/>
	<path fill="#C9C9CA" d="M448.23,186.319c0.003,0.008,0,0.01,0.001,0.012l3.029,91.855c0.003,0.076-0.021,0.146-0.057,0.199
		l-35.313,49.477c-0.083,0.121-0.24,0.178-0.377,0.127c-0.139-0.045-0.221-0.178-0.231-0.326l0.603-54.572l-26.358-25.523
		c-0.128-0.131-0.135-0.346-0.009-0.477c0.131-0.133,0.342-0.137,0.473-0.008l26.453,25.637c0.072,0.051,0.104,0.145,0.111,0.232
		l-0.588,53.656l34.631-48.518l-3.029-91.461l-174.703-32.17c-0.117-0.018-0.21-0.098-0.256-0.211
		c-0.038-0.115-0.021-0.24,0.048-0.326l48.369-60.051c0.115-0.143,0.323-0.168,0.468-0.057c0.149,0.121,0.17,0.336,0.051,0.479
		l-48.016,59.607l174.431,32.117C448.109,186.046,448.219,186.173,448.23,186.319"/>
	<path fill="#C9C9CA" d="M522.673,206.749c0.002,0.025-0.004,0.063-0.013,0.098l-27.388,126.371
		c-0.045,0.182-0.22,0.303-0.397,0.258c-0.183-0.041-0.295-0.215-0.258-0.4l27.396-126.373c0.037-0.178,0.217-0.293,0.396-0.256
		C522.556,206.474,522.658,206.608,522.673,206.749"/>
	<path fill="#C9C9CA" d="M416.379,157.831c0.011,0.105-0.034,0.219-0.129,0.287c-0.113,0.094-0.277,0.098-0.399,0.014L381.7,134.124
		l-9.402,19.375c-0.085,0.166-0.283,0.23-0.446,0.152c-0.17-0.074-0.234-0.279-0.154-0.449l9.454-19.473l-47.533-33.396
		l-21.545,46.17l-14.261,43.533l30.984,9.643c0.14,0.041,0.231,0.182,0.236,0.324l-1.064,57.877
		c-0.002,0.105-0.06,0.209-0.156,0.277l-25.992,16.695c-0.16,0.098-0.359,0.049-0.455-0.104c-0.105-0.154-0.061-0.357,0.098-0.459
		l25.84-16.605l1.052-57.447l-31.064-9.66c-0.085-0.027-0.162-0.09-0.2-0.168c-0.039-0.076-0.048-0.174-0.017-0.252l14.379-43.896
		l21.733-46.572c0.039-0.094,0.121-0.156,0.214-0.182c0.098-0.027,0.201-0.01,0.278,0.049l47.763,33.568l13.899-28.617
		c0.059-0.113,0.182-0.188,0.315-0.188c0.136,0.002,0.251,0.09,0.298,0.217l20.408,53.197
		C416.373,157.769,416.375,157.798,416.379,157.831 M381.997,133.517l33.345,23.438l-19.729-51.455L381.997,133.517z"/>
	<path fill="#C9C9CA" d="M635.254,252.231c0.013,0.094-0.022,0.188-0.085,0.256c-0.094,0.104-0.24,0.139-0.373,0.082l-36.141-14.6
		l-58.561,70.953l-4.496,16.426c-0.048,0.178-0.234,0.287-0.408,0.234c-0.18-0.047-0.285-0.23-0.231-0.404l4.511-16.506
		c0.01-0.045,0.035-0.084,0.066-0.125l58.473-70.844l-75.566-30.527l-33.11,40.814l38.835,89.473
		c0.071,0.176-0.005,0.367-0.177,0.443c-0.167,0.072-0.354-0.004-0.439-0.176l-38.917-89.656c-0.051-0.113-0.031-0.246,0.055-0.34
		l33.391-41.17c0.09-0.119,0.246-0.152,0.383-0.1l75.986,30.701l17.414-21.098c0.068-0.086,0.18-0.133,0.286-0.121
		c0.111,0.008,0.215,0.078,0.267,0.172l18.807,35.984C635.249,252.146,635.255,252.185,635.254,252.231 M599.097,237.427
		l35.105,14.18l-18.152-34.725L599.097,237.427z"/>
	<path fill="#C9C9CA" d="M609.21,292.226c0.006,0.113-0.033,0.223-0.127,0.297c-0.1,0.076-0.247,0.09-0.365,0.027l-46.145-24.43
		l23.275,30.816c0.115,0.137,0.08,0.348-0.063,0.461c-0.147,0.115-0.352,0.082-0.469-0.068l-24.178-32.012
		c-0.102-0.123-0.093-0.299,0.012-0.416c0.102-0.117,0.27-0.148,0.416-0.084l46.791,24.781l-34.16-129.77L462.793,326.505
		c-0.094,0.133-0.263,0.182-0.407,0.119c-0.148-0.063-0.236-0.219-0.201-0.373l5.35-28.268l-76.133,19.844
		c-0.098,0.023-0.204,0.006-0.283-0.057c-0.09-0.057-0.131-0.15-0.139-0.258l-1.543-69.836l-35.682,1.889
		c-0.106,0.004-0.203-0.039-0.271-0.113c-0.072-0.08-0.095-0.184-0.082-0.281l18.229-95.707l-64.91-62.041
		c-0.127-0.117-0.133-0.336-0.014-0.473c0.141-0.131,0.343-0.137,0.477-0.004l65.046,62.164c0.082,0.066,0.114,0.188,0.096,0.305
		l-18.182,95.455l35.596-1.879c0.09-0.002,0.181,0.027,0.246,0.082c0.067,0.068,0.109,0.148,0.109,0.242l1.55,69.758l76.234-19.879
		c0.106-0.023,0.226,0.004,0.309,0.086c0.083,0.076,0.123,0.195,0.104,0.303l-5.15,27.207l110.913-163.939
		c0.079-0.119,0.204-0.166,0.339-0.148c0.129,0.02,0.234,0.121,0.266,0.248l34.545,131.221
		C609.208,292.192,609.209,292.21,609.21,292.226"/>
	<path fill="#C9C9CA" d="M385.909,206.278c0.007,0.094-0.02,0.182-0.076,0.246c-0.075,0.086-0.185,0.129-0.292,0.117l-56.743-6.303
		l-30.885,23.982c-0.015,0.014-0.028,0.025-0.046,0.027l-33.334,17.662l-11.485,9.818c-0.145,0.113-0.355,0.1-0.479-0.041
		c-0.123-0.139-0.104-0.352,0.035-0.471l11.52-9.844c0.019-0.016,0.042-0.029,0.062-0.037l33.34-17.66l30.966-24.049
		c0.067-0.051,0.154-0.068,0.24-0.066l56.402,6.262l-13.452-52.455l-27.85-59.039c-0.077-0.166-0.01-0.365,0.163-0.443
		c0.157-0.08,0.357-0.008,0.443,0.162l27.86,59.061c0.009,0.02,0.015,0.037,0.021,0.057l13.585,52.955
		C385.905,206.241,385.913,206.265,385.909,206.278"/>
	<path fill="#C9C9CA" d="M189.104,73.979c0.004,0.043-0.007,0.086-0.02,0.137l-14.002,39.025c-0.066,0.17-0.257,0.266-0.43,0.195
		c-0.183-0.063-0.265-0.256-0.204-0.43l14.008-39.008c0.061-0.186,0.254-0.277,0.428-0.213
		C189.013,73.733,189.093,73.849,189.104,73.979"/>
	<path fill="#C9C9CA" d="M117.778,273.386c0.002,0.006,0.006,0.018,0,0.023c0.007,0.125-0.075,0.242-0.193,0.295l-9.258,3.902
		c-0.088,0.035-0.18,0.037-0.262-0.008c-0.085-0.037-0.144-0.113-0.164-0.205l-1.368-5.344l-3.469,8.355
		c-0.066,0.162-0.255,0.238-0.419,0.172c-0.155-0.068-0.234-0.25-0.166-0.412l3.789-9.137l-0.545-2.15l-3.149-1.307
		c-0.085-0.041-0.154-0.109-0.183-0.201c-0.026-0.086-0.016-0.186,0.04-0.264l2.024-3.215l-0.057-0.199l-11.469-5.531
		c-0.123-0.055-0.191-0.176-0.177-0.309c0.008-0.133,0.1-0.242,0.231-0.273l9.226-2.459l-1.146-4.482
		c-0.038-0.17,0.06-0.342,0.236-0.385c0.159-0.041,0.34,0.059,0.384,0.23l1.139,4.471l8.814-2.348
		c0.125-0.029,0.256,0.02,0.332,0.121c0.075,0.105,0.086,0.248,0.018,0.354l-6.547,10.412l3.601,1.742
		c0.152,0.07,0.22,0.248,0.154,0.402l-1.413,3.408l9.804,4.072C117.699,273.163,117.77,273.269,117.778,273.386 M108.424,276.884
		l8.216-3.471l-9.099-3.779l-0.607,1.447L108.424,276.884z M104.911,263.153l6.107-9.723l-8.042,2.137L104.911,263.153z
		 M107.195,268.806l1.304-3.139l-3.35-1.609l1.111,4.359L107.195,268.806z M106.68,270.056l0.274-0.668l-0.497-0.205L106.68,270.056
		z M103.157,267.126l2.377,0.99l-0.867-3.383L103.157,267.126z M93.975,257.966l10.222,4.932l-1.829-7.166L93.975,257.966z"/>
	<path fill="#C9C9CA" d="M540.121,308.739c0.014,0.096-0.02,0.201-0.108,0.273l-28.003,25.07c-0.09,0.08-0.213,0.107-0.322,0.076
		c-0.11-0.039-0.198-0.127-0.225-0.236l-22.789-85.676l-65.314-8.889c-0.184-0.025-0.314-0.197-0.283-0.377
		c0.016-0.18,0.188-0.314,0.369-0.285l65.542,8.914c0.14,0.02,0.246,0.117,0.278,0.244l22.707,85.365l27.596-24.701
		c0.141-0.125,0.353-0.123,0.477,0.021C540.097,308.593,540.125,308.663,540.121,308.739"/>
	<path fill="#C9C9CA" d="M648.298,209.038c0.005,0.08-0.017,0.172-0.076,0.244l-85.92,102.33c-0.07,0.084-0.175,0.127-0.274,0.115
		c-0.104-0.002-0.202-0.057-0.259-0.141l-86.546-132.404c-0.078-0.129-0.069-0.303,0.05-0.424l46.808-47.424
		c0.132-0.129,0.345-0.129,0.475,0c0.132,0.129,0.134,0.346,0.005,0.473l-46.625,47.23l86.148,131.797l85.63-101.986
		c0.115-0.137,0.325-0.158,0.466-0.037C648.25,208.862,648.293,208.948,648.298,209.038"/>
	<path fill="#C9C9CA" d="M607.189,181.603c0.006,0.063-0.01,0.123-0.044,0.18l-45.444,85.492c-0.09,0.168-0.294,0.227-0.459,0.143
		c-0.153-0.092-0.224-0.295-0.127-0.459l45.439-85.484c0.088-0.164,0.289-0.227,0.453-0.141
		C607.116,181.39,607.179,181.493,607.189,181.603"/>
	<path fill="#C9C9CA" d="M620.021,280.296c0.004,0.094-0.029,0.189-0.096,0.26c-0.131,0.135-0.342,0.131-0.475,0.008
		l-174.43-170.895l3.21,76.662c0.002,0.15-0.089,0.291-0.231,0.332l-62.13,19.908l-12.757,69.275
		c17.919-2.295,41.396-4.947,43.226-3.338c0.177,0.154,0.213,0.33,0.217,0.443c-0.043,3.094-40.757,27.16-48.915,31.957
		c-0.117,0.066-0.258,0.057-0.364-0.018c-0.105-0.07-0.163-0.205-0.141-0.332l5.15-27.928c-6.691,0.859-13.266,1.756-18.981,2.561
		c-0.096,0.021-0.19-0.004-0.26-0.064l-25.515-20.906l-46.617,4.563c-0.184,0.016-0.35-0.119-0.366-0.305
		c-0.02-0.182,0.117-0.35,0.298-0.365l46.765-4.576c0.077-0.006,0.167,0.02,0.234,0.074l25.513,20.902
		c2.298-0.33,9.89-1.391,19.053-2.576l12.837-69.686c0.022-0.123,0.107-0.227,0.229-0.262l62.074-19.883l-3.233-77.258
		c-0.005-0.137,0.076-0.262,0.2-0.32c0.131-0.055,0.272-0.027,0.367,0.068l175.035,171.482
		C619.979,280.142,620.011,280.22,620.021,280.296 M367.931,303.956c18.594-10.936,47.411-28.629,47.946-30.973
		c-1.404-1.264-22.571,0.971-42.896,3.568L367.931,303.956z"/>
	<path fill="#C9C9CA" d="M646.743,236.218c0.009,0.072-0.003,0.145-0.048,0.213c-0.057,0.08-0.146,0.139-0.256,0.143l-99.355,7.383
		L468.144,297.8c-0.151,0.107-0.354,0.068-0.455-0.086c-0.111-0.15-0.072-0.365,0.089-0.469l77.979-53.186l-56.785,4.217
		c-0.18,0.01-0.348-0.127-0.359-0.309c-0.039-0.189,0.125-0.346,0.306-0.354l57.944-4.314l82.088-55.988
		c0.092-0.057,0.191-0.072,0.294-0.041c0.103,0.033,0.183,0.111,0.212,0.205l17.275,48.66
		C646.736,236.159,646.748,236.187,646.743,236.218 M548.189,243.208l97.763-7.264L628.97,188.11L548.189,243.208z"/>
	<path fill="#C9C9CA" d="M666.95,224.214c0.013,0.172-0.103,0.324-0.271,0.359c-0.179,0.027-0.355-0.088-0.393-0.27l-6.255-33.576
		l-11.787,18.52c-0.041,0.068-0.118,0.123-0.204,0.145l-31.846,7.213c-0.072,0.014-0.139,0.01-0.201-0.012l-50.346-19.941
		l-30.037,7.264l26.1,63.078c0.059,0.133,0.016,0.297-0.107,0.387l-25.207,19.59l3.725,21.734c0.02,0.104-0.018,0.217-0.086,0.295
		c-0.076,0.078-0.188,0.107-0.295,0.096l-26.477-4.143l-32.462,25.232c-0.089,0.068-0.197,0.088-0.3,0.057
		c-0.102-0.025-0.187-0.102-0.222-0.195l-12.604-32.344l-16.918-19.193l-34.588-5.225c-0.096-0.01-0.178-0.068-0.23-0.143
		c-0.057-0.074-0.07-0.166-0.053-0.258l7.078-33.402l-33.042,8.148l-36.418,31.463l-8.297,12.387
		c-0.104,0.148-0.308,0.195-0.459,0.088c-0.158-0.094-0.2-0.313-0.097-0.463l8.325-12.418c0.022-0.031,0.038-0.049,0.059-0.072
		l36.501-31.541c0.045-0.037,0.089-0.064,0.145-0.08l33.361-8.219l-7.329-80.887l1.957-50.646c0.01-0.145,0.103-0.27,0.232-0.303
		c0.135-0.053,0.285,0,0.37,0.111c0.525,0.68,51.759,67.689,57.281,71.578l20.029-7.074l4.692-51.391
		c0.016-0.152,0.133-0.277,0.277-0.301c0.154-0.02,0.304,0.063,0.361,0.203l17.911,43.281l31.56-11.148
		c0.137-0.045,0.271-0.012,0.364,0.094c0.093,0.107,0.112,0.252,0.038,0.371l-20.238,39.008l4.803,11.615l30.244-7.309
		c0.065-0.021,0.134-0.012,0.199,0.014l50.352,19.938l31.61-7.162l12.173-19.113c0.068-0.115,0.201-0.176,0.341-0.152
		c0.135,0.027,0.237,0.137,0.265,0.271l6.415,34.402C666.947,224.192,666.952,224.204,666.95,224.214 M536.277,286.222
		l24.717-19.213l-26.044-62.936l-12.231,2.949L536.277,286.222z M530.214,190.87l19.602-37.766l-30.738,10.859L530.214,190.87z
		 M522.974,206.278l11.718-2.836l-4.546-10.988L522.974,206.278z M513.989,304.39l25.4,3.969l-3.585-20.922L513.989,304.39z
		 M522.203,206.306l7.611-14.66l-11.369-27.459l-22.236,7.854l-1.635,17.879L522.203,206.306z M513.088,304.247l22.586-17.559
		l-13.643-79.705l-27.521-16.324l-5.234,57.311c0.003,0.033-0.011,0.076-0.024,0.105l-20.818,49.188L513.088,304.247z
		 M496.281,171.31l21.908-7.746l-17.373-41.982L496.281,171.31z M480.744,329.38l31.617-24.572l-43.875-6.871L480.744,329.38z
		 M493.935,189.54l1.578-17.248l-19.221,6.779L493.935,189.54z M488.82,245.579l5.054-55.297l-17.889-10.615L488.82,245.579z
		 M467.861,296.903l20.707-48.93l-40.619-60.949l-24.228,52.107l-7.104,33.543l34.359,5.191c0.082,0.012,0.15,0.051,0.201,0.104
		L467.861,296.903z M423.624,237.761l23.965-51.553c0.054-0.115,0.161-0.184,0.28-0.191c0.128-0.012,0.242,0.045,0.309,0.145
		l40.121,60.205l-13.1-67.17c-5.35-3.746-50.965-63.254-56.893-71.008l-1.924,49.68L423.624,237.761z"/>
	<path fill="#C9C9CA" d="M688.579,217.474c0.005,0.09-0.026,0.186-0.097,0.256c-0.135,0.133-0.344,0.137-0.467,0.008l-28.043-27.67
		c-0.135-0.125-0.131-0.34-0.006-0.469c0.124-0.133,0.345-0.137,0.469-0.006l28.039,27.666
		C688.535,217.321,688.573,217.396,688.579,217.474"/>
	<path fill="#C9C9CA" d="M695.567,187.04c0.005,0.029-0.001,0.068,0,0.1l-6.999,30.436c-0.041,0.178-0.225,0.287-0.406,0.252
		c-0.178-0.043-0.289-0.225-0.252-0.402l7.001-30.428c0.043-0.186,0.221-0.297,0.403-0.252
		C695.455,186.772,695.556,186.901,695.567,187.04"/>
	<path fill="#C9C9CA" d="M710.906,206.978c0.012,0.07-0.01,0.148-0.053,0.211c-0.076,0.102-0.19,0.16-0.317,0.145
		c-0.585-0.072-3.626-0.021-8.084,0.094c-1.348,6.99-2.97,14.445-3.091,14.996c-0.032,0.135-0.139,0.23-0.271,0.258
		c-0.137,0.018-0.273-0.041-0.34-0.154l-9.094-14.695c-5.619,0.186-11.736,0.412-17.518,0.627l-5.201,15.891
		c-0.037,0.098-0.117,0.182-0.229,0.211c-0.104,0.033-0.215,0.012-0.301-0.057l-18.657-15.18c-0.018-0.012-0.026-0.029-0.041-0.043
		c-0.004,0.002-0.002-0.004-0.002-0.004c-0.04-0.049-0.063-0.104-0.069-0.168l-0.003-0.006l-1.934-16.164l-29.373,23.6
		c-0.08,0.061-0.168,0.086-0.26,0.072c-0.088-0.018-0.172-0.061-0.223-0.143l-28.687-40.828l-21.251,20.902
		c-0.127,0.121-0.322,0.127-0.455,0.01l-84.723-76.387l-64.514,37.975c-0.141,0.094-0.324,0.059-0.43-0.068l-47.361-58.656
		l-38.778,99.057l42.104-45.346c0.12-0.135,0.316-0.146,0.458-0.037l90.119,72.898l59.91-19.529
		c0.172-0.055,0.359,0.041,0.418,0.213c0.059,0.178-0.039,0.363-0.213,0.426l-59.492,19.389l26.201,21.195
		c0.086,0.07,0.133,0.16,0.131,0.262c-0.006,0.1-0.055,0.197-0.133,0.262l-38.016,30.252c-0.07,0.059-0.159,0.088-0.254,0.074
		c-0.094-0.014-0.176-0.064-0.223-0.143l-27.534-39.168c-0.059-0.088-0.075-0.193-0.043-0.295c0.035-0.107,0.114-0.184,0.218-0.219
		l38.268-12.469l-89.538-72.43l-43.084,46.418c-0.108,0.119-0.285,0.139-0.43,0.059c-0.133-0.088-0.186-0.262-0.125-0.412
		L368.012,98.63c0.037-0.109,0.136-0.188,0.258-0.201c0.114-0.025,0.235,0.025,0.307,0.121l47.55,58.871l64.473-37.963
		c0.121-0.068,0.277-0.051,0.395,0.041l84.67,76.346l21.305-20.957c0.063-0.072,0.166-0.107,0.268-0.098
		c0.088,0.012,0.186,0.063,0.24,0.143l28.709,40.861l29.57-23.756c0.096-0.072,0.219-0.088,0.332-0.051
		c0.111,0.049,0.191,0.154,0.209,0.273l1.971,16.459c2.051-0.086,12.004-0.488,23.385-0.916l6.275-19.162
		c0.039-0.127,0.148-0.209,0.275-0.227c0.139-0.018,0.264,0.043,0.329,0.152l11.489,18.576c4.416-0.15,8.511-0.279,11.879-0.369
		c1.001-5.201,1.825-10.002,1.729-11.271c-0.005-0.016-0.003-0.023-0.004-0.035c-0.016-0.156,0.086-0.303,0.229-0.35
		c0.147-0.045,0.313,0.016,0.396,0.156l6.616,11.564C710.893,206.876,710.912,206.927,710.906,206.978 M702.583,206.755
		c3.543-0.09,6.183-0.137,7.398-0.115l-5.729-10.014C704.058,198.698,703.382,202.603,702.583,206.755 M698.88,221.466
		c0.461-2.15,1.764-8.246,2.893-14.016c-3.231,0.082-7.141,0.209-11.34,0.35L698.88,221.466z M672.364,207.778
		c5.577-0.209,11.451-0.426,16.884-0.607l-10.91-17.639L672.364,207.778z M666.453,223.677l4.977-15.195
		c-10.504,0.396-19.738,0.771-22.564,0.887L666.453,223.677z M450.998,277.716l37.414-29.775l-26.219-21.209l-38.258,12.475
		L450.998,277.716z"/>
	<path fill="#C9C9CA" d="M197.673,154.903c0.007,0.088-0.02,0.172-0.066,0.244l-30.652,38.979c-0.119,0.146-0.323,0.174-0.473,0.057
		c-0.141-0.115-0.17-0.326-0.057-0.469l30.52-38.811l-22.474-41.721c-0.015-0.018-0.026-0.047-0.033-0.074l-13.704-51.295
		l-17.047,20.682c-0.114,0.146-0.323,0.162-0.467,0.049c-0.14-0.115-0.162-0.332-0.045-0.467l17.46-21.188
		c0.077-0.098,0.207-0.145,0.329-0.115c0.119,0.02,0.218,0.123,0.25,0.242l13.867,51.883l22.548,41.879
		C197.663,154.823,197.668,154.864,197.673,154.903"/>
	<path fill="#C9C9CA" d="M297.716,190.229c0.013,0.104-0.024,0.211-0.108,0.285l-57.383,47.891c-0.137,0.115-0.347,0.1-0.465-0.041
		c-0.12-0.143-0.1-0.357,0.042-0.465l57.371-47.902c0.145-0.121,0.353-0.102,0.475,0.047
		C297.689,190.103,297.713,190.161,297.716,190.229"/>
	<path fill="#C9C9CA" d="M416.379,157.831c0.005,0.035-0.004,0.076-0.009,0.117l-26.291,89.473c-0.049,0.17-0.236,0.277-0.413,0.227
		c-0.178-0.057-0.28-0.24-0.227-0.422l26.288-89.463c0.055-0.178,0.238-0.281,0.414-0.229
		C416.283,157.571,416.371,157.692,416.379,157.831"/>
	<path fill="#C9C9CA" d="M390.091,247.296c0.006,0.076-0.014,0.148-0.05,0.211c-0.078,0.119-0.224,0.172-0.367,0.137l-92.046-23.258
		c-0.047-0.016-0.099-0.043-0.132-0.072l-37.285-31.828l-50.896-55.623l-59.463-26.988l-4.614,37.279l119.31,94.314
		c0.146,0.113,0.168,0.328,0.054,0.473c-0.111,0.143-0.328,0.168-0.471,0.055l-119.458-94.434c-0.099-0.068-0.142-0.188-0.127-0.307
		l4.694-37.916c0.025-0.113,0.079-0.205,0.177-0.252c0.086-0.053,0.203-0.061,0.298-0.014l59.941,27.211
		c0.039,0.02,0.085,0.049,0.107,0.08l50.913,55.648l37.193,31.742l91.035,23.01l-77.396-100.197
		c-0.107-0.141-0.088-0.348,0.046-0.467l56.548-47.604c0.145-0.113,0.353-0.094,0.469,0.049c0.132,0.135,0.106,0.344-0.038,0.465
		l-56.298,47.398l77.789,100.707C390.067,247.173,390.092,247.229,390.091,247.296"/>
	<path fill="#C9C9CA" d="M481.099,119.724c0.008,0.059-0.004,0.121-0.035,0.178l-32.865,66.592c-0.086,0.168-0.288,0.24-0.453,0.15
		c-0.163-0.078-0.235-0.279-0.149-0.443l32.874-66.604c0.078-0.164,0.274-0.229,0.441-0.15
		C481.027,119.503,481.09,119.606,481.099,119.724"/>
	<path fill="#C9C9CA" d="M385.909,206.278c0.011,0.105-0.028,0.215-0.115,0.287c-0.145,0.117-0.356,0.102-0.477-0.045
		L275.611,76.063c-0.118-0.141-0.1-0.355,0.038-0.471c0.142-0.115,0.351-0.104,0.473,0.037L385.83,206.093
		C385.882,206.151,385.905,206.216,385.909,206.278"/>
</g>
</svg>
