<?xml version="1.0" encoding="utf-8"?>
<!-- Generator: Adobe Illustrator 15.0.2, SVG Export Plug-In . SVG Version: 6.00 Build 0)  -->
<!DOCTYPE svg PUBLIC "-//W3C//DTD SVG 1.1//EN" "http://www.w3.org/Graphics/SVG/1.1/DTD/svg11.dtd">
<svg version="1.1" id="圖層_1" xmlns="http://www.w3.org/2000/svg" xmlns:xlink="http://www.w3.org/1999/xlink" x="0px" y="0px"
	 width="152.455px" height="25.513px" viewBox="-0.469 39.862 152.455 25.513"
	 enable-background="new -0.469 39.862 152.455 25.513" xml:space="preserve">
<g>
	<g>
		<g>
			<path fill="#0C512D" d="M97.148,40.125c0,0,0.871,2.084,3.014,1.97c2.047-0.107,2.646-1.723,1.539-1.632
				c-1.107,0.094-2.491,0.216-3.413-0.183C97.698,40.023,97.01,39.573,97.148,40.125z"/>
			<path fill="#0C512D" d="M98.564,45.786c-0.888,0.886-1.964,1.327-2.216,1.444c-0.459,0.217-0.338,1.479,0.861,1.172
				c1.2-0.308,2.278-1.263,2.676-1.571c0.031,1.169,0,4.644,0,4.644s0.123,1.385-1.63,2.155c-1.754,0.768-2.584,0.278-3.259,0.924
				c-0.679,0.647,0.552,2.769,2.675,1.229c2.123-1.534,3.2-2.151,3.2-4.183s0.029-6.734,0.029-6.734S100.44,43.907,98.564,45.786z"
				/>
			<path fill="#0C512D" d="M109.36,40.556c-0.829-0.033-1.939-0.022-3.045,0.676c-1.415,0.891-0.553,1.97,1.138,0.954
				c0.709-0.277,1.816-0.369,2.77-0.338c0.953,0.029,1.906-0.14,2.152-0.875C112.62,40.232,110.098,40.588,109.36,40.556z"/>
			<path fill="#0C512D" d="M103.977,45.678c-0.693,0.569-1.367,1.475-0.877,2.029c0.494,0.554,1.875-0.275,2.399-1.016
				c0.523-0.736,1.984-0.816,2.752-0.753v8.611c0,0-0.122,1.262,0.801,1.262c0.924,0,0.891-0.582,0.891-1.321
				c0-0.738,0-8.429,0-8.429s1.71,0.03,2.016,0.217c0.308,0.184,1.999,0.798,2.77-0.187c0.77-0.982,0.347-2.09-0.508-1.614
				c-1.107,0.615-3.476,0.321-5.075,0.321C107.545,44.8,105.024,44.815,103.977,45.678z"/>
		</g>
		<g>
			<path fill="#0C512D" d="M121.039,45.038c-0.777-0.095-2.434-0.582-2.878-0.136c-0.446,0.444-1.336,1.572,0.649,1.608
				c1.44-0.033,1.508-0.274,1.508-0.274l-0.034,5.806l-1.438,0.395l-0.069-3.905c0,0-0.068-0.343-0.412-0.343
				c-0.343,0-0.684,0.068-0.684,0.685c0,0.618-0.035,3.254-0.035,3.254s-0.337,0.831-0.616,0.996
				c-0.643,0.377-0.651,2.241,1.387,1.128c1.819-0.992,3.205-0.873,3.956-0.976c0.753-0.102,1.928-1.464,1.21-1.874
				c-0.5-0.288-0.869,0.813-2.066,0.743c-0.033-3.116-0.033-2.583-0.033-2.583s3.047-0.523,2.1-1.396
				c-0.398-0.371-0.62,0.459-2.1,0.402c0-1.955-0.035-2.537-0.035-2.537s0.653-0.068,1.714-0.139
				c1.063-0.068,1.679-1.198,0.412-1.061C122.216,44.98,121.894,45.14,121.039,45.038z"/>
			<path fill="#0C512D" d="M129.361,43.36c-1.173-1.128-1.781,1.3-2.262,1.986c-0.479,0.685-1.197,1.338-1.746,1.575
				c-1.197,0.513-0.856,2.055,0.651,1.063c0.994-0.754,1.678-1.063,3.016-1.063c1.336,0,3.596,0,3.596,0s0.446,0.103,0.411-0.549
				c-0.034-0.651-1.78-0.478-2.158-0.444c-0.379,0.035-2.569-0.07-2.569-0.07s-0.41-0.137,0.274-0.582
				C129.259,44.83,129.968,43.944,129.361,43.36z"/>
			<path fill="#0C512D" d="M126.005,48.873c-0.376,0.048-1.508,0.518-0.512,1.063c0.992,0.549,3.451,2.111,4.721,3.415
				c1.267,1.302,1.58,1.964,3.088,1.859c1.508-0.102,1.746-0.513,2.157-0.89c0.411-0.378,0.343-0.857-0.479-0.857
				c-0.822,0-2.33-0.032-3.87-1.061c-1.542-1.027-4.043-3.013-4.043-3.013S126.552,48.806,126.005,48.873z"/>
			<path fill="#0C512D" d="M128.642,49.045c-0.027,0.48,0.033,2.262-1.233,3.531c-1.27,1.266-3.255,0.683-3.22,1.712
				c0.033,1.027,2.397,1.198,3.357-0.341c0.958-1.544,2.157-3.633,2.431-4.831C130.287,47.78,128.744,47.229,128.642,49.045z"/>
		</g>
		<g>
			<path fill="#0C512D" d="M137.034,46.236c-0.053,0.957,0.034,6.751,0.034,6.751s-0.341,2.192,0.651,2.227
				c0.994,0.033,0.755-1.131,0.755-2.845c0-1.015,0-2.776,0-2.776s1.679,0.618,2.09-1.914c0.41-2.538,0.308-3.258-1.954-3.323
				c-1.335,0.065,0.397,0.569,0.616,1.573c0.173,0.792,0.377,2.706-0.308,2.741c-0.685,0.033-0.548-0.444-0.514-0.824
				c0.036-0.375,0.754-1.575,0-2.124C137.653,45.177,137.102,44.971,137.034,46.236z"/>
			<path fill="#0C512D" d="M150.91,52.267c-0.412,1.028-0.753,1.918-2.228,1.918c-1.303,0-1.918-0.341-1.951-1.165
				c-0.031-0.685,0.068-1.37,0.409-1.744c0.342-0.38,0.378-0.929-0.207-1.065c-0.581-0.137-1.025-0.513-0.065-0.72
				c0.959-0.204,2.158-0.856,1.577-1.54c-0.332-0.391-0.893-0.446-0.585-0.754c0.31-0.306-0.103-1.506-1.438-0.892
				c-1.337,0.618-3.05,1.506-2.944,0.719c0.102-0.785,0.718-1.231,1.231-1.644c0.515-0.409,1.403-1.164,2.638-1.195
				c1.232-0.035,1.713,0.101,1.029,0.444c-0.686,0.342-1.588,0.813,0.032,0.787c2.262-0.036,3.117-2.124,1.268-2.092
				c-1.851,0.036-3.186,0.448-3.358,0.036c-0.171-0.41,0.104-1.303-2.055-0.96c-0.239,0.039-0.99,0.411-0.548,0.685
				c0.446,0.275,0.959,0.722,0.344,0.892c-0.616,0.169-2.673,1.199-2.502,2.639c0.068,0.957,1.473,1.093,1.679,1.129
				c0.207,0.035-0.068,0.514,0.96,0.379c1.028-0.138,4.006-0.687,2.536,0.276c-1.475,0.955-2.262,1.023-3.428,1.023
				c-1.164,0-1.644,0.239-1.679,0.926c-0.033,0.687,1.37,0.79,1.989,0.648c-1.646,1.782-4.011,3.393-3.325,4.08
				c0.668,0.666,3.325-2.022,4.112-3.083c0.788-1.063,1.197-1.545,1.438-1.474c0.24,0.067,0.171,0.649,0.102,1.575
				c-0.067,0.924-0.102,3.05,2.262,3.117c2.364,0.067,3.629-0.272,3.767-1.678S151.32,51.237,150.91,52.267z M142.516,46.171
				c-0.344-0.309,0.589-1.097,1.027-1.407c0.686-0.479,0.926,0.037,0.446,0.481C143.51,45.691,142.859,46.479,142.516,46.171z"/>
		</g>
	</g>
	<path fill="#0C512D" d="M48,43.826h-3.386v0.727H48V43.826z M78.353,63.798V49.714h-1.28v-2.047H64.711v2.047H51.945v-1.675h-3.43
		V64.84h3.297v-0.51h28.843v-0.532H78.353z M48.852,51.395h1.214v2.824h-1.214V51.395z M50.098,62.769h-1.215v-3.471h1.215V62.769z
		 M50.098,58.011h-1.215v-2.823h1.215V58.011z M50.403,51.395h1.214v2.824h-1.214V51.395z M51.649,62.769h-1.215v-3.471h1.215
		V62.769z M51.649,58.011h-1.215v-2.823h1.215V58.011z M52.565,51.395h1.214v2.824h-1.214V51.395z M53.81,62.769h-1.214v-3.471
		h1.214V62.769z M53.81,58.011h-1.214v-2.823h1.214V58.011z M54.115,51.395h1.215v2.824h-1.215V51.395z M55.362,62.769h-1.215
		v-3.471h1.215V62.769z M55.362,58.011h-1.215v-2.823h1.215V58.011z M56.277,51.395h1.215v2.824h-1.215V51.395z M57.522,62.769
		h-1.213v-3.471h1.213V62.769z M57.522,58.011h-1.213v-2.823h1.213V58.011z M57.828,51.395h1.213v2.824h-1.213V51.395z
		 M59.074,62.769H57.86v-3.471h1.215V62.769z M59.074,58.011H57.86v-2.823h1.215V58.011z M59.989,51.395h1.215v2.824h-1.215V51.395z
		 M61.236,62.769h-1.215v-3.471h1.215V62.769z M61.236,58.011h-1.215v-2.823h1.215V58.011z M61.541,51.395h1.214v2.824h-1.214
		V51.395z M62.787,62.769h-1.215v-3.471h1.215V62.769z M62.787,58.011h-1.215v-2.823h1.215V58.011z M63.702,51.395h1.214v2.824
		h-1.214V51.395z M64.948,62.769h-1.214v-3.471h1.214V62.769z M64.948,58.011h-1.214v-2.823h1.214V58.011z M65.254,51.395h1.214
		v2.824h-1.214V51.395z M66.499,62.769h-1.215v-3.471h1.215V62.769z M66.499,58.011h-1.215v-2.823h1.215V58.011z M67.415,51.395
		h1.213v2.824h-1.213V51.395z M68.66,62.769h-1.213v-3.471h1.213V62.769z M68.66,58.011h-1.213v-2.823h1.213V58.011z M68.966,51.395
		h1.214v2.824h-1.214V51.395z M70.212,62.769h-1.214v-3.471h1.214V62.769z M70.212,58.011h-1.214v-2.823h1.214V58.011z
		 M71.127,51.395h1.215v2.824h-1.215V51.395z M72.373,58.011h-1.214v-2.823h1.214V58.011z M72.678,51.395h1.214v2.824h-1.214V51.395
		z M73.924,58.011H72.71v-2.823h1.214V58.011z M76.05,62.726h-1.214v-3.469h1.214V62.726z M76.05,58.175h-1.214v-2.823h1.214V58.175
		z M76.05,54.188h-1.214v-2.822h1.214V54.188z M35.66,43.826h-3.386v0.727h3.386V43.826z M77.259,47.199H64.492v0.348h12.767V47.199
		z M28.361,65.375h23.46v-0.347h-23.46V65.375z M31.808,64.84h3.399v-6.146h0.006v-0.004h0.676v-12.24h8.33v0.1h-0.006v12.141h0.663
		v0.004h0.111v6.146h3.407V47.933h3.918v-0.346h-3.918v-2.945h-4.174v1.459h-8.33v-1.459h-4.083v2.662h0.001v0.283h-3.934v0.346
		h3.934V64.84z M45.864,48.399h1.215v2.169h-1.215V48.399z M45.864,51.395h1.215v2.824h-1.215V51.395z M45.864,55.188h1.215v2.823
		h-1.215V55.188z M45.864,59.299h1.215v3.471h-1.215V59.299z M33.339,48.399h1.215v2.169h-1.215V48.399z M33.339,51.395h1.215v2.824
		h-1.215V51.395z M33.339,55.188h1.215v2.823h-1.215V55.188z M33.339,59.299h1.215v3.471h-1.215V59.299z M31.682,64.84V48.039H28.24
		v1.675H15.452v-2.047H3.09v2.047H1.833v14.084h-2.302v0.532h28.826v0.51H31.682z M5.302,62.726H4.088v-3.469h1.214V62.726z
		 M5.302,58.175H4.088v-2.823h1.214V58.175z M5.302,54.188H4.088v-2.822h1.214V54.188z M7.432,58.011H6.219v-2.823h1.213V58.011z
		 M7.432,54.219H6.219v-2.824h1.213V54.219z M8.984,58.011H7.769v-2.823h1.214V58.011z M8.984,54.219H7.769v-2.824h1.214V54.219z
		 M11.145,62.769H9.931v-3.471h1.214V62.769z M11.145,58.011H9.931v-2.823h1.214V58.011z M11.145,54.219H9.931v-2.824h1.214V54.219z
		 M12.696,62.769h-1.214v-3.471h1.214V62.769z M12.696,58.011h-1.214v-2.823h1.214V58.011z M12.696,54.219h-1.214v-2.824h1.214
		V54.219z M14.858,62.769h-1.215v-3.471h1.215V62.769z M14.858,58.011h-1.215v-2.823h1.215V58.011z M14.858,54.219h-1.215v-2.824
		h1.215V54.219z M16.408,62.769h-1.214v-3.471h1.214V62.769z M16.408,58.011h-1.214v-2.823h1.214V58.011z M16.408,54.219h-1.214
		v-2.824h1.214V54.219z M18.571,62.769h-1.214v-3.471h1.214V62.769z M18.571,58.011h-1.214v-2.823h1.214V58.011z M18.571,54.219
		h-1.214v-2.824h1.214V54.219z M20.121,62.769h-1.214v-3.471h1.214V62.769z M20.121,58.011h-1.214v-2.823h1.214V58.011z
		 M20.121,54.219h-1.214v-2.824h1.214V54.219z M22.283,62.769h-1.215v-3.471h1.215V62.769z M22.283,58.011h-1.215v-2.823h1.215
		V58.011z M22.283,54.219h-1.215v-2.824h1.215V54.219z M23.833,62.769H22.62v-3.471h1.213V62.769z M23.833,58.011H22.62v-2.823
		h1.213V58.011z M23.833,54.219H22.62v-2.824h1.213V54.219z M25.995,62.769h-1.215v-3.471h1.215V62.769z M25.995,58.011h-1.215
		v-2.823h1.215V58.011z M25.995,54.219h-1.215v-2.824h1.215V54.219z M27.546,62.769h-1.214v-3.471h1.214V62.769z M27.546,58.011
		h-1.214v-2.823h1.214V58.011z M27.546,54.219h-1.214v-2.824h1.214V54.219z M30.044,51.395h1.214v2.824h-1.214V51.395z
		 M30.044,55.188h1.214v2.823h-1.214V55.188z M30.044,59.299h1.214v3.471h-1.214V59.299z M28.494,51.395h1.214v2.824h-1.214V51.395z
		 M28.494,55.188h1.214v2.823h-1.214V55.188z M28.494,59.299h1.214v3.471h-1.214V59.299z M15.656,47.199H2.888v0.348h12.768V47.199z
		 M44.739,64.84v-4.003h-9.284v4.003h0.257v-3.63h2.163v3.63h0.455v-3.63h3.57v3.63h0.379v-3.63h2.164v3.63H44.739z M44.739,58.94
		h-9.284v1.767h9.284V58.94z M36.004,46.549v12.141H44.1V46.549H36.004z M36.475,48.459h2.127v3.158h-2.127V48.459z M38.623,58.013
		h-2.066v-5.556h2.066V58.013z M41.151,58.013h-2.067v-5.556h2.067V58.013z M41.203,51.617h-2.127v-3.158h2.127V51.617z
		 M43.632,58.013h-2.067v-5.556h2.067V58.013z M43.754,51.617h-2.127v-3.158h2.127V51.617z"/>
	<g>
		<path fill="#0C512D" d="M100.266,59.235v0.84h-3.163v1.593h2.969v0.845h-2.969v1.762h3.298v0.853h-4.295v-5.892H100.266z"/>
		<path fill="#0C512D" d="M103.454,62.985l1.491,2.142h-1.165l-0.899-1.313l-0.909,1.313h-1.16l1.495-2.142l-1.487-2.157h1.152
			l0.909,1.309l0.899-1.309h1.157L103.454,62.985z"/>
		<path fill="#0C512D" d="M106.124,63.243c0.017,0.155,0.054,0.302,0.109,0.441c0.057,0.14,0.128,0.262,0.216,0.367
			c0.087,0.105,0.188,0.189,0.305,0.251c0.115,0.063,0.238,0.094,0.372,0.094c0.243,0,0.446-0.067,0.609-0.201
			c0.161-0.133,0.29-0.334,0.386-0.602h0.921c-0.056,0.256-0.146,0.485-0.272,0.685c-0.125,0.199-0.273,0.369-0.444,0.506
			c-0.172,0.138-0.362,0.244-0.569,0.317c-0.206,0.073-0.419,0.109-0.64,0.109c-0.309,0-0.588-0.062-0.836-0.186
			s-0.459-0.29-0.634-0.498c-0.175-0.209-0.31-0.451-0.403-0.729c-0.094-0.276-0.142-0.568-0.142-0.875
			c0-0.288,0.048-0.562,0.142-0.825s0.229-0.496,0.403-0.697c0.175-0.202,0.387-0.361,0.636-0.479
			c0.249-0.119,0.529-0.178,0.838-0.178c0.299,0,0.569,0.054,0.812,0.16c0.242,0.107,0.449,0.255,0.62,0.446
			c0.172,0.189,0.305,0.414,0.396,0.671c0.091,0.258,0.137,0.537,0.137,0.834v0.389H106.124z M108.07,62.487
			c-0.017-0.135-0.052-0.258-0.104-0.367s-0.12-0.205-0.204-0.285c-0.085-0.08-0.185-0.143-0.3-0.187
			c-0.116-0.043-0.242-0.064-0.381-0.064c-0.126,0-0.244,0.023-0.353,0.072c-0.108,0.047-0.203,0.111-0.287,0.194
			c-0.083,0.08-0.152,0.177-0.207,0.286s-0.092,0.227-0.111,0.351H108.07z"/>
		<path fill="#0C512D" d="M112.341,62.356c-0.08-0.278-0.185-0.48-0.315-0.606c-0.131-0.125-0.299-0.188-0.505-0.188
			c-0.154,0-0.291,0.037-0.411,0.112s-0.222,0.173-0.304,0.298c-0.084,0.124-0.146,0.268-0.188,0.431
			c-0.042,0.162-0.063,0.333-0.063,0.511c0,0.186,0.022,0.368,0.065,0.547c0.044,0.179,0.107,0.337,0.19,0.475s0.183,0.25,0.3,0.333
			c0.117,0.085,0.248,0.128,0.395,0.128c0.113,0,0.216-0.026,0.307-0.079c0.091-0.052,0.171-0.122,0.24-0.211
			c0.069-0.088,0.126-0.191,0.171-0.309c0.045-0.116,0.08-0.24,0.105-0.373h1.035c-0.035,0.278-0.101,0.528-0.202,0.747
			c-0.103,0.22-0.233,0.408-0.393,0.562c-0.161,0.155-0.35,0.273-0.566,0.355c-0.218,0.081-0.458,0.122-0.723,0.122
			c-0.223,0-0.423-0.03-0.604-0.09c-0.18-0.062-0.343-0.145-0.484-0.25c-0.142-0.104-0.266-0.232-0.368-0.378
			c-0.104-0.146-0.191-0.305-0.261-0.475c-0.068-0.17-0.12-0.349-0.154-0.536s-0.051-0.377-0.051-0.568
			c0-0.315,0.048-0.605,0.142-0.873c0.094-0.266,0.228-0.495,0.4-0.688c0.172-0.192,0.378-0.343,0.62-0.45
			c0.242-0.106,0.513-0.16,0.811-0.16c0.263,0,0.496,0.041,0.7,0.124c0.207,0.084,0.385,0.196,0.538,0.34
			c0.15,0.144,0.276,0.314,0.375,0.512s0.172,0.409,0.22,0.638H112.341z"/>
		<path fill="#0C512D" d="M117.72,65.127h-0.996V64.64c-0.108,0.11-0.211,0.202-0.313,0.275c-0.102,0.072-0.202,0.131-0.3,0.175
			c-0.099,0.043-0.198,0.075-0.299,0.093c-0.103,0.018-0.207,0.027-0.314,0.027c-0.217,0-0.409-0.032-0.58-0.097
			c-0.17-0.064-0.315-0.157-0.437-0.276c-0.121-0.12-0.213-0.264-0.277-0.432c-0.063-0.166-0.095-0.354-0.095-0.563v-3.015h0.997
			v2.943c0,0.109,0.015,0.203,0.045,0.28c0.028,0.079,0.07,0.14,0.121,0.188c0.052,0.047,0.114,0.082,0.185,0.104
			s0.146,0.03,0.228,0.03c0.13,0,0.257-0.029,0.382-0.091c0.126-0.06,0.237-0.143,0.334-0.247c0.097-0.104,0.175-0.222,0.235-0.357
			c0.059-0.136,0.089-0.28,0.089-0.432v-2.419h0.996V65.127z"/>
		<path fill="#0C512D" d="M119.975,59.645v1.183h0.79v0.814h-0.79v2.34c0,0.118,0.027,0.217,0.082,0.296
			c0.055,0.078,0.132,0.118,0.23,0.118c0.031,0,0.093-0.005,0.187-0.015c0.093-0.011,0.22-0.048,0.383-0.113v0.787
			c-0.175,0.067-0.34,0.11-0.496,0.128c-0.155,0.018-0.284,0.027-0.386,0.027c-0.133,0-0.259-0.027-0.38-0.08
			c-0.122-0.054-0.228-0.129-0.319-0.227c-0.092-0.096-0.164-0.214-0.217-0.353c-0.054-0.137-0.081-0.291-0.081-0.46v-2.449h-0.612
			v-0.814h0.612v-1.183H119.975z"/>
		<path fill="#0C512D" d="M122.386,59.24v0.992h-0.997V59.24H122.386z M122.386,60.828v4.299h-0.997v-4.299H122.386z"/>
		<path fill="#0C512D" d="M124.882,63.732l1.023-2.904h1.025l-1.58,4.299h-0.938l-1.592-4.299h1.043L124.882,63.732z"/>
		<path fill="#0C512D" d="M128.177,63.243c0.017,0.155,0.053,0.302,0.11,0.441c0.056,0.14,0.128,0.262,0.215,0.367
			s0.188,0.189,0.304,0.251c0.115,0.063,0.24,0.094,0.372,0.094c0.245,0,0.447-0.067,0.609-0.201
			c0.163-0.133,0.291-0.334,0.387-0.602h0.92c-0.056,0.256-0.146,0.485-0.271,0.685s-0.274,0.369-0.445,0.506
			c-0.172,0.138-0.362,0.244-0.568,0.317c-0.207,0.073-0.42,0.109-0.64,0.109c-0.31,0-0.589-0.062-0.837-0.186
			c-0.247-0.124-0.459-0.29-0.633-0.498c-0.176-0.209-0.309-0.451-0.402-0.729c-0.096-0.276-0.142-0.568-0.142-0.875
			c0-0.288,0.046-0.562,0.142-0.825c0.094-0.264,0.227-0.496,0.402-0.697c0.174-0.202,0.387-0.361,0.636-0.479
			c0.249-0.119,0.528-0.178,0.839-0.178c0.298,0,0.568,0.054,0.811,0.16c0.241,0.107,0.448,0.255,0.621,0.446
			c0.17,0.189,0.303,0.414,0.394,0.671c0.092,0.258,0.138,0.537,0.138,0.834v0.389H128.177z M130.123,62.487
			c-0.018-0.135-0.052-0.258-0.104-0.367s-0.12-0.205-0.205-0.285s-0.184-0.143-0.3-0.187c-0.115-0.043-0.242-0.064-0.379-0.064
			c-0.128,0-0.245,0.023-0.353,0.072c-0.108,0.047-0.205,0.111-0.288,0.194c-0.082,0.08-0.151,0.177-0.206,0.286
			s-0.094,0.227-0.112,0.351H130.123z"/>
		<path fill="#0C512D" d="M136.111,61.844l1.479-2.609h1.137l-2.134,3.56v2.332h-1v-2.332l-2.13-3.56h1.132L136.111,61.844z"/>
		<path fill="#0C512D" d="M142.969,65.127h-0.996V64.64c-0.106,0.11-0.212,0.202-0.313,0.275c-0.102,0.072-0.2,0.131-0.3,0.175
			c-0.098,0.043-0.198,0.075-0.3,0.093s-0.204,0.027-0.313,0.027c-0.217,0-0.41-0.032-0.58-0.097
			c-0.171-0.064-0.315-0.157-0.437-0.276c-0.122-0.12-0.214-0.264-0.277-0.432c-0.063-0.166-0.095-0.354-0.095-0.563v-3.015h0.996
			v2.943c0,0.109,0.015,0.203,0.045,0.28c0.029,0.079,0.07,0.14,0.123,0.188c0.052,0.047,0.112,0.082,0.183,0.104
			s0.146,0.03,0.229,0.03c0.129,0,0.256-0.029,0.383-0.091c0.125-0.06,0.235-0.143,0.332-0.247c0.098-0.104,0.176-0.222,0.235-0.357
			c0.059-0.136,0.089-0.28,0.089-0.432v-2.419h0.996V65.127z"/>
		<path fill="#0C512D" d="M147.86,65.013c-0.082,0.05-0.153,0.089-0.215,0.115c-0.063,0.027-0.118,0.046-0.168,0.059
			s-0.091,0.021-0.126,0.022c-0.035,0-0.066,0.001-0.091,0.001c-0.102,0-0.194-0.019-0.277-0.054
			c-0.083-0.037-0.156-0.086-0.219-0.146c-0.064-0.061-0.118-0.131-0.166-0.212c-0.045-0.08-0.084-0.165-0.115-0.255
			c-0.126,0.132-0.246,0.241-0.359,0.327c-0.112,0.086-0.224,0.154-0.333,0.205c-0.11,0.051-0.22,0.086-0.329,0.105
			c-0.11,0.02-0.225,0.029-0.343,0.029c-0.193,0-0.376-0.03-0.542-0.09c-0.168-0.062-0.313-0.147-0.438-0.259
			c-0.124-0.11-0.221-0.245-0.292-0.402c-0.069-0.158-0.105-0.333-0.105-0.524c0-0.166,0.037-0.31,0.112-0.431
			c0.074-0.121,0.173-0.227,0.296-0.317c0.123-0.089,0.262-0.166,0.419-0.231c0.154-0.065,0.313-0.123,0.476-0.176
			c0.163-0.052,0.322-0.103,0.477-0.148c0.157-0.049,0.297-0.1,0.42-0.153c0.122-0.053,0.221-0.113,0.295-0.179
			c0.074-0.066,0.112-0.146,0.112-0.238c0-0.092-0.023-0.167-0.07-0.227c-0.046-0.061-0.105-0.109-0.178-0.148
			c-0.071-0.038-0.15-0.064-0.239-0.081c-0.089-0.018-0.176-0.026-0.261-0.026s-0.169,0.013-0.254,0.035
			c-0.084,0.025-0.161,0.063-0.23,0.113c-0.067,0.051-0.126,0.116-0.174,0.196c-0.049,0.08-0.08,0.175-0.094,0.285h-1.01
			c0.018-0.248,0.079-0.464,0.185-0.648s0.24-0.338,0.402-0.458c0.164-0.122,0.348-0.212,0.553-0.271
			c0.203-0.059,0.411-0.089,0.622-0.089c0.231,0,0.451,0.026,0.661,0.076c0.209,0.051,0.396,0.132,0.556,0.241
			s0.288,0.249,0.383,0.42c0.098,0.17,0.146,0.375,0.146,0.615v2.084c0,0.058,0.017,0.109,0.055,0.154
			c0.036,0.048,0.088,0.07,0.155,0.07c0.009,0,0.04-0.003,0.094-0.01c0.053-0.008,0.124-0.034,0.211-0.083V65.013z M146.348,63.065
			c-0.064,0.04-0.149,0.075-0.254,0.105c-0.104,0.032-0.216,0.063-0.338,0.096c-0.121,0.032-0.243,0.067-0.365,0.104
			c-0.122,0.037-0.233,0.08-0.332,0.129c-0.098,0.05-0.179,0.106-0.242,0.173s-0.095,0.145-0.095,0.234
			c0,0.088,0.014,0.162,0.043,0.225c0.026,0.061,0.063,0.111,0.111,0.151c0.046,0.039,0.1,0.068,0.158,0.086
			c0.059,0.019,0.118,0.028,0.177,0.028c0.194,0,0.393-0.065,0.593-0.197c0.202-0.13,0.383-0.328,0.544-0.593V63.065z"/>
		<path fill="#0C512D" d="M148.371,60.828h0.996v0.506c0.186-0.21,0.38-0.362,0.585-0.453s0.413-0.138,0.627-0.138
			c0.221,0,0.417,0.032,0.592,0.097c0.175,0.065,0.321,0.157,0.441,0.277s0.212,0.263,0.277,0.43
			c0.063,0.169,0.097,0.355,0.097,0.56v3.021h-0.996v-2.859c0-0.109-0.017-0.206-0.048-0.291c-0.031-0.084-0.072-0.156-0.126-0.216
			s-0.118-0.104-0.19-0.133c-0.073-0.03-0.15-0.044-0.231-0.044c-0.134,0-0.262,0.027-0.385,0.081
			c-0.124,0.055-0.233,0.128-0.327,0.221c-0.095,0.092-0.171,0.197-0.229,0.315c-0.059,0.12-0.087,0.245-0.087,0.375v2.551h-0.996
			V60.828z"/>
	</g>
</g>
</svg>
