<?xml version="1.0" encoding="utf-8"?>
<!-- Generator: Adobe Illustrator 24.1.2, SVG Export Plug-In . SVG Version: 6.00 Build 0)  -->
<svg version="1.1" id="圖層_1" xmlns="http://www.w3.org/2000/svg" xmlns:xlink="http://www.w3.org/1999/xlink" x="0px" y="0px"
	 viewBox="0 0 100 100" style="enable-background:new 0 0 100 100;" xml:space="preserve">
<style type="text/css">
	.st0{fill:#2992AD;}
</style>
<g>
	<path class="st0" d="M42.1,1.7C19.7,1.7,1.5,19.9,1.5,42.3C1.5,64.7,19.7,83,42.1,83c11.2,0,21.3-4.5,28.7-11.9L69,69.3
		c-2.5,0.9-5.1,1.4-7.8,1.4c-0.3,0-0.6,0-0.8,0c-0.1,0.1-0.2,0.2-0.4,0.3c0.1-0.1,0.1-0.2,0.1-0.3c-2.5-0.1-4.9-0.6-7.1-1.6
		c-2.2,3.1-4.8,5.4-7.6,6.4V64c-3.7-3.9-6-9.2-6-15c0-5.8,2.3-11.1,6-15v-1.8h1.9c3.8-3.1,8.6-5,13.8-5c10.6,0,19.4,7.6,21.4,17.6
		c0-0.8,0.1-1.6,0.1-2.5C82.8,19.9,64.5,1.7,42.1,1.7z M24.2,13.7c-2,3.4-3.7,7.3-4.9,11.7h-6.4C15.6,20.6,19.5,16.6,24.2,13.7z
		 M8.3,42.3c0-3.5,0.5-6.9,1.6-10.2h8c-0.5,3.2-0.8,6.6-0.8,10.2c0,3.5,0.3,6.9,0.8,10.2h-8C8.8,49.3,8.3,45.9,8.3,42.3z M12.8,59.3
		h6.4c1.2,4.4,2.9,8.4,4.9,11.7C19.5,68,15.6,64,12.8,59.3z M38.7,75.6c-5.2-1.9-9.7-8-12.4-16.3h12.4V75.6z M38.7,52.5H24.7
		c-0.6-3.2-0.9-6.6-0.9-10.2c0-3.5,0.3-6.9,0.9-10.2h14.1V52.5z M38.7,25.4H26.4C29,17.1,33.5,11,38.7,9.1V25.4z M45.5,25.4V9.1
		c5.2,1.9,9.7,8,12.4,16.3H45.5z M65,25.4c-1.2-4.4-2.9-8.4-4.9-11.7c4.7,2.9,8.6,7,11.3,11.7H65z"/>
	<path class="st0" d="M77.6,59.2l-0.7,0.7l-0.5-0.5c2.3-3.1,3.5-6.8,3.5-10.7c0-10.1-8.2-18.4-18.3-18.4c-10.1,0-18.4,8.2-18.4,18.3
		c0,10.1,8.2,18.4,18.3,18.4c3.9,0,7.5-1.2,10.7-3.4l0.5,0.5L71.8,65l14.5,14.5l5.8-5.8L77.6,59.2z M73.9,48.8
		c0,6.8-5.6,12.3-12.4,12.3c-6.8,0-12.3-5.6-12.3-12.4c0-6.8,5.6-12.3,12.4-12.3S73.9,42,73.9,48.8z"/>
</g>
</svg>
