<?xml version="1.0" encoding="utf-8"?>
<!-- Generator: Adobe Illustrator 24.1.2, SVG Export Plug-In . SVG Version: 6.00 Build 0)  -->
<svg version="1.1" id="圖層_1" xmlns="http://www.w3.org/2000/svg" xmlns:xlink="http://www.w3.org/1999/xlink" x="0px" y="0px"
	 viewBox="0 0 100 100" style="enable-background:new 0 0 100 100;" xml:space="preserve">
<style type="text/css">
	.st0{fill:#CB457D;}
	.st1{fill:#FFFFFF;}
</style>
<circle class="st0" cx="50" cy="50" r="50"/>
<g>
	<path class="st1" d="M75.3,40.3V22.4H24.7V40l-2.3,1.1v29.5c0,3.8,3.1,6.9,6.9,6.9h41.4c3.2,0,6.9-2.5,6.9-4.6l-0.1-31.6L75.3,40.3
		z M72.9,46.2L73,67.3L61.2,55.9L72.9,46.2z M70.7,27v15.1L51.9,57.5c-0.9,0.9-2.4,1-3.7-0.1l-19-15.5V27H70.7z M27,67.7V46l12,9.8
		L27,67.7z M29.3,73c-0.3,0-0.6-0.1-0.9-0.2l14.2-14.1l2.6,2.1c1.3,1.3,3.1,2,5,2c1.9,0,3.6-0.7,4.8-1.9l2.6-2.1l14.3,13.9
		c-0.4,0.2-0.8,0.3-1.2,0.3H29.3z"/>
	<rect x="36.2" y="31.6" class="st1" width="27.6" height="4.6"/>
	<rect x="36.2" y="38.5" class="st1" width="20.7" height="4.6"/>
</g>
</svg>
